<svg width="258" height="299" viewBox="0 0 258 299" fill="none" xmlns="http://www.w3.org/2000/svg">
<path fill-rule="evenodd" clip-rule="evenodd" d="M68.325 67.9015C68.0196 72.8964 67.7137 77.8909 67.4082 82.8859C69.3741 82.3196 81.8801 78.6399 81.1077 82.3709C80.5535 85.0469 77.0374 87.9415 75.2461 89.8046C73.5974 91.52 71.8996 93.1903 70.1586 94.8121C73.3585 93.5873 76.5848 92.4274 79.8346 91.3422C82.2935 90.5212 84.7705 89.7195 87.2901 89.1042C88.2254 88.8755 90.7509 87.9429 91.6344 88.5789C93.9561 90.2497 81.3587 102.557 79.6331 104.292C82.0731 103.157 84.5716 102.126 87.1129 101.242C88.9474 100.603 94.6156 98.1623 96.2391 100.246C97.9769 102.476 93.6718 107.597 92.4779 109.22C90.7671 111.546 88.9132 113.778 86.968 115.912C95.0529 123.174 104.553 129.637 114.664 133.654C122.078 136.6 129.36 137.35 137.183 135.733C145.22 134.073 152.927 130.887 160.254 127.246C164.557 125.107 168.803 122.793 172.849 120.193C171.181 118.165 169.562 116.094 167.989 113.992C165.743 110.99 162.984 107.71 161.704 104.136C160.451 100.639 165.151 101.322 167.406 101.512C170.671 101.787 173.927 102.37 177.127 103.069C174.865 101.495 172.643 99.8584 170.467 98.1686C167.629 95.9667 163.845 93.4766 161.988 90.3087C160.355 87.5229 163.939 88.2265 165.596 88.5915C169.547 89.462 173.392 90.9452 177.16 92.3918C179.92 93.4514 182.663 94.5609 185.379 95.7294C183.693 94.2639 182.064 92.7281 180.498 91.1356C178.393 88.9953 175.554 86.3814 174.61 83.4341C172.688 77.4318 185.617 81.9595 187.824 82.8859C187.416 76.668 187.009 70.4501 186.602 64.2322C169.483 68.7873 152.363 73.343 135.244 77.8986C133.394 78.391 131.079 79.4632 129.149 79.5203C127.402 79.5726 125.291 78.7858 123.587 78.4603L92.6079 72.5413C84.5136 70.9947 76.4193 69.4481 68.325 67.9015Z" fill="#FFCDD6"/>
<path fill-rule="evenodd" clip-rule="evenodd" d="M252.318 281.767C250.47 282.825 248.305 283.641 246.252 284.189C245.046 284.511 243.054 285.505 241.995 284.594C241.486 284.157 241.369 283.163 241.069 282.588C240.594 281.676 239.919 280.889 239.287 280.083C237.754 278.131 236.159 276.247 234.49 274.41C233.699 273.54 232.254 271.508 230.861 271.642C229.124 271.808 229.166 274.212 229.601 275.441C230.987 279.351 235.182 282.76 237.923 285.706C237.226 286.778 233.399 286.65 232.337 286.4C230.714 286.017 230.55 284.862 229.81 283.54C228.078 280.452 224.565 278.724 221.677 276.909C220.624 276.246 218.386 274.412 217.014 274.874C215.714 275.311 215.77 276.972 216.184 278.057C216.81 279.696 218.59 280.833 219.906 281.87C221.661 283.251 223.266 284.754 224.728 286.444C222.62 286.616 220.52 286.913 218.417 287.087C215.874 287.296 213.755 285.901 211.413 285.11C209.238 284.375 207.071 283.754 204.932 282.907C202.53 281.956 200.015 281.625 197.592 280.79C188.085 277.516 178.77 273.398 169.608 269.246C165.242 267.268 160.967 265.289 156.418 263.741C153.103 262.612 147.894 260.363 147.101 256.415C146.683 254.328 148.207 252.085 148.432 250C148.695 247.548 148.488 244.85 147.741 242.497C147.082 240.424 145.991 238.505 145.131 236.515C144.13 234.195 145.026 234.233 146.973 233.969C149.302 233.653 152.021 232.342 154.21 231.488C156.733 230.503 159.233 229.128 161.543 227.714C163.633 226.436 165.451 224.787 167.114 222.997C168.806 221.176 169.902 219.018 171.538 217.152C177.575 224.577 183.314 232.116 189.73 239.22C192.758 242.574 196.051 245.347 199.782 247.896C201.34 248.962 202.886 250.178 204.583 251.019C206.706 252.073 209.079 252.727 211.261 253.688C219.627 257.374 227.611 261.404 235.416 266.16C239.192 268.461 242.361 271.099 245.685 273.985C246.72 274.883 255.197 280.12 252.318 281.767ZM154.181 220.935C152.829 221.548 151.54 222.343 150.098 222.736C150.507 220.248 152.828 216.496 155.805 216.908C156.943 217.066 157.8 217.949 157.301 219.167C156.846 220.273 155.144 220.5 154.181 220.935ZM60.0775 153.453C58.5447 154.3 57.1166 154.793 56.2179 152.976C56.8836 152.843 59.9075 152.44 60.0775 153.453ZM57.5255 148.319C56.3412 147.959 57.2884 147.582 57.6959 147.148C58.0135 146.811 59.0646 145.628 59.4325 145.432C61.0571 144.572 62.3129 147.774 63.0897 148.813C61.2506 148.65 59.316 148.862 57.5255 148.319ZM70.1895 159.406C67.9447 159.787 68.1938 156.978 68.2609 155.555C68.7345 156.133 71.9401 159.11 70.1895 159.406ZM77.6294 154.555C74.8924 155.017 73.0839 150.288 73.5746 148.22C74.0064 146.397 76.1275 145.38 77.816 145.111C79.4528 144.851 81.7314 145.206 82.2176 147.094C82.6471 148.762 79.4537 154.247 77.6294 154.555ZM142.417 225.939C140.45 226.544 138.523 226.62 136.546 227.213C134.303 227.887 132.227 227.827 129.98 228.285C129.066 228.471 126.599 229.803 125.707 229.506C124.824 229.211 123.545 226.469 123.037 225.756C127.014 224.103 130.406 221.969 133.027 218.487C135.111 215.717 137.346 211.568 136.035 207.993C134.556 203.963 129.459 203.088 126.06 204.771C124.452 205.567 122.859 206.557 121.533 207.77C120.017 209.157 119.421 210.671 118.439 212.382C117.446 214.112 116.75 213.15 115.757 211.68C114.91 210.425 115.02 209.157 113.96 207.917C113.42 207.285 112.583 206.675 112.301 205.859C112.122 205.341 112.499 204.423 112.16 204.016C111.682 203.443 111.102 204.116 110.702 203.605C110.412 203.233 110.507 202.386 110.207 201.922C109.947 201.658 109.658 201.432 109.338 201.245C108.95 201.053 108.879 200.813 109.125 200.525C108.817 199.954 109.114 199.761 108.453 199.066C107.423 197.983 106.484 196.945 105.751 195.667C105.416 195.082 105.449 194.214 105.033 193.707C104.462 193.012 103.51 193.116 103.019 192.256C102.581 191.489 102.874 190.147 102.152 189.451C101.772 189.342 101.391 189.236 101.01 189.13C100.724 188.852 100.557 188.515 100.509 188.117C100.109 187.5 100.029 186.775 99.5229 186.123C98.5546 184.877 97.252 183.725 96.3965 182.411C95.4974 181.029 95.9742 180.797 97.5363 180.302C98.945 179.856 100.231 179.442 101.537 178.682C107.574 175.168 113.298 165.849 103.715 163.002C100.159 161.946 97.2381 159.104 93.2953 160.221C91.5861 160.706 89.9646 161.736 88.6895 162.959C87.8084 163.805 86.9925 166.067 85.9107 166.5C83.9659 167.279 84.7881 165.333 84.2362 164.439C83.9726 164.012 82.9116 163.521 82.5185 163.132C82.057 162.677 81.6108 162.102 81.2906 161.539C80.696 160.494 80.3321 159.911 79.4744 159.06C79.151 158.739 77.5367 157.079 78.9927 157.296C78.403 155.499 79.2634 155.229 80.4526 153.916C81.8492 152.374 83.2912 150.232 83.2993 148.072C83.3155 143.924 78.4007 142.066 75.3143 144.528C74.6864 145.029 70.9717 149.864 71.7318 146.781C72.1416 145.117 75.9359 140.775 77.695 141.899C75.7236 139.026 71.1952 146.002 70.1382 147.429C69.2382 145.772 69.1744 144.476 67.6851 143.193C66.473 145.138 67.113 143.012 66.8458 142.58C66.2683 141.648 66.5854 142.714 66.2724 142.383C65.8824 141.97 65.2685 141.645 64.8538 141.098C64.1431 142.063 64.4269 141.025 64.2092 140.665C63.7001 139.823 63.8971 139.335 63.0245 138.602C62.3894 138.07 61.1386 137.243 60.284 137.167C59.2985 137.08 59.0255 137.458 58.0216 137.178C56.7442 136.823 55.1367 136.277 55.7551 138.414C56.204 139.966 58.0292 140.849 58.4291 142.435C58.8316 144.032 57.2529 145.641 56.4869 146.95C55.5032 148.629 54.699 148.492 52.917 148.871C51.7781 149.113 50.2583 149.63 51.2348 151.012C51.9324 151.999 53.5669 151.791 54.4876 152.376C55.7785 153.195 55.7605 155.217 57.4085 155.568C59.2234 155.955 60.2633 153.935 61.7934 153.447C62.8815 153.1 66.2521 153.138 67.1085 153.955C68.2757 155.068 67.2673 157.195 67.561 158.578C67.9977 160.629 69.3853 160.754 71.1399 160.82C73.3002 160.9 74.0594 162.975 75.2212 164.62C77.9424 168.474 80.3074 172.582 83.0947 176.384C84.3284 178.067 86.1334 179.565 87.1436 181.392C88.3913 183.649 86.6592 184.95 85.1646 186.57C83.2116 188.686 81.7534 191.094 80.0595 193.408C78.5541 195.463 76.6835 194.952 74.278 194.952C74.8142 193.846 75.4592 193.157 76.7779 193.291C75.3989 191.607 74.296 193.534 73.4014 194.6C72.1074 196.144 70.4203 196.516 68.7579 197.53C68.1696 197.889 64.9662 200.216 65.9395 201.01C66.0502 201.1 71.3527 197.612 71.9567 197.292C71.9567 198.58 71.6751 199.918 71.8555 201.199C71.9877 202.138 72.648 203.117 72.5072 204.093C72.2405 205.936 69.8589 207.388 68.8366 208.824C68.067 209.905 68.2528 210.757 67.861 211.917C67.5039 212.976 67.6914 212.655 66.8013 212.982C64.9887 213.648 61.9383 213.289 60.297 212.342C59.2783 211.755 58.497 210.826 57.6694 210.008C57.046 209.391 55.478 208.337 55.3049 207.474C55.0076 205.987 57.9586 203.225 58.5429 201.692C60.1922 197.365 57.3635 194.001 52.962 193.756C54.3185 192.709 56.0002 193.498 57.4301 193.897C54.9855 190.51 50.8107 193.297 48.7372 195.599C47.3204 192.018 46.6371 188.24 45.7718 184.504C45.1821 181.961 42.9381 177.422 43.9389 174.804C44.4229 173.538 45.7888 172.832 46.7338 171.954C47.8075 170.957 48.7268 169.765 49.5117 168.53C51.3612 165.622 52.429 161.95 49.8828 159.084C50.6564 158.957 51.4305 158.83 52.2041 158.702C50.9456 157.52 48.9603 158.096 47.3271 157.745C46.2908 157.523 43.3092 157.667 42.6174 157.081C41.7853 156.376 42.3188 153.131 42.3485 152.171C42.4168 149.927 42.6044 147.769 42.8522 145.539C43.087 143.432 43.0398 141.156 43.4752 139.085C43.8287 137.406 44.9581 136.894 46.2616 135.904C49.3768 133.537 51.9153 130.657 50.8516 126.578C51.2285 126.518 51.6054 126.459 51.9823 126.399C50.7634 125.517 49.1861 125.838 47.8304 125.372C49.0754 121.868 51.829 115.708 56.2998 115.376C56.4536 116.942 56.3484 118.805 57.4054 120.102C58.6085 121.578 60.7207 121.727 62.3507 120.946C63.8296 120.237 65.2181 118.734 65.8999 117.249C66.361 116.244 66.2778 114.544 67.0874 113.747C68.1731 112.679 75.6584 113.323 75.429 115.127C75.2941 116.187 73.2926 117.97 72.733 118.91C71.7093 120.63 70.8898 122.49 70.5138 124.466C69.943 127.466 70.2736 131.426 73.32 133.003C76.7847 134.797 81.0072 132.516 83.8485 130.545C85.4088 129.463 86.9201 128.269 88.3454 127.015C89.1046 126.348 89.8675 125.66 90.5368 124.901C91.0306 124.341 91.4255 123.437 92.0336 123.018C93.4702 122.027 94.8785 123.708 96.0943 124.558C98.0746 125.941 100.045 127.255 102.171 128.407C106.484 130.743 110.428 133.839 114.242 136.912C118.078 140.003 122.034 143.183 125.141 147.035C123.259 148.193 123.595 148.493 122.757 150.559C122.163 152.024 121.345 153.272 121.25 154.9C121.087 157.71 122.891 160.106 125.629 160.728C127.161 161.076 128.62 160.797 130.038 160.171C131.141 159.684 132.24 158.486 133.392 158.189C135.533 157.637 137.247 161.682 138.448 163.107C143.779 169.436 149.414 175.515 154.434 182.102C154.99 182.832 156.642 184.257 156.776 185.223C156.969 186.61 154.786 187.932 153.881 188.727C153.406 189.144 148.366 193.886 150.058 194.639C150.54 194.854 151.953 191.945 152.306 191.696C153.628 190.765 152.628 192.591 152.549 193.513C152.352 195.807 153.928 197.057 156.142 196.767C158.506 196.456 160.61 194.591 162.073 192.828C163.906 194.951 166.771 198.16 167.301 200.996C167.639 202.808 166.072 207.242 168.998 207.611C169.445 207.668 171.061 206.468 171.363 207.149C171.614 207.717 169.867 208.689 169.614 208.877C168.537 209.681 167.887 210.542 167.018 211.516C165.997 212.659 164.602 213.621 163.454 214.717C162.244 215.87 159.851 219.004 158.255 217.49C157.453 216.729 157.664 215.734 156.379 215.288C155.208 214.881 153.726 215.397 152.638 215.848C151.414 216.355 147.382 218.207 146.934 219.733C146.317 221.836 149.65 219.307 150.242 218.938C149.567 220.653 149.193 223.136 147.472 224.137C146.042 224.969 143.986 225.457 142.417 225.939ZM119.56 212.965C120.705 209.287 127.453 202.729 131.718 204.78C126.747 205.822 122.803 209.224 119.56 212.965ZM122.084 223.498C120.421 222.571 120.51 219.878 119.93 218.303C119.596 217.399 118.93 216.739 119.126 215.736C119.355 214.56 120.855 213.253 121.653 212.405C124.166 209.736 128.587 206.088 132.631 206.7C137.778 207.479 134.289 214.39 132.536 216.769C131.042 218.798 125.286 225.283 122.084 223.498ZM110.076 219C104.51 218.628 98.9621 218.131 93.4716 217.109C91.5249 216.746 89.894 216.8 91.0077 214.562C91.3756 213.823 93.593 209.193 94.0936 209.326C94.3905 209.405 94.3226 212.587 94.4098 212.952C94.8029 214.59 95.9067 216.116 97.7674 216.012C100.812 215.842 102.774 211.906 104.377 209.793C105.662 211.52 106.591 213.438 107.882 215.136C108.499 215.947 110.647 217.835 110.076 219ZM77.4414 197.149C76.5076 199.292 74.6293 201.33 73.3231 203.272C72.5846 201.709 72.0651 198.12 73.817 196.964C74.48 196.527 78.0319 195.794 77.4414 197.149ZM96.7473 203.531C97.0042 202.706 97.2889 201.887 97.6064 201.084C98.1511 202.798 98.4295 202.849 96.7473 203.531ZM101.512 205.286C102.188 206.431 103.314 207.558 103.137 208.996C103.003 210.086 102.018 211.202 101.315 211.962C100.151 213.218 97.5718 215.63 95.8851 213.961C94.4759 212.568 94.9667 208.736 95.622 207.168C96.558 204.928 99.9017 202.558 101.512 205.286ZM98.2064 202.939C98.5937 202.785 97.78 200.286 98.5352 200.037C99.1937 201.538 99.8144 201.945 98.2064 202.939ZM87.57 169.3C87.319 168.377 86.7437 168.416 86.9511 167.276C87.0869 166.528 87.6802 165.73 88.1304 165.138C89.0273 163.957 90.2107 162.984 91.4903 162.247C94.1917 160.692 97.9015 160.046 100.32 162.48C98.0589 162.837 91.1273 165.069 91.0832 168.162C93.5975 167.678 95.5748 165.152 98.0967 164.356C100.167 163.703 102.411 163.748 104.471 164.439C110.107 166.326 107.763 171.198 104.582 174.363C102.693 176.242 100.429 177.644 97.9532 178.612C96.8076 179.06 96.1046 179.109 94.9784 178.884C94.7674 178.842 94.5209 178.451 94.2681 178.367C93.6398 178.159 93.822 178.864 93.3043 178.547C92.8527 178.271 91.8892 176.489 91.582 175.978C91.0931 175.166 90.8651 174.376 90.2651 173.635C89.6642 172.893 89.3718 171.899 88.8159 171.228C88.5492 170.904 87.8178 170.917 87.6213 170.602C87.3267 170.129 87.7018 169.784 87.57 169.3ZM78.9135 205.633C80.1945 203.407 82.3863 201.517 84.0819 199.572C84.1863 202.77 81.8933 204.959 78.9135 205.633ZM80.6447 206.661C83.2903 205.73 84.7481 203.503 85.0179 200.802C85.3602 197.382 87.5079 195.587 88.801 192.514C89.2967 191.336 89.8747 187.461 91.7966 188.57C92.456 188.95 92.8468 190.381 93.1905 191.028C94.0217 192.592 94.9667 194.108 95.8482 195.643C96.5661 196.893 97.642 198.15 97.3253 199.656C97.0491 200.968 96.1604 202.366 95.64 203.603C94.4112 206.526 92.7969 209.218 91.448 212.076C90.9038 213.229 90.2597 215.96 88.5982 215.946C87.283 215.934 87.4301 214.497 86.5643 214.004C85.4713 213.382 84.2286 214.565 83.3308 215.056C84.3644 213.31 86.1721 212.322 88.2037 212.651C85.7709 210.228 84.1274 213.497 82.0395 214.225C80.0613 214.915 76.5517 211.661 74.8861 210.739C75.5235 209.66 76.0992 208.34 77.1949 207.631C78.2343 206.957 79.5099 207.06 80.6447 206.661ZM59.1352 228.801C59.4249 227.406 60.2435 226.581 60.7625 225.314C61.3643 226.85 59.9552 227.756 59.1352 228.801ZM101.169 237.36C101.027 242.058 100.643 246.743 100.505 251.442C100.441 253.609 100.057 255.676 99.8027 257.818C99.5873 259.629 99.697 261.408 98.5568 262.956C96.759 265.395 93.2642 266.097 90.5507 267.001C88.5582 267.664 86.5427 268.266 84.5749 269.004C82.8046 269.667 81.3774 270.672 79.6939 271.461C78.188 272.167 76.562 272.585 75.0629 273.337C73.5125 274.115 72.2868 275.062 70.6942 275.754C68.7875 276.583 67.2165 278.058 65.5208 279.228C64.028 280.259 62.4488 281.054 61.1646 282.35C59.9606 283.566 58.4363 284.099 57.0716 285.179C55.6287 286.321 54.1184 287.063 52.5243 287.958C49.2589 289.793 44.8533 292.927 40.9236 291.145C42.0476 289.709 44.3477 288.329 44.5227 286.352C44.7503 283.775 42.5077 284.723 41.2092 285.546C39.2423 286.792 38.1543 288.297 36.6569 289.958C34.9064 291.899 32.6952 290.593 30.5534 290.047C32.0179 288.728 33.4707 287.398 34.9325 286.077C36.1667 284.962 38.0548 283.757 38.8064 282.216C39.3435 281.113 39.3174 279.603 38.0211 279.031C36.571 278.391 34.9311 279.74 33.857 280.543C31.0059 282.677 29.128 285.382 27.256 288.351C26.2602 289.929 25.8014 289.808 23.9695 289.493C22.0282 289.158 20.0865 288.802 18.1291 288.567C20.7221 285.904 23.62 283.019 25.6679 279.903C26.3313 278.894 27.1967 276.233 25.1753 275.988C24.3423 275.887 22.684 277.591 22.0413 278.05C19.2333 280.057 16.5337 282.588 14.6725 285.519C14.0581 286.486 13.8651 287.562 12.6755 287.642C11.1201 287.747 8.22981 286.263 6.72934 285.804C9.59715 282.189 12.4447 278.548 15.7951 275.36C18.8734 272.431 21.9441 270.302 25.5442 268.056C29.4028 265.647 32.997 262.875 36.5395 260.029C39.9304 257.306 43.4729 254.737 46.5944 251.695C52.8293 245.621 58.3827 238.635 62.9818 231.248C64.0576 229.519 65.0705 227.745 65.9463 225.906C66.7685 224.179 67.1476 222.113 68.2577 220.542C68.6414 219.999 69.1816 219.596 69.5234 219.03C69.8459 218.496 69.7366 217.852 70.2282 217.38C71.3652 216.288 73.4356 216.946 74.4984 217.711C76.2076 218.942 77.5902 220.435 79.4685 221.465C81.3581 222.501 83.4019 223.254 85.4938 223.763C90.3834 224.952 95.2307 225.927 100.212 226.65C99.6993 228.551 100.958 228.85 101.375 230.561C101.882 232.636 101.233 235.247 101.169 237.36ZM54.0882 205.661C52.9795 204.014 51.9904 202.292 50.9006 200.634C50.2372 199.624 49.4145 198.54 49.9817 197.305C50.9371 195.223 54.3073 194.853 56.1361 195.76C60.2939 197.824 56.4316 203.723 54.0882 205.661ZM43.083 167.991C42.7002 164.772 43.9312 162.488 46.8436 160.8C48.9193 159.596 50.5907 161.241 50.3074 163.434C49.876 166.775 46.3056 170.492 43.5809 172.235C43.4028 170.822 43.2516 169.405 43.083 167.991ZM42.639 158.78C43.4981 158.098 45.7987 158.968 46.7941 159.027C45.4254 160.223 44.0563 161.419 42.6872 162.615C42.5976 161.795 41.8465 159.409 42.639 158.78ZM47.2583 127.689C54.1854 126.789 46.2112 134.223 44.2038 135.388C44.5304 133.806 45.3328 127.94 47.2583 127.689ZM65.6993 114.674C64.7692 118.484 57.5381 122.641 57.4625 116.4C57.4346 114.074 58.7408 114.263 60.6474 114.039C61.735 113.912 66.231 112.496 65.6993 114.674ZM40.7225 120.575C39.9106 122.705 39.2598 124.891 38.4641 127.024C38.1115 127.969 37.6968 128.618 37.0401 129.367C36.4905 129.992 35.8365 130.15 35.8581 131.139C36.5467 131.006 37.0856 130.596 37.6419 130.2C37.507 132.161 36.8139 134.271 36.4784 136.226C36.0763 138.57 35.7416 140.914 35.6175 143.291C35.3481 148.459 35.3458 153.609 35.4592 158.78C35.5172 161.415 35.5433 164.051 35.6854 166.683C35.7565 167.993 35.8365 169.308 35.9984 170.609C36.0641 171.134 36.4455 172.253 36.2098 172.745C35.2846 174.678 31.1862 169.369 29.4064 170.148C29.6624 168.677 29.0718 168.999 28.0854 168.276C27.6078 167.925 27.297 167.328 26.7986 167.016C26.6479 166.854 26.482 166.709 26.3011 166.582C26.0951 166.301 25.8779 166.331 25.6494 166.672C23.6443 165.473 23.1261 162.918 22.0498 161.2C21.4961 160.316 20.9613 160.178 20.8669 158.957C20.785 157.892 20.9451 156.807 20.902 155.738C20.8529 154.532 20.7823 153.203 20.4441 152.035C20.0514 150.679 19.5112 150.79 18.4592 150.067C18.7835 149.926 18.9971 149.688 19.1006 149.353C18.7646 149.413 17.7436 149.829 17.4899 149.53C16.9911 148.942 18.1682 148.864 18.4776 148.629C17.1575 148.043 17.4418 147.562 17.9181 146.488C18.053 146.184 18.1817 145.729 18.2964 145.473C18.5469 144.913 18.6908 145.268 18.7736 144.573C18.8523 143.91 18.2644 142.606 18.0913 141.899C17.8007 140.714 17.6401 139.69 17.901 138.455C18.1124 137.455 18.6809 136.55 18.7205 135.522C18.7318 135.234 18.2919 135.138 18.286 134.859C18.2775 134.452 18.6576 134.273 18.7565 133.896C19.0088 132.933 18.895 131.914 19.3268 131C19.7154 130.179 20.5003 129.117 21.0558 128.4C21.4408 127.904 22.3853 127.344 22.4888 126.689C22.5572 126.254 21.8811 126.304 21.9113 125.977C21.9522 125.534 22.3237 125.39 22.4258 125.061C22.7069 124.158 22.7776 123.29 23.504 122.597C24.4188 121.726 24.8164 122.091 24.8542 120.654C24.8726 119.952 24.3118 119.844 24.6122 119.036C24.7755 118.597 25.2572 118.338 25.5653 118.027C26.4802 117.104 27.0968 116.284 27.7481 115.144C28.3243 114.137 29.2432 113.55 29.8333 112.68C30.602 111.546 29.4528 110.984 31.0126 110.664C30.7909 109.96 30.5552 109.391 31.1385 108.795C31.5065 108.419 32.4402 108.649 32.7659 108.215C33.1392 107.715 32.5873 106.532 33.15 106.208C33.6074 105.945 34.2924 106.757 35.0112 106.355C35.559 106.049 36.3862 104.359 36.2098 103.737C37.6262 104.534 37.2731 103.985 37.9509 102.963C38.103 102.734 38.5636 102.683 38.6944 102.452C38.9562 101.99 38.8964 101.518 39.2733 101.142C39.9017 100.517 40.9294 100.677 41.6207 100.23C42.1919 99.8613 42.1618 99.4634 42.6174 99.115C43.0069 98.8175 43.6465 98.7603 44.0253 98.4519C44.7669 97.8479 44.7741 97.21 45.702 96.6897C46.8009 96.0739 47.7742 95.5499 48.7736 94.7334C49.4253 94.2013 50.0438 93.2578 50.8062 92.9067C51.8605 92.421 52.6818 92.3868 53.7131 91.694C54.4584 91.193 55.1632 90.3666 55.895 89.9443C56.4469 89.6265 56.8341 89.695 57.53 89.4978C58.7821 89.1426 59.0871 87.9628 60.1086 87.4825C60.8098 87.1526 61.8308 87.4546 62.6008 87.2813C64.9972 86.7434 67.3644 85.583 69.769 84.9402C72.7042 84.156 75.6602 83.4691 78.618 82.7759C75.8999 86.4598 72.438 89.7836 68.927 92.7095C67.7746 93.6701 61.4592 98.0486 64.8632 99.9185C66.2296 100.669 69.1982 98.2449 70.3015 97.6525C72.523 96.4592 74.8241 95.504 77.1508 94.5389C80.9132 92.9783 85.8131 90.2027 89.9943 90.426C87.449 93.5486 84.2717 96.0554 81.3608 98.8139C78.6855 101.349 74.6545 103.727 75.9161 107.876C72.1582 106.92 68.7831 105.79 64.8762 106.04C63.1261 106.152 61.3751 105.942 59.6331 106.187C57.7387 106.455 55.9548 107.089 54.1346 107.645C52.6944 108.085 51.103 108.12 49.778 108.851C49.1375 109.205 48.3459 109.71 47.7706 110.149C47.0037 110.734 46.8292 111.122 46.2269 111.893C44.0783 114.644 41.9994 117.223 40.7225 120.575ZM28.9697 172.648C28.8523 172.171 28.7457 171.737 28.6112 171.193C29.8072 171.93 29.8072 171.93 28.9697 172.648ZM19.9313 157.482C19.7838 157.686 19.1645 157.751 18.9845 157.575C18.7606 157.356 19.3493 156.504 19.4438 156.323C19.6772 156.503 20.2142 157.089 19.9313 157.482ZM17.3707 151.962C17.529 151.38 17.6878 150.799 17.8461 150.218C18.0405 150.757 18.9171 151.353 18.9364 151.866C18.9486 152.206 17.5439 152.037 17.3707 151.962ZM17.879 152.76C19.2513 153.663 19.3947 154.729 19.4357 156.288C17.7935 155.745 18.0292 154.155 17.879 152.76ZM41.7435 91.2263C41.605 91.6013 41.0171 92.7694 40.5862 91.9524C40.4486 91.6909 41.457 91.3339 41.7435 91.2263ZM41.3495 89.9529C41.6886 89.6473 42.3723 90.0276 42.756 89.7805C43.0249 89.6072 42.9359 89.4316 43.0623 89.329C43.0875 89.3083 43.4531 88.5683 43.6029 88.4004C43.8674 88.1051 44.4445 87.921 44.766 87.6545C45.6647 86.9095 46.1721 85.93 46.7374 84.9339C47.4121 83.7441 47.6271 83.6064 48.7151 83.0617C49.4654 82.6863 50.0469 82.2267 50.6573 81.5884C51.3607 80.8534 51.309 80.3271 51.8865 79.5237C52.1717 79.1271 52.5824 79.078 52.9147 78.7584C53.3132 78.3758 53.5157 77.8406 53.884 77.4544C54.0432 77.2874 54.5542 77.2878 54.6504 77.1447C54.7732 76.9637 54.869 76.2399 54.9842 76.1067C55.2041 76.4037 55.4245 76.7008 55.644 76.9979C56.5112 75.4729 57.144 74.2129 58.5941 73.1979C60.1171 72.1319 61.4318 70.5727 63.0061 69.6184C63.3596 69.4041 64.0806 69.3136 64.3509 68.9976C64.8079 68.4629 64.4121 67.9871 64.7454 67.5329C65.1236 67.0179 65.8563 67.4348 66.3371 67.2128C66.9457 66.932 67.1198 66.1114 67.9033 66.2018C65.3269 69.2497 65.3593 73.9919 65.2226 77.7987C65.1632 79.439 66.1964 80.2659 64.6711 81.4696C63.374 82.4937 61.5447 82.1898 60.011 82.8637C58.085 83.7099 56.025 84.1601 54.0599 84.8978C52.0273 85.6604 50.3928 86.9959 48.4367 87.8796C46.7118 88.6583 45.5338 89.7656 43.956 90.7271C43.3695 91.0845 42.4609 91.6035 41.7615 91.1764C41.3234 90.9085 40.7778 90.4688 41.3495 89.9529ZM70.4463 64.3972C70.5583 63.9642 72.7573 62.8262 73.2984 62.4549C74.1103 61.8967 75.3121 60.5337 76.2184 61.0752C76.5323 59.8175 77.7575 58.4181 78.8402 58.1516C80.0411 57.8554 82.1015 56.8255 83.2831 55.9265C83.6281 55.6641 83.7419 55.2801 84.148 55.0339C84.8551 54.6049 85.5568 54.839 86.2377 54.2543C86.3421 54.1651 87.2844 52.609 87.3217 52.6239C87.3698 52.7909 87.4139 52.9597 87.4521 53.1294C88.1673 52.7328 88.8042 52.4173 89.2499 51.9113C89.3511 51.7965 88.6958 51.4981 88.9027 51.2708C89.1559 50.9926 89.7213 51.3036 89.9772 51.0394C89.1811 54.9916 89.7739 60.0786 93.7833 62.0822C89.0151 62.5976 84.3581 61.1639 79.531 62.0444C77.2205 62.4661 74.8717 63.158 72.7699 64.2208C71.4822 64.8721 69.8355 67.2047 68.5537 66.0722C69.0624 65.3938 69.8382 64.9725 70.4463 64.3972ZM93.5822 53.0272C95.3652 50.8463 98.0697 49.9834 100.794 50.7644C103.983 51.679 102.638 53.9072 102.156 56.3812C101.236 55.0321 99.2423 53.6939 97.5448 53.6533C95.1385 53.5962 96.0479 55.6011 97.4931 56.3195C98.8069 56.9722 101.06 57.1541 102 58.3411C102.916 59.4961 102.565 61.3849 102.712 62.747C102.001 62.6412 101.289 62.5355 100.577 62.4297C101.175 59.2508 98.546 59.0969 96.0952 58.2006C93.6182 57.2954 91.5533 55.5093 93.5822 53.0272ZM101.569 45.1993V48.1495C100.578 47.5841 99.5859 47.0192 98.5941 46.4538C99.5859 46.0357 100.578 45.6175 101.569 45.1993ZM109.539 68.7726C112.85 69.6697 116.138 70.619 119.321 71.8569C120.476 72.3066 121.743 72.4655 122.875 72.9733C123.954 73.4562 124.116 73.4058 123.732 74.3511C122.657 76.9993 120.112 76.5419 117.881 76.1368C114.39 75.5026 110.971 74.6235 107.524 73.7961C104.154 72.9881 100.713 72.4583 97.3941 71.4455C93.9884 70.4066 90.6694 69.4226 87.1661 68.7366C86.1437 68.5362 78.0562 67.7944 78.1175 66.9491C83.2112 66.2874 88.4552 66.9392 93.5714 67.008C98.8888 67.0796 104.382 67.3744 109.539 68.7726ZM105.045 58.5288C105.108 56.708 105.134 54.8813 105.36 53.0713C106.875 54.9416 108.243 55.5016 110.153 53.7483C111.982 52.0702 112.39 51.1951 114.708 52.7729C116.719 54.1413 118.62 54.0783 120.755 52.8805C122.057 52.1499 124.149 49.1646 125.518 49.779C126.17 50.072 126.648 51.2528 127.307 51.6871C128.133 52.2314 129.404 52.609 130.367 52.8201C132.641 53.3184 133.996 51.8555 135.424 50.2908C137.494 48.0217 137.434 49.3397 139.353 50.9129C141.494 52.668 143.284 51.8105 145.223 50.3129C146.404 53.7731 146.846 57.552 147.18 61.1796C147.292 62.4045 147.713 64.1438 146.612 65.0099C145.837 65.6207 144.191 65.6446 143.257 65.9822C139.92 67.189 136.713 68.9009 133.921 71.0926C132.834 71.9465 131.886 72.9922 130.4 72.7977C128.983 72.6122 127.607 71.4266 126.468 70.6438C125.232 69.7948 123.981 68.8306 122.536 68.3575C121.69 68.0803 120.335 68.1806 119.594 67.6724C118.218 66.7276 119.838 64.2491 119.495 62.5854C119.236 61.3223 118.509 58.6886 116.769 59.4291C114.18 60.5305 115.687 64.8307 117.11 66.173C114.198 65.6558 110.973 64.9005 108.165 63.9408C105.995 63.1994 104.967 60.7498 105.045 58.5288ZM153.89 67.3974C159.868 65.7188 165.463 64.5867 171.685 64.2811C174.439 64.1456 177.105 64.2311 179.828 64.2559C181.396 64.2703 182.591 63.0059 181.338 61.5515C179.605 59.5375 174.317 60.3041 171.974 60.2136C165.694 59.971 159.936 60.6849 153.989 62.7551C154.618 61.5965 156.128 61.4461 157.164 60.847C158.434 60.1115 159.298 58.9001 159.841 57.5556C161.253 54.0589 159.832 50.7639 158.354 47.5697C161.256 48.3503 164.257 50.0594 167.174 50.4934C167.786 50.5843 168.178 50.5258 168.719 50.7486C169.051 50.885 169.156 51.3572 169.567 51.4603C169.766 51.5102 170.244 51.061 170.469 51.1245C171.357 51.3756 170.655 51.4423 171.216 51.806C171.662 52.0945 171.626 52.4659 172.444 52.3295C172.806 52.2696 173.199 51.7087 173.391 51.6934C173.634 51.6736 173.578 51.3774 173.95 51.4639C174.628 51.6214 174.568 52.4942 174.793 52.9237C175.035 53.381 174.692 53.9891 175.423 54.2394C175.97 54.4267 176.107 53.8496 176.571 53.891C176.853 53.9162 177.439 54.3227 177.688 54.5703C178.491 55.3679 179.59 56.2488 180.67 56.7678C180.564 56.6612 181.179 56.4041 181.032 56.3438C180.933 56.3038 181.578 56.4595 181.569 56.4573C182.192 56.599 182.521 57.556 182.836 57.9049C183.415 58.5445 184.315 59.2197 185.127 59.502C186.531 59.9904 186.488 59.4065 187.001 61.0748C187.999 59.5056 188.381 62.1335 189.619 62.4229C190.26 62.5728 190.185 62.2982 190.768 62.6336C191.168 62.8636 191.435 63.5681 191.736 63.9079C191.865 63.4177 191.995 62.9271 192.124 62.4373C193.015 64.1262 194.939 66.8046 197.05 66.3202C197.05 66.7812 196.86 67.3321 197.216 67.7255C197.466 68.0006 197.869 67.6882 198.064 67.848C198.234 67.9875 198.641 68.543 198.772 68.6344C199.029 68.8144 199.495 68.9459 199.718 69.1255C199.915 69.2835 200.012 70.0384 200.23 70.3111C200.64 70.8238 201.348 70.9256 201.683 71.5405C201.76 70.9341 201.836 70.3273 201.912 69.721C202.577 70.2346 202.634 70.6334 202.797 71.3847C203.03 72.4547 202.721 72.204 203.459 72.6555C204.184 73.0997 204.563 73.0498 205.228 73.8204C205.879 74.5757 205.885 75.0412 206.826 74.2543C207.001 74.8364 207.057 75.5895 207.524 76.0355C207.876 76.3727 209.337 76.3871 209.476 77.1834C206.733 74.8683 208.538 78.3844 209.478 77.1892C209.676 78.4685 210.612 78.8818 211.681 79.7928C212.679 80.6418 212.842 80.5801 213.182 82.0066C213.175 81.9751 213.683 82.2907 213.72 82.3537C212.749 82.4923 214.255 83.578 214.51 83.7766C214.695 83.9215 214.937 83.5753 215.246 83.8099C215.599 84.0781 215.886 84.6881 216.174 85.0559C216.952 86.0529 217.529 86.9095 218.348 87.7202C219.232 88.5953 219.662 89.7013 220.512 90.724C221.453 91.8597 221.963 93.1655 222.751 94.3985C223.499 95.5711 224.494 96.5123 225.361 97.5859C226.743 99.2946 227.213 103.058 229.79 103.157C229.639 103.313 229.849 104.479 229.874 104.694C229.996 105.754 229.915 106.773 230.541 107.732C230.685 106.638 231.257 107.059 231.755 107.634C232.582 108.591 231.856 108.35 231.899 109.319C231.952 110.494 232.086 109.585 232.533 110.611C232.884 111.415 233.076 111.936 233.264 112.828C231.808 112.943 231.142 111.754 230.604 110.601C230.379 110.119 230.301 109.327 229.903 108.95C229.479 108.549 228.897 108.517 228.462 108.07C227.626 107.21 227.264 105.87 226.279 105.033C225.166 104.088 224.92 103.641 224 102.511C222.983 101.261 221.578 100.383 220.51 99.174C219.441 97.9626 219.528 98.6239 218.185 98.1855C216.757 97.7187 214.448 93.2285 212.649 94.958C212.72 93.8268 211.025 92.7627 210.169 92.3526C209.799 92.1757 209.368 92.3359 208.997 92.0703C208.596 91.7823 208.567 91.2268 208.161 90.8811C208.162 90.8815 207.54 91.0319 207.414 90.9684C207.158 90.8383 207.156 90.3783 206.929 90.227C206.302 89.808 205.555 89.3686 204.889 89.0117C203.272 88.1442 201.842 87.0761 200.282 86.0317C198.945 85.1369 197.327 83.5209 195.781 83.0491C194.431 82.6373 193.583 82.847 192.478 82.0219C191.875 81.5727 192.053 81.4219 191.085 81.1424C190.164 80.8763 189.647 81.0132 189.159 80.0364C188.305 78.3272 188.844 74.9912 188.679 73.0745C188.503 71.0404 188.295 68.9558 187.765 66.9779C187.137 64.6403 186.309 63.4182 183.801 63.9687C178.833 65.0607 173.925 66.0996 168.934 67.0584C158.989 68.9688 149.215 72.0865 139.488 74.8544C138.748 75.0655 134.614 76.0117 135.459 73.8744C135.848 72.8886 138.464 72.5213 139.339 72.2116C144.147 70.5101 148.976 68.7766 153.89 67.3974ZM152.219 63.0473C151.493 63.3241 150.767 63.6009 150.04 63.8782V61.8585C150.767 62.2546 151.493 62.6507 152.219 63.0473ZM149.2 52.3677C149.832 52.8836 151.115 51.6421 151.651 51.3905C152.568 50.9611 153.735 50.5924 154.759 50.6806C156.648 50.844 158.029 52.7036 157.683 54.5887C157.098 57.7784 152.553 59.2868 150.047 60.5337C149.967 59.4034 149.601 58.0444 150.394 57.0667C151.082 56.2178 152.416 56.2794 153.051 55.3765C154.65 53.1069 150.319 52.9012 149.351 54.7058C148.969 53.5525 148.587 52.3993 148.205 51.246C149.127 51.0934 148.722 51.977 149.2 52.3677ZM153.67 46.1243C152.769 46.7073 151.867 47.2902 150.965 47.8731C150.518 45.8552 152.042 45.5896 153.67 46.1243ZM235.834 116.36C234.653 116.924 234.358 115.578 233.509 115.52C234.512 114.903 234.512 114.903 235.834 116.36ZM240.637 145.747C240.784 147.681 240.669 149.638 240.926 151.565C241.122 153.03 241.716 154.394 241.78 155.876C241.918 159.123 240.822 162.429 238.608 164.809C236.514 167.06 233.517 168.997 230.691 169.944C229.417 170.37 228.087 171.314 226.85 171.664C225.481 172.05 224.181 171.209 223.052 172.718C222.299 166.246 222.849 159.483 222.79 152.97C222.73 146.443 222.801 139.914 221.696 133.457C220.713 127.706 218.775 121.238 215.201 116.534C213.75 114.624 211.963 113.059 210.078 111.594C209.101 110.834 208.122 110.022 207.033 109.422C205.357 108.498 203.929 108.626 202.107 108.363C199.497 107.986 197.072 107.668 194.453 108.402C192.016 109.086 189.331 109.866 187.147 111.054C184.972 112.238 182.446 112.726 180.188 113.787C178.652 114.508 175.461 116.919 173.757 116.485C172.107 116.064 169.666 113.265 168.612 112.011C167.266 110.408 166.152 108.55 164.958 106.825C164.539 106.22 163.684 105.284 163.575 104.507C163.386 103.157 163.926 103.598 165.215 103.749C168.53 104.138 171.648 104.753 174.825 105.796C176.406 106.315 179.497 108.416 181.078 107.157C183.492 105.236 179.824 101.933 178.48 100.823C176.191 98.9327 173.53 97.5287 171.09 95.8488C168.498 94.0636 165.07 92.1631 163.402 89.4141C168.273 90.8523 173.14 92.4993 177.87 94.3534C180.033 95.2015 182.172 96.0977 184.204 97.2258C185.346 97.8591 187.652 99.5723 189.027 98.7517C192.015 96.9678 185.152 91.7872 184.162 90.7285C182.623 89.0832 181.115 87.4537 179.424 85.9611C178.283 84.9541 176.491 84.2461 175.96 82.7606C177.854 83.4462 179.385 84.7889 181.158 85.7013C182.087 86.1794 182.934 86.4544 183.959 86.6007C185.052 86.7574 185.183 86.9316 186.044 87.366C186.715 87.7049 187.404 88.1578 188.157 88.3882C188.693 88.5525 189.63 88.5809 190.1 88.8852C190.339 89.2273 190.587 89.5635 190.843 89.8939C191.129 89.9781 191.41 90.0749 191.688 90.1852C192.104 90.5561 192.35 91.0674 192.755 91.4501C195.692 94.2274 199.621 96.2152 202.913 98.542C206.029 100.743 209.335 102.735 212.326 105.137C215.77 107.902 219.343 110.874 222.272 114.19C223.927 116.064 225.287 118.188 226.678 120.26C227.684 121.761 229.148 123.005 230.018 124.552C231.915 127.925 233.49 131.571 235.532 134.89C237.613 138.271 240.324 141.631 240.637 145.747ZM212.649 165.317C213.216 162.976 216.417 160.243 218.462 159.211C217.431 161.762 214.685 163.501 212.649 165.317ZM217.927 173.483C216.182 177.103 208.51 177.517 209.551 172.16C210.061 169.535 212.226 167.924 214.084 166.207C214.943 165.413 217.046 162.574 218.376 163.031C218.314 165.072 218.194 167.123 218.198 169.165C218.201 170.528 218.544 172.202 217.927 173.483ZM215.709 131.759C216.417 133.349 217.122 134.673 215.809 136.096C215.217 136.738 213.285 138.142 212.412 137.83C209.608 136.83 214.954 132.475 215.709 131.759ZM198.748 117.613C199.423 117.577 200.079 117.677 200.746 117.636C201.411 117.595 201.481 117.477 202.098 117.561C202.163 117.655 202.227 117.75 202.293 117.844C202.377 118.479 202.71 118.547 203.292 118.051C204.101 118.231 204.627 118.352 205.401 118.789C203.313 120.294 200.771 122.045 198.211 122.551C194.165 123.349 195.282 117.804 198.748 117.613ZM136.716 151.474C136.296 152.318 135.089 150.209 134.791 149.816C135.348 149.814 137.14 150.622 136.716 151.474ZM169.228 129.255C172.372 127.421 176.106 125.81 179.482 124.444C180.076 127.305 177.18 130.998 175.397 132.955C173.955 134.538 172.216 136.18 170.261 137.091C168.147 138.076 165.836 137.643 165.939 134.879C165.976 133.869 166.206 132.244 166.617 131.321C167.148 130.131 168.15 129.884 169.228 129.255ZM126.731 77.2212C127.199 77.1937 132.282 76.5365 132.255 77.169C132.175 79.0699 127.241 77.5773 126.731 77.2212ZM90.7873 113.925C93.472 110.613 97.8061 107.037 97.8695 102.408C97.9631 95.5954 90.4027 98.9944 86.6016 99.2775C88.6117 97.3027 98.7115 89.018 92.7375 86.0754C91.0203 85.2296 88.5798 86.0561 86.8566 86.499C83.7995 87.2854 80.9568 88.647 77.9537 89.5946C80.0996 87.3101 83.8076 84.7137 83.6861 81.254C83.5377 77.0425 80.0807 78.0607 77.0914 78.6787C75.9427 78.9164 70.8111 80.9578 69.8472 79.5718C69.4942 79.0641 70.0654 78.419 70.1864 77.9671C70.4 77.1672 70.3339 76.8881 70.3411 76.0711C70.3559 74.4227 71.4512 72.3061 70.5579 70.773C70.3537 71.1214 70.1787 71.4837 70.0334 71.8605C69.7388 70.9683 69.9367 70.0221 69.6421 69.13C77.1049 71.0386 84.6968 72.0833 92.2063 73.7124C96.0079 74.537 99.5859 75.9572 103.44 76.5964C107.326 77.2406 111.145 78.2268 115.039 78.8413C118.592 79.4017 121.995 80.3348 125.514 81.0505C128.943 81.7482 132.46 80.2191 135.808 79.4449C143.305 77.711 150.8 75.9347 158.307 74.2521C166.97 72.3097 175.982 70.6492 184.274 67.41C184.435 71.7273 184.78 76.0364 185.308 80.324C181.646 78.5928 176.211 76.3353 172.509 79.4332C171.027 80.6724 170.571 82.8124 171.157 84.6323C171.794 86.6133 173.746 87.5334 175.035 89.0247C171.114 88.0196 161 80.933 159.199 88.0961C157.928 93.1552 164.13 96.4232 167.163 99.2707C164.151 98.6811 160.118 96.2733 158.349 100.143C156.821 103.489 158.662 107.129 160.548 109.888C161.569 111.383 162.719 112.79 163.805 114.239C164.379 115.005 164.94 115.782 165.544 116.525C166.149 117.271 167.291 118.052 167.715 118.855C168.569 120.474 166.846 120.573 165.506 121.157C163.832 121.887 162.395 123.114 160.864 124.091C157.36 126.329 154.296 128.407 150.155 129.122C145.891 129.858 141.785 130.627 137.578 131.654C133.383 132.677 129.959 133.661 125.671 132.338C123.716 131.735 122.124 131.199 120.051 131.312C117.873 131.431 116.599 131.318 114.809 129.969C107.104 124.166 98.7399 119.404 90.7873 113.925ZM76.8962 108.099C79.8742 106.605 82.872 105.104 85.9481 103.82C88.4943 102.757 92.3606 101.518 95.1479 101.984C94.3621 104.003 92.9282 105.659 91.3904 107.145C90.0303 108.459 88.331 110.443 86.6853 111.361C85.1906 112.193 83.4518 110.874 81.9779 110.322C80.3582 109.715 78.1295 109.432 76.8962 108.099ZM77.6447 115.637C79.1285 115.021 82.3179 117.09 83.6677 117.628C86.32 118.686 88.9873 119.79 91.3248 121.459C88.4705 124.758 85.2379 127.773 81.3967 129.892C78.8694 131.286 74.61 132.885 72.2261 130.354C69.231 127.173 72.8315 120.692 74.9518 117.967C75.022 118.433 75.0926 118.899 75.1632 119.365C75.8397 118.282 76.356 116.173 77.6447 115.637ZM132.124 143.87C130.273 144.26 129.644 143.908 128.422 142.488C127.596 141.528 126.784 140.532 125.852 139.669C124.901 138.788 122.554 136.665 125.545 137.888C128.272 139.002 130.607 139.559 133.607 139.122C137.037 138.624 140.235 137.173 143.617 136.439C141.763 138.061 139.923 139.7 138.065 141.318C136.103 143.027 134.618 143.345 132.124 143.87ZM132.548 156.918C128.491 159.971 120.323 159.641 123.072 152.923C123.49 151.902 124.074 150.942 124.75 150.073C124.975 149.783 125.376 149.181 125.698 148.986C126.595 148.442 126.346 148.376 127.209 149.284C127.953 150.067 133.77 156.463 132.548 156.918ZM131.345 145.245C131.717 145.124 133.283 144.216 133.639 144.718C134.001 145.227 130.93 146.987 131.345 145.245ZM160.881 191.81C159.969 193.993 152.668 197.153 154.028 192.753C154.631 190.804 155.199 189.328 157.472 189.18C158.783 189.095 161.685 189.888 160.881 191.81ZM173.978 162.23C175.179 160.48 179.148 158.114 180.843 160.724C181.659 161.981 179.678 162.625 178.48 162.302C177.837 162.128 177.31 161.743 176.611 161.714C175.712 161.677 174.833 162.383 173.978 162.23ZM177.164 163.967C176.347 164.795 171.417 168.942 170.619 168.303C172.229 166.001 174.077 163.432 177.164 163.967ZM169.114 205.939C167.402 206.035 168.257 203.456 168.422 202.425C168.837 203.143 171.015 205.831 169.114 205.939ZM173.463 201.316C172.909 200.33 171.417 198.864 171.754 197.596C172.013 196.627 174.341 195.324 175.316 195.88C176.611 196.619 174.734 201.479 173.463 201.316ZM214.076 190.984C213.343 193.507 212.585 192.856 210.289 193.345C207.986 193.835 206.393 195.791 204.366 196.839C205.07 195.35 205.507 193.536 206.686 192.328C206.959 192.049 208.63 191.498 207.678 190.851C206.845 190.286 205.649 192.12 205.291 192.619C203.535 195.079 202.307 198.081 201.292 200.911C200.794 202.301 200.394 203.716 200.158 205.176C199.948 206.476 200.175 207.837 199.96 209.103C199.615 211.143 196.844 211.154 195.178 211.68C193.669 212.156 192.167 212.672 190.602 212.929C189.244 213.151 187.835 212.746 186.52 213.013C185.095 213.303 184.455 214.148 182.836 213.957C181.516 213.802 180.281 213.194 178.943 213.134C177.691 213.077 176.442 213.51 175.197 213.158C173.941 212.802 174.001 212.664 174.287 211.43C174.466 211.763 174.645 212.096 174.824 212.429C175.324 212.036 175.671 210.839 175.977 210.277C176.453 209.406 176.841 209.105 176.665 208.021C176.405 206.419 174.961 205.28 174.633 203.757C174.292 202.167 175.467 200.868 176.161 199.541C177.111 197.724 177.098 196.378 176.303 194.499C176.903 194.658 177.503 194.816 178.103 194.975C177.28 193.189 174.491 193.913 173.092 194.442C172.389 194.708 171.275 195.752 170.518 195.726C169.479 195.689 168.937 194.323 168.49 193.57C167.198 191.393 165.722 189.242 164.193 187.221C163.772 186.665 163.221 186.308 163.366 185.674C163.49 185.136 164.695 184.374 165.087 184.042C166.553 182.802 168.42 182.115 169.798 180.81C171.88 178.837 174.281 177.424 176.409 175.49C178.627 173.476 180.912 171.625 183.223 169.722C185.564 167.794 187.591 165.522 189.915 163.574C190.517 164.665 191.683 168.572 193.017 168.875C194.573 169.227 194.526 167.386 194.449 166.279C194.339 164.701 193.463 163.168 193.365 161.662C193.26 160.051 194.81 159.33 195.98 158.399C197.787 156.959 201.786 153.68 199.636 150.982C197.785 148.657 191.763 153.114 190.103 154.454C188.693 155.593 187.603 156.623 186.015 157.521C184.898 158.152 183.025 160.58 181.701 160.356C180.126 160.09 179.511 158.37 177.585 158.427C175.703 158.482 174.104 159.838 172.936 161.199C170.297 164.276 169.391 168.393 166.986 171.6C165.801 173.181 164.263 174.487 162.977 175.983C161.565 177.625 161.265 179.517 159.872 181.124C155.887 175.815 151.545 170.788 147.343 165.653C145.244 163.089 143.189 160.495 141.135 157.895C140.366 156.92 139.498 156.006 138.793 154.982C137.828 153.581 138.001 152.455 137.622 150.892C137.454 150.199 136.668 149.369 136.878 148.707C137.162 147.817 139.151 147.118 139.868 146.754C142.798 145.267 145.455 143.409 148.187 141.592C153.245 138.228 158.363 135.073 163.742 132.2C163.65 133.438 162.844 134.721 163.385 135.963C163.637 135.248 164.036 132.066 164.99 131.929C164.807 131.955 164.958 136.011 165.105 136.589C165.546 138.317 166.823 139.499 168.651 139.487C172.132 139.465 175.252 135.678 177.184 133.17C178.492 131.471 179.749 129.496 180.209 127.371C180.624 125.462 180.168 124.135 182.152 123.165C186.223 121.177 190.326 119.557 194.68 118.503C194.485 120.379 193.941 122.689 195.646 124.038C197.529 125.528 199.992 124.2 201.764 123.215C203.519 122.239 206.226 119.558 208.288 120.337C210.316 121.103 211.727 123.646 212.863 125.335C213.863 126.824 214.952 127.897 213.793 129.556C212.495 131.416 211.65 133.231 210.609 135.251C210.209 136.027 209.828 136.534 210.11 137.329C210.202 137.587 211.245 139.125 211.528 139.345C213.334 140.75 215.773 138.077 217.063 137.062C217.517 141.432 217.619 145.784 217.803 150.168C217.937 153.38 219.18 156.541 216.545 158.888C213.911 161.235 211.712 163.644 210.106 166.822C209.248 168.519 208.479 170.261 207.551 171.923C206.931 173.034 205.624 174.663 206.424 175.97C207.268 175.168 207.52 173.95 208.223 173.047C208.645 174.922 209.069 177.002 211.052 177.796C213.334 178.711 215.601 177.129 217.622 176.248C216.898 181.261 215.484 186.131 214.076 190.984ZM211.743 196.745C210.177 200.092 208.763 204.128 205.871 206.592C205.236 207.133 202.538 209.246 201.511 208.892C200.64 208.591 201.12 206.83 201.272 206.076C202.042 202.246 203.375 199.836 206.481 197.392C207.766 196.381 209.416 195.088 211.074 194.839C212.858 194.57 212.344 195.459 211.743 196.745ZM255.913 276.188C251.853 270.667 246.115 266.376 240.692 262.229C238.236 260.35 235.529 258.941 233.047 257.062C230.241 254.937 227.391 252.887 224.249 251.286C218.29 248.25 211.79 246.134 206.167 242.543C203.424 240.792 200.424 239.1 197.846 237.134C196.714 236.271 195.713 235.166 194.69 234.177C193.739 233.258 191.698 231.924 191.319 230.579C192.902 230.32 193.802 228.785 195.214 228.628C195.679 228.576 198.594 229.348 198.196 227.934C199.253 227.907 199.376 227.891 200.262 227.66C200.629 227.564 201.064 227.714 201.435 227.583C202.003 227.382 202.389 226.803 202.963 226.581C203.37 226.424 204.884 226.6 205.113 226.404C205.74 225.868 205.074 225.916 204.7 225.247C205.918 225.216 206.754 225.831 207.975 225.177C208.346 224.978 208.661 224.519 209.021 224.281C209.66 223.859 209.89 224.513 210.328 223.637C210.737 224.846 210.726 224.512 211.713 224.156C212.696 223.802 213.405 223.546 214.525 223.457C217.199 223.246 219.883 223.57 222.545 223.38C223.518 223.311 224.35 223.09 225.318 223.217C226.17 223.329 225.913 223.922 226.621 223.123C226.786 222.938 226.254 222.43 226.509 222.164C226.621 222.046 226.988 222.129 227.127 222.068C228.372 221.525 228.377 222.284 228.598 223.273C229.328 223.102 230.072 222.947 230.706 222.519C230.386 222.233 229.85 221.918 230.159 221.395C231.212 221.794 231.9 221.61 231.374 222.766C232.433 223.115 232.631 222.659 233.582 222.559C234.145 222.5 234.93 222.85 235.399 222.401C235.911 221.91 235.103 221.377 236.043 220.955C236.236 221.053 236.379 221.201 236.473 221.399C236.98 221.552 236.889 221.752 236.199 221.999C238.048 222.957 237.613 221.886 238.39 220.752C238.569 220.491 239.372 219.679 239.738 220.072C240.293 220.666 239.16 220.855 239.403 221.446C239.824 222.47 241.293 221.157 241.744 220.638C242.085 220.246 242.224 219.494 242.592 219.201C243.102 218.794 243.837 219.423 244.477 219.311C247.398 218.799 250.157 214.871 247.956 212.241C247.365 211.535 246.864 211.675 246.16 211.229C245.463 210.788 245.072 210.026 244.513 209.396C243.236 207.959 241.673 206.882 239.889 206.194C235.749 204.597 231.288 203.432 226.941 202.575C224.928 202.178 222.785 201.57 220.723 201.575C219.509 201.577 217.68 202.522 216.545 202.069C214.338 201.19 217.578 196.687 218.113 195.233C219.684 190.961 220.869 186.405 221.646 181.92C221.798 181.042 221.739 179.905 222.056 179.069C222.419 178.107 222.496 178.243 223.273 178.165C224.677 178.023 226.211 178.759 227.673 178.505C229.292 178.223 231.043 178.354 232.678 177.853C233.429 177.623 234.126 177.373 234.621 176.739C234.777 176.54 234.603 176.366 234.702 176.227C234.732 176.183 235.291 175.58 235.309 175.546C235.304 175.234 235.331 174.924 235.391 174.618C235.958 175.088 235.678 176.075 236.633 176.098C236.804 175.046 236.805 174.834 237.496 174.242C237.443 174.287 238.016 173.801 237.942 173.852C237.977 173.665 238.046 173.49 238.148 173.328C238.471 173.172 238.812 173.089 239.171 173.08C239.917 172.312 239.608 171.903 239.608 170.87C240.21 171.183 240.812 171.496 241.414 171.809C241.56 168.748 243.423 167.072 244.662 164.592C245.189 163.535 245.727 162.709 245.853 161.434C245.926 160.699 245.736 160.05 246.04 159.357C246.316 158.728 246.934 158.389 247.193 157.704C247.701 156.356 247.322 154.635 247.35 153.235C247.388 151.294 247.582 149.358 247.646 147.418C247.77 143.608 247.387 139.694 246.817 135.928C246.545 134.127 246.088 132.38 245.73 130.598C245.436 129.133 244.731 127.759 244.479 126.396C244.374 125.83 244.536 125.322 244.365 124.696C244.14 123.873 243.764 123.063 243.485 122.255C242.832 120.366 242.186 118.481 241.451 116.622C240.028 113.019 238.361 109.524 236.778 105.99C235.255 102.592 233.994 99.0889 232.021 95.9159C230.078 92.7906 227.986 89.7179 225.845 86.7263C223.614 83.6109 220.794 80.9339 218.631 77.7897C214.57 71.8862 208.905 67.0215 202.978 63.0045C190.748 54.7148 177.531 46.4381 162.866 43.5959C160.656 43.1678 158.417 42.8707 156.165 42.8154C154.767 42.7807 152.451 43.4564 151.128 42.9833C149.646 42.4535 149.782 40.7889 149.411 39.483C148.934 37.8044 147.857 36.7048 146.635 35.5182C145.349 34.2691 144.181 32.8102 142.577 31.9608C140.951 31.1005 139.033 30.7787 137.232 30.5185C135.623 30.2858 133.22 30.5032 131.751 29.8023C130.413 29.1636 131.073 28.4987 132.326 29.0457C132.418 28.4929 132.492 28.1359 132.847 27.7088C133.024 27.494 133.865 27.1929 133.885 26.9926C133.909 26.7581 133.204 26.0901 133.103 25.7876C132.886 25.1362 133.01 24.2341 133.267 23.6229C134.53 24.7459 134.896 25.2433 136.307 24.1698C136.903 23.7165 137.086 23.5166 137.776 23.2879C137.963 23.2258 138.382 23.4176 138.546 23.31C139.169 22.8995 138.595 22.9963 138.892 22.511C138.817 22.6334 139.341 21.3438 139.316 21.6134C139.379 20.9265 139.583 21.1376 139.168 20.2936C138.356 18.6425 136.287 18.575 137.342 16.6907C137.756 15.9494 138.121 16.0232 138.238 14.9482C138.301 14.3703 138.223 13.7077 138.22 13.1198C138.215 11.9175 138.442 11.0757 137.315 10.4635C136.232 9.87475 135.233 10.5207 134.794 9.06045C134.333 7.52818 134.797 5.56378 133.137 4.51451C131.924 3.74792 130.173 4.40332 128.833 4.02836C127.489 3.65294 126.254 2.27867 124.891 3.3338C123.923 4.08372 123.409 5.92749 121.584 4.93043C120.76 4.48075 120.307 2.97098 119.787 2.12428C118.96 0.774762 118.296 0.287263 117.023 1.60167C116.238 2.41236 114.583 4.38577 114.482 5.50796C114.371 6.74674 115.452 7.2644 114.095 7.99722C112.745 8.72644 111.987 8.19168 110.892 9.67173C109.805 11.1401 110.646 11.9512 109.387 13.3561C107.813 15.1121 106.976 15.8701 106.998 18.2361C107.013 19.8588 105.579 21.2605 106.416 22.8C107.353 24.5254 110.089 25.2429 111.748 25.9451C111.194 26.9683 110.434 27.6241 111.081 28.6774C111.666 29.6313 113.321 29.8294 114.347 29.656C115.037 29.5399 115.062 29.6443 115.605 29.1591C115.961 28.8413 115.473 28.4447 116.206 28.2687C116.986 28.0806 118.231 29.6092 118.738 29.9914C117.606 31.4602 114.498 31.7348 112.853 32.4793C111.851 32.9335 110.93 33.6051 109.909 34.0111C108.984 34.3793 107.857 34.2938 107.018 34.8637C105.568 35.8477 104.965 38.2856 104.077 39.7189C103.071 41.3412 102.096 42.0947 100.166 42.4314C97.7589 42.8514 95.8203 43.0202 93.5755 44.0686C90.8341 45.3487 88.1318 46.7005 85.4394 48.0806C81.0963 50.3066 77.0622 52.5915 73.0294 55.2837C68.8105 58.1007 64.7067 61.041 60.6362 63.9845C56.6097 66.8955 53.2291 70.4768 49.7316 73.9973C46.9043 76.8431 44.4233 79.9148 41.6068 82.7597C38.282 86.1191 35.8365 90.3589 32.7537 93.9227C31.067 95.8722 29.4532 97.7893 28.3949 100.086C27.5371 101.948 26.0457 103.774 25.0499 105.728C23.7774 108.225 22.5734 110.682 21.1448 113.097C20.5588 114.087 19.8621 114.938 19.2436 115.884C18.4511 117.095 18.4979 118.265 18.2847 119.661C18.062 119.32 17.8398 118.98 17.6172 118.639C17.2138 119.521 16.7257 120.388 16.3763 121.29C16.1532 121.866 16.1882 122.683 15.9643 123.187C15.6831 123.819 15.3409 123.735 14.9905 124.262C14.6158 124.825 14.4953 125.582 14.1004 126.186C12.3934 128.797 11.7368 132.11 10.8597 135.089C9.68305 139.085 9.86881 143.679 9.93268 147.8C10.0006 152.153 10.2385 156.506 10.893 160.813C11.4858 164.713 12.7533 168.454 14.7377 171.874C16.4667 174.854 18.851 176.591 21.905 178.117C23.3074 178.818 24.6091 178.602 26.0812 178.714C27.6937 178.836 28.7934 179.274 30.4994 178.889C31.318 178.704 31.7053 178.108 32.3557 177.909C32.7582 177.786 32.975 177.987 33.3614 177.94C33.9142 177.873 35.0638 177.602 35.6634 177.668C37.5286 177.871 37.2156 180.691 37.3991 182.131C37.6815 184.349 37.8884 186.591 38.2694 188.795C39.0705 193.43 40.7999 197.76 41.8218 202.316C37.0847 202.894 33.0213 203.778 28.5815 205.571C24.1274 207.369 19.6241 207.979 14.9365 208.873C10.5511 209.71 6.33308 211.273 2.82298 214.104C1.17768 215.431 -0.531494 216.983 0.67662 219.168C1.44935 220.565 2.84187 220.92 4.04414 221.732C4.28702 221.425 3.58446 220.773 3.45582 220.593C4.46648 220.8 4.43545 221.272 5.17354 221.683C5.81853 222.041 6.34657 222.029 7.05273 222.282C8.77674 222.902 9.62368 224.447 11.3279 224.881C11.864 225.017 12.5653 225.344 13.1135 225.436C13.772 225.547 14.265 225.259 14.9325 225.381C15.2927 225.619 15.6822 225.788 16.101 225.89C16.3754 225.763 16.6466 225.628 16.9137 225.486C17.8727 225.586 18.465 226.189 19.2441 226.684C19.2962 226.06 19.2211 225.411 19.8121 225.004C20.0429 225.611 19.67 225.996 20.2997 226.413C21.0976 226.943 22.1456 226.282 22.8599 225.947C23.0618 227.965 27.7342 227.846 29.2153 227.817C31.2663 227.778 33.315 226.964 35.384 227.418C36.4397 227.65 37.5664 227.891 38.6171 228.192C39.8823 228.553 41.412 228.877 42.6575 229.333C43.1527 229.514 43.7594 230.095 44.2866 230.056C44.7062 230.025 44.8187 229.406 45.3071 229.423C45.8599 229.443 46.0457 230.059 46.5242 230.245C47.2403 230.521 47.8988 229.995 48.5793 230.261C48.824 230.356 49.1555 230.766 49.4685 230.9C49.9439 231.103 50.8844 231.105 51.4134 231.203C52.1632 231.342 52.8347 231.248 53.477 231.294C53.9951 231.332 53.9839 231.68 54.2317 231.703C54.516 231.728 55.0112 230.751 55.393 230.607C55.9494 230.399 56.9592 230.896 57.5264 230.983C53.4163 236.555 48.4606 241.479 43.0888 245.79C37.2943 250.441 31.3607 255.086 25.147 259.166C19.5054 262.87 14.0441 266.074 9.67001 271.303C5.9818 275.712 0.110795 280.429 1.01576 286.82C1.92027 293.205 8.85366 295.804 14.4094 297.023C21.3967 298.556 28.5896 297.939 35.5959 298.801C38.5838 299.168 41.9036 298.972 44.9113 298.659C48.4637 298.289 51.5083 295.971 54.5623 294.294C60.0555 291.279 64.7521 287.244 70.163 284.135C76.9376 280.241 83.6411 276.115 91.0684 273.508C94.5236 272.295 98.0809 270.91 100.868 268.415C101.283 268.044 101.592 267.483 102.061 267.177C102.857 266.657 103.071 267.184 103.533 267.027C103.889 266.906 104.234 266.521 104.541 266.406C105.321 266.114 105.668 266.234 106.541 266.234C105.792 265.803 105.107 264.69 105.884 263.783C107.215 262.229 107.444 264.712 107.944 265.287C108.368 264.742 108.206 264.257 108.097 263.639C108.455 263.875 108.814 264.111 109.172 264.348C108.925 263.15 109.16 262.047 109.795 261.003C110.38 260.041 110.524 260.177 110.686 258.843C112.503 260.502 112.859 256.475 113.022 255.007C113.181 253.583 113.024 252.561 113.96 251.316C114.966 249.979 116.495 249.134 117.771 248.095C119.787 246.454 122.004 244.382 124.792 245.955C126.993 247.198 128.19 250.244 130.255 251.809C131.507 252.759 132.829 252.855 133.628 254.327C134.273 255.518 134.483 256.942 135.092 258.164C136.568 261.127 138.694 264.517 141.118 266.789C143.374 268.904 146.271 268.893 148.912 270.205C151.526 271.504 154.243 272.911 157.01 273.853C160.032 274.881 163.291 275.318 166.234 276.563C167.747 277.204 169.101 278.169 170.628 278.783C172.274 279.444 174.009 279.91 175.678 280.516C182.289 282.917 188.759 285.862 195.705 287.193C198.785 287.783 201.637 289.387 204.74 289.725C206.071 289.87 207.157 290.053 208.46 290.386C210.503 290.908 210.07 291.186 210.823 292.89C212.062 295.695 215.086 294.034 217.417 294.104C221.148 294.216 224.823 293.613 228.549 293.584C235.064 293.534 241.338 292.8 247.641 290.661C253.968 288.514 261.172 283.338 255.913 276.188Z" fill="#3F3F3F"/>
<path fill-rule="evenodd" clip-rule="evenodd" d="M180.602 57.041C180.692 57.1311 180.903 57.1858 180.602 57.041Z" fill="#3F3F3F"/>
<path fill-rule="evenodd" clip-rule="evenodd" d="M65.833 176.503C67.2483 175.069 73.2691 175.359 73.7242 177.924C74.2316 180.788 68.8516 185.113 66.8828 186.325C64.349 187.885 61.2563 188.178 61.7056 184.26C62.0453 181.301 63.8181 178.545 65.833 176.503ZM70.8054 173.551C70.989 174.344 69.6358 174.075 69.2632 173.886C69.0876 173.526 70.6217 172.755 70.8054 173.551ZM60.4225 178.802C61.6235 178.91 62.9993 176.983 63.9055 176.327C64.306 176.946 61.6652 180.348 61.3747 181.125C60.6491 183.064 60.2455 185.515 61.2346 187.45C64.1255 193.104 71.5239 185.03 73.3742 182.21C74.6689 180.237 75.5652 177.792 73.7366 175.859C73.0855 175.17 72.01 174.979 71.405 174.325C70.6089 173.464 71.2356 172.353 69.6349 172.541C68.5305 172.671 67.2044 173.667 66.1306 174.028C64.8364 174.462 63.6731 174.912 62.5434 175.717C62.2888 175.899 58.9389 178.669 60.4225 178.802Z" fill="#3F3F3F"/>
<path fill-rule="evenodd" clip-rule="evenodd" d="M145.297 180.7C144.542 184.584 140.693 188.569 136.642 188.724C132.609 188.878 131.303 184.652 132.015 181.284C132.622 178.411 135.105 173.42 138.647 173.97C141.432 174.402 145.943 177.37 145.297 180.7ZM142.728 174.207C140.171 172.229 136.638 171.313 133.673 172.883C132.702 173.398 128.822 175.668 130.003 177.205C131.594 175.972 132.969 174.26 135.037 173.85C134.689 175.453 132.702 176.896 132.003 178.457C131.184 180.281 130.737 182.369 130.871 184.373C131.109 187.941 133.499 190.713 137.199 190.223C140.586 189.774 143.547 187.178 145.163 184.259C147.32 180.362 146.104 176.82 142.728 174.207Z" fill="#3F3F3F"/>
<path fill-rule="evenodd" clip-rule="evenodd" d="M118.979 189.53C117.158 192.226 114.382 194.762 111.172 195.595C107.016 196.672 108.183 193.238 109.425 190.773C110.523 188.594 112.407 184.846 115.276 184.866C116.249 184.872 118.063 185.343 118.916 185.864C120.598 186.89 119.938 188.111 118.979 189.53ZM115.101 183.604C115.754 182.877 118.647 179.756 119.035 182.188C119.866 181.225 119.21 180.426 118.147 180.324C116.864 180.201 115.461 181.63 114.535 182.34C112.629 183.801 111.162 185.297 109.899 187.344C108.506 189.602 104.955 194.704 108.063 196.945C111.422 199.366 116.31 194.894 118.413 192.588C119.758 191.113 121.54 188.946 121.028 186.783C120.4 184.126 117.31 183.847 115.101 183.604Z" fill="#3F3F3F"/>
<path fill-rule="evenodd" clip-rule="evenodd" d="M100.771 140.154C98.8911 142.299 95.0733 145.423 91.9273 145.055C89.058 144.72 90.1781 141.499 91.1937 139.941C92.719 137.598 94.7626 135.399 97.7155 135.271C98.9901 135.216 100.642 135.242 101.63 136.207C102.978 137.525 101.764 139.022 100.771 140.154ZM100.571 134.197C98.3692 133.436 97.5043 133.146 95.3645 134.355C93.6461 135.326 92.1222 136.699 90.943 138.258C89.1783 140.591 87.3987 145.838 91.93 146.495C96.9002 147.215 108.723 137.015 100.571 134.197Z" fill="#3F3F3F"/>
<path fill-rule="evenodd" clip-rule="evenodd" d="M107.346 147.585C105.916 149.046 104.131 150.237 102.094 150.644C102.956 148.721 104.88 144.519 107.162 143.934C108.213 143.664 109.412 144.018 109.325 145.215C109.263 146.081 107.91 147.009 107.346 147.585ZM109.187 142.502C108.003 141.908 108.376 141.503 106.998 141.968C105.913 142.335 104.544 142.971 103.64 143.704C103.147 144.104 101.612 145.522 101.799 146.244C102.14 147.556 103.285 145.546 103.586 145.16C104.102 145.58 101.464 149.355 101.307 149.976C100.722 152.29 102.538 152.535 104.318 151.778C106.718 150.757 113.826 144.826 109.187 142.502Z" fill="#3F3F3F"/>
<path fill-rule="evenodd" clip-rule="evenodd" d="M144.378 204.758C144.555 203.225 144.807 201.603 146.214 200.742C147.483 199.965 148.796 200.078 148.984 201.67C149.159 203.149 147.71 205.775 146.538 206.582C144.906 207.705 144.592 206.305 144.378 204.758ZM146.474 208.249C149.825 206.288 151.936 197.297 145.761 199.817C142.251 201.249 143.542 209.965 146.474 208.249Z" fill="#3F3F3F"/>
<path fill-rule="evenodd" clip-rule="evenodd" d="M117.862 170.965C118.39 169.882 118.995 169.523 120.066 169.049C119.352 169.724 118.622 170.347 117.862 170.965ZM118.635 168.297C117.876 169.058 116.137 170.219 116.381 171.527C116.603 172.72 117.515 172.652 118.342 172.28C120.076 171.5 121.041 168.087 122.855 167.768C120.843 166.493 120.373 166.552 118.635 168.297Z" fill="#3F3F3F"/>
<path fill-rule="evenodd" clip-rule="evenodd" d="M118.9 100.517C118.996 104.151 119.081 107.785 119.161 111.42C119.19 112.697 118.885 114.518 119.268 115.742C119.437 116.281 120.968 118.617 121.511 118.768C123.411 119.297 122.732 114.533 122.746 113.36C122.792 109.402 122.734 105.44 122.718 101.482C122.709 99.4429 123.285 82.341 120.639 82.4244C120.183 82.4391 119.059 84.3945 118.89 84.7863C118.359 86.0174 118.554 87.8424 118.567 89.1545C118.603 92.9402 118.799 96.7313 118.9 100.517Z" fill="#3F3F3F"/>
<path fill-rule="evenodd" clip-rule="evenodd" d="M134.921 111.112C135.071 112.116 134.992 113.792 136.123 114.313C137.108 114.766 137.485 114.227 137.853 113.385C138.7 111.448 138.394 108.487 138.378 106.484C138.347 102.515 137.9 98.562 137.591 94.6076C137.456 92.8725 137.738 91.1298 137.521 89.3142C137.425 88.5175 137.331 85.3124 135.854 85.4616C134.518 85.5963 134.639 88.9557 134.566 89.8212C133.96 97.0259 133.855 103.92 134.921 111.112Z" fill="#3F3F3F"/>
<path fill-rule="evenodd" clip-rule="evenodd" d="M197.956 193.848C197.39 196.741 188.156 206.818 185.83 201.182C184.451 197.839 187.441 194.199 189.773 192.263C191.216 191.065 193.019 189.89 194.986 190.253C196.656 190.561 198.315 192.01 197.956 193.848ZM193.188 188.657C192.535 188.812 187.083 192.64 187.033 192.589C186.56 192.114 189.999 186.989 190.352 186.54C193.268 182.847 195.202 185.644 197.025 188.547C196.637 186.813 195.569 184.296 193.784 183.562C191.531 182.637 189.773 184.922 188.689 186.565C187.156 188.887 186.311 191.408 185.46 194.028C185.054 195.278 184.591 196.411 183.904 197.538C183.225 198.65 182.037 199.875 182.213 201.282C183.178 200.746 183.69 199.696 184.298 198.831C184.976 199.105 184.743 201.268 184.881 201.818C185.227 203.201 186.172 204.284 187.634 204.522C190.358 204.965 193.298 202.444 195.119 200.733C197.039 198.929 199.105 196.456 199.088 193.681C199.071 190.78 196.218 187.94 193.188 188.657Z" fill="#3F3F3F"/>
<path fill-rule="evenodd" clip-rule="evenodd" d="M200.571 142.162C199.025 144.527 196.313 147.363 193.444 147.912C191.337 148.315 189.948 146.754 190.794 144.647C191.509 142.866 193.944 141.741 195.54 140.958C196.806 140.336 202.71 138.888 200.571 142.162ZM199.434 138.293C196.268 138.173 193.714 140.462 191.353 142.289C191.887 140.19 193.093 137.907 194.791 136.541C197.102 134.682 199.293 135.837 201.726 136.766C201.125 134.872 198.431 134.191 196.715 134.458C194.544 134.797 192.984 136.65 191.887 138.442C190.578 140.58 190.13 143.1 188.589 145.105C187.884 146.023 183.515 149.458 184.504 150.862C186.136 149.13 187.768 147.398 189.399 145.666C189.823 147.713 190.289 150.044 192.903 149.845C194.99 149.686 197.37 147.912 198.897 146.556C200.868 144.804 204.747 138.494 199.434 138.293Z" fill="#3F3F3F"/>
<path fill-rule="evenodd" clip-rule="evenodd" d="M155.085 158.491C153.744 159.107 150.792 159.945 150.042 158.093C149 155.519 152.352 151.006 153.948 149.291C154.929 148.236 155.595 147.69 156.963 148.373C158.055 148.918 159.66 150.468 160.079 151.659C160.979 154.215 157.183 157.526 155.085 158.491ZM158.162 146.132C159.254 146.378 159.388 147.765 158.023 147.232C156.999 146.833 156.761 145.816 158.162 146.132ZM159.533 148.085C159.125 146.841 159.955 144.89 157.947 144.8C156.809 144.749 154.724 145.906 153.73 146.377C152.353 147.028 151.057 148.023 150.338 149.425C149.672 150.723 150.147 151.065 151.163 149.987C151.287 150.072 148.866 156.315 148.845 156.941C148.75 159.8 150.774 161.683 153.617 161.176C156.229 160.71 158.583 158.574 160.02 156.418C160.748 155.326 161.345 154.077 161.399 152.74C161.483 150.69 160.116 149.866 159.533 148.085Z" fill="#3F3F3F"/>
<path fill-rule="evenodd" clip-rule="evenodd" d="M172.063 147.036C170.961 144.914 173.515 141.342 175.802 142.387C180.563 144.562 173.509 149.819 172.063 147.036ZM176.34 144.265C175.83 144.286 172.599 145.534 173.075 146.379C173.727 147.54 176.085 144.732 176.34 144.265Z" fill="#3F3F3F"/>
<path fill-rule="evenodd" clip-rule="evenodd" d="M20.1716 140.342C20.0439 139.438 18.0175 140.751 18.0293 141.333C18.3644 140.663 20.4375 142.226 20.1716 140.342Z" fill="#3F3F3F"/>
<path fill-rule="evenodd" clip-rule="evenodd" d="M130.998 72.0268C133.578 71.8372 130.291 58.8216 128.411 59.9727C126.373 61.2202 128.631 72.2006 130.998 72.0268Z" fill="#3F3F3F"/>
<path fill-rule="evenodd" clip-rule="evenodd" d="M135.815 65.9493C138.232 66.2955 137.848 60.7454 136.548 59.7521C134.148 57.9185 132.881 65.5289 135.815 65.9493Z" fill="#3F3F3F"/>
</svg>
