<svg width="353" height="279" viewBox="0 0 353 279" fill="none" xmlns="http://www.w3.org/2000/svg">
<path fill-rule="evenodd" clip-rule="evenodd" d="M235.555 102.533C232.527 108.453 229.328 114.216 226.098 120.028C224.388 123.104 218.874 135.83 217.449 136.316C215.916 136.84 206.521 131.315 203.824 130.233C199.033 128.309 194.48 126.489 189.475 125.303C183.871 123.975 178.222 122.995 172.409 123.489C169.863 123.706 165.648 124.321 168.179 120.744C170.024 118.136 171.81 115.734 174.316 113.85C176.139 112.478 178.812 109.963 180.947 109.046C183.187 108.085 186.491 108.298 188.899 108.354C191.501 108.416 203.906 112.287 204.588 108.252C205.854 109.404 206.59 108.958 208.04 109.521C209.674 110.154 210.693 111.384 212.316 112.127C213.368 112.61 215.309 114.516 216.479 114.527C218.035 114.543 218.454 113.254 219.571 112.303C222.074 110.172 225.407 108.77 228.123 106.918C230.514 105.287 232.791 103.587 235.555 102.533ZM208.302 55.7401C208.09 58.4426 208.819 60.9537 208.801 63.7344C208.794 64.9478 208.739 66.1608 209.107 67.3299C209.438 68.3779 209.207 70.2606 209.382 71.3579C206.287 70.4155 200.536 69.018 197.375 70.2887C194.354 71.5037 193.974 77.1216 193.867 79.854C193.794 81.7163 194.621 84.5852 193.995 86.3682C193.702 87.1998 193.7 87.4683 193.718 87.5431L193.72 87.5512C193.661 87.5205 193.418 87.521 192.563 88.1383C191.714 88.7498 190.702 89.0872 189.863 89.7624C188.339 90.9923 188.078 92.386 187.325 94.1686C186.595 95.8998 184.648 97.4385 182.475 97.3757C184.222 94.2098 186.647 91.2529 185.255 87.5343C184.205 84.7277 186.046 81.4341 187.494 78.768C187.973 77.885 193.287 71.1201 190.933 70.6432C189.404 70.3332 185.894 77.5142 185.222 78.768C183.349 77.5017 182.508 75.9411 183.95 74.034C185.057 72.5693 186.416 71.317 187.494 69.8006C189.243 67.3393 190.949 64.4016 193.027 62.2154C196.676 58.3768 203.047 55.7635 208.302 55.7401ZM193.72 87.5512C193.741 87.5652 193.732 87.5787 193.723 87.558L193.72 87.5512ZM257.349 51.5458C259.682 53.78 262.631 55.6332 264.885 57.9778C266.858 60.0305 269.514 63.483 270.452 66.2252C265.643 67.152 257.653 69.9908 255.738 75.0373C248.259 68.172 245.366 80.7232 243.882 85.9717C239.506 84.0778 240.378 77.7724 240.436 74.091C240.481 71.1707 242.26 67.7142 238.02 67.4749C234.851 67.2968 231.774 68.5873 228.916 69.7957C225.349 71.3036 221.609 73.5593 218.728 76.1503L215.727 73.8139C220.65 71.0499 223.216 65.7651 226.098 60.926C227.017 59.3833 228.245 57.6678 228.916 56.0002C229.379 54.847 229.706 52.5194 230.214 51.4941C231.014 49.8822 238.825 49.4385 240.894 49.0231C246.357 47.9266 252.886 47.2694 257.349 51.5458Z" fill="#FFCDD6"/>
<path fill-rule="evenodd" clip-rule="evenodd" d="M256.104 87.3669C258.122 87.2637 260.131 87.7144 262.149 87.518C260.397 85.992 258.645 84.4665 256.893 82.941C256.119 84.3 256.063 85.8459 256.104 87.3669ZM208.234 56.0003C203.011 56.0232 196.64 58.6464 193.012 62.4776C191.09 64.5081 189.502 67.2345 187.876 69.5158C186.786 71.0462 185.721 72.5234 184.398 73.8684C182.467 75.8286 183.02 76.2767 185.194 77.7529C185.883 76.4632 189.532 69.5681 191.061 69.8782C193.385 70.3498 188.897 77.6332 188.407 78.5405C186.955 81.2251 184.61 84.975 185.664 87.8061C187.054 91.5436 185.038 93.6737 183.288 96.8583C185.126 96.9117 185.307 96.1948 185.941 94.6274C186.754 92.6129 187.642 90.9299 189.362 89.537C190.694 88.4587 192.873 88.0045 193.499 86.7024C194.273 85.0927 193.787 81.9141 193.85 80.1234C193.945 77.4024 193.952 70.97 196.95 69.761C200.092 68.4943 205.74 69.6882 208.811 70.6265C208.428 68.2286 207.218 66.6622 207.235 63.9976C207.253 61.2083 208.021 58.7197 208.234 56.0003ZM168.112 100.5C170.844 99.6351 173.434 98.7238 176.244 98.1345C179.186 97.5174 179.382 96.8115 181.041 94.2889C182.297 92.3771 183.822 90.8865 183.466 88.5449C183.238 87.0429 182.416 86.311 182.663 84.622C182.816 83.5751 183.305 82.432 183.658 81.4365C184.091 80.2151 184.988 78.8297 182.902 78.7694C181.75 78.736 181.693 79.3437 180.914 80.3641C179.475 82.2491 177.819 83.9605 176.288 85.7681C173.629 88.9069 170.809 92.247 167.841 95.1519C164.574 98.3484 161.753 102.204 159.641 106.296C159.251 107.052 156.879 111.503 157.891 112.376C158.82 113.178 163.989 111.309 164.931 111.09C168.999 110.145 173.616 109.808 177.459 108.094C179.417 107.22 183.738 106.177 185.284 104.825C186.722 103.568 186.657 100.523 185.823 98.7517C183.488 100.204 166.607 105.685 168.112 100.5ZM218.935 75.5185C221.661 73.0563 224.883 71.0811 228.249 69.6175C231.259 68.3083 234.999 66.8492 238.349 67.0765C242.522 67.3591 240.778 70.7207 240.763 73.5832C240.743 77.3815 239.079 82.8533 243.614 84.8239C245.095 79.5645 248.215 67.1278 255.691 74.0194C257.602 68.9624 264.416 67.251 269.214 66.3222C268.344 63.7673 265.702 61.4546 263.871 59.5368C261.581 57.1379 259.773 54.3262 257.478 51.9727C252.945 47.3249 244.732 48.8175 238.993 49.9761C237.077 50.3624 231.524 50.848 230.596 52.2549C230.014 53.1372 230.339 55.2929 229.907 56.3717C229.313 57.8583 228.298 59.2362 227.483 60.6091C224.51 65.6188 221.486 70.6609 216.398 73.5294L218.935 75.5185ZM235.571 102.507C232.879 103.54 230.899 105.267 228.512 106.721C225.617 108.484 222.223 110.136 219.625 112.314C218.675 113.111 218.141 114.487 216.829 114.576C215.687 114.654 213.948 113.328 212.937 112.864C211.239 112.085 209.618 110.905 207.912 110.21C206.511 109.639 205.89 109.756 204.677 108.646C203.997 112.695 191.621 108.911 189.025 108.849C186.623 108.792 183.327 109.077 181.092 110.042C178.962 110.962 177.297 112.986 175.473 114.365C172.974 116.257 170.59 118.17 168.749 120.788C166.225 124.378 170.033 123.362 172.573 123.145C178.371 122.649 184.011 124.03 189.6 125.363C194.595 126.554 199.529 127.983 204.311 129.914C207.001 131 209.832 131.999 212.361 133.411C213.695 134.155 215.858 135.978 217.388 135.453C218.791 134.971 220.189 130.948 221.04 129.342C222.692 126.223 224.43 123.156 226.137 120.068C229.359 114.234 232.551 108.45 235.571 102.507ZM202.45 179.717C204.108 178.764 206.812 179.021 208.647 178.622C210.719 178.171 212.803 177.436 214.78 176.67C216.781 175.894 218.672 175.1 220.501 174.13C221.337 173.686 222.452 173.249 223.225 172.633C223.848 172.137 224.075 171.214 224.649 170.764C226.148 169.589 226.588 170.326 226.789 168.06C227.007 165.597 225.625 164.203 223.906 162.36C222.366 160.711 220.366 159.286 218.432 158.126C217.576 157.613 216.662 157.036 215.789 156.546C214.468 155.804 212.697 154.571 212.004 156.163C213.448 156.532 213.766 158.376 212.463 159.038C211.747 159.402 210.664 158.868 209.857 159.255C208.611 159.852 207.413 161.518 206.347 162.416C202.847 165.363 199.499 166.467 194.918 166.704C185.346 167.198 175.321 166.106 165.933 164.687C163.517 164.322 161.104 164.717 158.666 164.63C156.293 164.545 153.819 164.026 151.486 163.626C146.993 162.854 142.257 162.219 137.834 161.083C132.485 159.71 127.117 157.933 122.095 155.632C117.278 153.425 111.833 149.778 106.422 149.497C108.731 151.757 112.191 152.628 114.968 154.117C117.238 155.334 120.788 156.115 122.223 158.119C123.156 159.424 123.624 161.821 124.33 163.35C125.11 165.043 125.829 166.763 126.551 168.482C127.277 170.211 128.032 171.941 128.621 173.721C128.986 174.826 129.143 177.116 130.004 177.872C131.378 179.077 135.977 179.612 137.828 180.013C141.285 180.762 145.229 180.663 148.755 180.715C150.212 180.736 151.681 180.935 153.074 180.962C155.029 180.999 154.843 180.661 154.815 178.963C154.799 177.944 154.819 176.09 156.183 176.929C157.112 177.502 156.472 180.036 156.3 180.936C164.084 181.711 172.205 182.101 179.951 181.842C187.57 181.587 194.924 180.604 202.45 179.717ZM237.601 161.85C238.974 151.988 240.648 141.961 242.521 132.226C244.414 122.389 246.69 112.642 249.251 102.842C247.559 102.437 245.868 102.033 244.177 101.629C244.114 103.694 243.416 105.487 243.118 107.543C242.707 110.38 241.922 113.135 241.452 115.962C240.558 121.337 238.903 126.597 237.445 131.838C235.959 137.182 235.462 142.687 234.097 148.058C232.971 152.482 232.396 157.356 231.768 161.904C230.243 172.939 228.071 183.995 226.417 195.036C224.867 205.387 224.711 215.948 224.801 226.395C224.855 232.774 225.828 239.134 225.778 245.521C225.765 247.1 225.898 248.674 225.98 250.25C226.038 251.363 225.44 254.445 225.947 255.377C226.268 255.967 227.646 256.511 228.133 257.33C228.905 258.625 229.068 260.174 230.307 261.155C231.311 257.103 230.836 251.756 230.617 247.622C230.405 243.638 230.817 239.521 230.898 235.476C231.057 227.54 231.477 219.722 231.884 211.783C232.33 203.076 233.598 194.158 234.837 185.517C235.964 177.661 236.715 169.664 237.601 161.85ZM200.84 38.169C200.296 38.1182 199.751 38.0678 199.206 38.017C199.288 39.1646 199.045 41.0231 199.854 41.6218C200.467 42.0755 201.708 41.9264 202.452 42.0715C204.887 42.5476 207.71 42.9459 210.128 42.0785C211.067 41.7415 210.464 41.2135 211.758 41.4329C213.316 41.6976 212.747 41.9444 213.197 42.9165C213.543 43.6668 213.722 44.9435 214.116 45.8443C214.642 47.0498 215.709 49.2069 215.253 50.5987C214.81 51.9517 213.155 52.3605 212.452 53.893C211.929 55.0321 212.052 56.6882 211.781 57.943C211.418 59.6166 210.96 61.2836 210.757 62.9881C210.502 65.1352 210.59 67.6548 213.25 67.9878C215.719 68.2974 217.485 67.5037 219.141 65.7055C222.303 62.2727 225.914 57.4265 227.771 53.1083C227.988 52.6038 228.522 51.7618 228.448 51.2219C228.301 50.1536 228.237 51.2349 227.898 50.4931C227.575 49.7837 227.068 49.1401 226.769 48.3529C225.697 45.5248 224.936 42.5605 224.506 39.5669C224.311 38.2109 224.246 36.8714 224.279 35.5019C224.29 35.0343 224.571 33.6305 224.404 33.3104C224.233 32.9859 223.343 32.8363 223.066 32.5143C222.552 31.9175 221.669 30.2325 221.099 29.7859C220.398 29.237 218.831 29.6717 218.546 28.5799C218.091 26.8326 228.866 23.9865 223.832 21.6549C220.074 19.9141 214.309 28.714 212.995 21.7895C212.767 20.5901 213.201 18.9619 212.675 17.8626C212.093 16.6477 210.51 16.1936 209.405 15.6023C207.994 14.8486 206.568 14.0739 205.197 13.2483C204.257 12.6825 202.902 11.1799 201.901 11.0423C202.295 13.0818 201.539 15.1033 201.527 17.1388C203.695 16.552 205.188 16.5396 207.328 17.583C208.347 18.0795 212.187 20.8977 210.241 22.2532C208.665 21.3214 206.979 20.5133 205.222 19.9654C204.529 19.7491 203.663 19.4549 202.926 19.44C201.215 19.4056 201.456 19.5846 200.814 20.8747C200.194 22.1176 200.328 25.359 198.968 26.1526C197.562 26.9732 198.646 25.8246 197.446 26.0898C196.761 26.2413 196.015 26.7503 195.388 27.038C196.247 27.9702 197.981 28.8212 198.55 29.8566C199.381 31.3662 199.093 34.4884 199.223 36.14C200.311 35.7507 201.456 35.7347 202.558 35.4456C203.595 35.1734 205.032 33.9954 205.14 35.7273C205.261 37.6571 202.21 38.169 200.84 38.169ZM214.997 88.9776C215.082 87.3101 215.175 85.643 215.36 83.9824C215.486 82.8672 216.544 79.6328 215.946 78.6532C215.295 77.5879 213.114 77.5201 212.064 77.2643C210.051 76.7738 208.121 76.372 206.076 76.0479C204.195 75.7503 202.423 75.6875 200.527 75.6012C198.463 75.508 197.951 74.9601 197.495 77.2349C197.136 79.0236 196.655 80.8866 196.588 82.7182C196.525 84.4371 197.044 85.9292 195.341 87.0877C199.082 87.0877 203.954 83.7571 207.367 86.7353C212.25 90.9942 203.753 92.221 201.512 93.1613C203.375 94.0666 206.14 94.7775 207.017 96.8454C208.001 99.163 206.573 100.149 204.388 100.334C204.594 101.227 205.38 101.808 205.614 102.882C205.958 104.457 204.844 103.935 206.265 105.154C208.135 106.758 211.985 107.83 214.279 108.851C214.816 109.092 215.359 109.317 215.909 109.528C216.768 110.293 217.403 110.147 217.812 109.091C218.989 108.346 220.036 106.684 221.08 105.718C223.402 103.567 225.965 101.68 228.724 100.127C227.58 99.6531 226.212 100.723 225.115 100.202C224.227 99.7812 224.562 99.0149 224.031 98.4411C224.243 97.6929 224.019 97.4192 223.356 97.6201C223.025 97.6555 222.716 97.5991 222.431 97.4521C221.876 96.7641 221.627 96.5388 221.59 95.4764C221.551 94.3493 222.204 93.9514 222.454 93.0491C223.268 92.4942 223.25 91.9489 222.399 91.4144C222.049 90.8421 221.858 90.2215 221.826 89.5519C221.664 87.0658 223.933 86.0638 225.664 84.7487C222.565 84.4082 222.683 80.7739 224.827 79.1851C227.05 77.538 231.755 78.2125 234.442 78.5839C235.001 78.6607 236.511 79.3816 237.076 78.9219C237.423 78.6403 237.178 76.2588 237.194 75.8385C237.23 74.8844 237.462 73.7467 237.31 72.7975C236.992 70.8099 237.666 71.811 236.235 71.7556C232.83 71.6235 228.494 74.5962 225.498 75.9976C222.144 77.5664 219.989 77.8077 219.955 81.6972C219.921 85.3803 218.888 89.0499 218.437 92.6742C218.24 94.257 218.1 102.48 215.203 99.4457C214.08 98.2686 214.799 96.4585 214.883 95.0068C214.996 93.0092 214.929 90.9807 214.997 88.9776ZM27.6684 212.264C29.3261 212.558 32.0262 211.606 33.8345 211.506C36.9969 211.332 40.2535 211.031 43.3515 210.373C45.7753 209.858 48.5372 209.405 49.8443 207.059C51.0128 204.962 51.4257 202.337 52.0551 200.048C52.3893 198.833 53.2515 197.072 53.2515 195.815C53.2515 194.181 53.0311 194.503 51.327 193.608C49.17 192.477 47.0715 190.9 44.7449 190.258C44.0413 190.12 43.3371 189.986 42.6324 189.854C41.7207 189.325 41.206 189.585 41.0869 190.633C40.1971 191.571 39.6755 193.3 38.9289 194.398C37.2268 196.899 35.2055 198.604 32.5648 200.047C27.813 202.642 23.3854 204.645 18.296 206.342C15.4912 207.277 12.9049 208.59 10.1634 209.621C7.9671 210.447 4.9359 210.698 3.24874 212.536C1.34514 214.611 4.27111 215.365 5.89742 216.767C7.22999 217.916 7.25593 218.18 9.07874 217.622C10.4367 217.207 11.6406 216.412 12.9448 215.873C17.4118 214.028 22.8184 212.8 27.6684 212.264ZM129.758 245.166C128.093 244.806 126.428 244.446 124.763 244.087C126.401 247.143 129.844 251.615 127.373 255.153C126.449 256.474 124.913 256.851 123.54 257.522C121.879 258.333 120.345 259.373 118.775 260.34C112.299 264.327 105.718 268.371 98.8946 271.792C101.031 272.481 104.315 272.959 106.515 272.358C109.077 271.658 111.449 270.052 114.079 269.349C118.797 268.09 123.764 267.018 128.558 266.372C132.476 265.844 142.284 267.037 141.808 261.144C141.356 255.549 138.014 250.211 137.019 244.68C134.579 245.222 132.251 245.127 129.758 245.166ZM228.991 155.616C230.889 146.303 232.022 136.831 234.261 127.585C235.377 122.972 236.164 118.296 237.255 113.682C237.763 111.535 238.146 109.368 238.64 107.225C239.141 105.056 240.218 103.054 240.465 100.812C238.651 101.26 238.232 105.413 237.682 106.976C236.674 109.842 235.574 112.597 234.279 115.341C232.219 119.703 230.034 123.912 227.71 128.141C225.26 132.602 222.672 136.891 219.612 140.965C218.606 142.303 217.242 143.352 216.594 144.82C215.574 147.13 215.146 149.883 214.172 152.286C214.858 152.634 216.629 152.721 217.47 152.887C219.034 153.196 220.13 153.47 221.632 154.214C224.278 155.524 226.501 157.077 228.269 159.434C228.713 158.224 228.829 156.897 228.991 155.616ZM155.234 226.676C155.202 217.706 155.075 208.66 155.222 199.757C155.262 197.285 155.464 194.617 155.823 192.164C156.047 190.622 157.372 187.344 156.501 186.605C155.757 185.973 151.829 186.389 150.865 186.367C148.996 186.324 147.132 186.24 145.259 186.1C145.259 189.424 146.557 193.199 147.161 196.487C147.723 199.554 148.186 202.639 148.65 205.72C149.655 212.393 149.941 219.158 151.032 225.849C152.02 231.915 153.324 237.956 154.044 244.022C154.438 247.351 155.237 250.493 155.857 253.82C156.181 255.556 157.363 262.702 158.851 263.405C159.165 260.841 157.88 257.746 157.65 255.153C157.412 252.477 157.228 249.782 156.795 247.092C156.285 243.933 156.028 240.696 155.832 237.499C155.713 235.542 155.676 233.591 155.507 231.636C155.385 230.217 154.848 228.067 155.234 226.676ZM201.977 106.734C202.039 105.757 199.511 105.796 199.04 104.674C198.085 102.394 200.262 102.804 201.601 102.568C201.123 101.301 192.187 101.762 194.269 98.3399C195.713 95.9655 201.19 99.5997 202.654 97.3434C203.616 95.8613 200.998 95.6574 199.959 95.5088C198.397 95.285 194.716 96.0083 194.837 93.9808C194.99 91.4334 202.146 89.6751 204.153 88.9268C203.931 87.1825 195.318 89.6621 194.072 90.369C191.25 91.9698 189.089 94.8413 188.675 98.0328C188.193 101.746 190.076 104.671 193.785 105.582C195.331 105.962 196.474 106.004 197.905 106.576C198.847 106.951 201.894 107.888 202.539 106.94C202.352 106.871 202.165 106.802 201.977 106.734ZM252.538 83.6365C252.681 82.0507 254.016 79.0655 252.478 78.0236C250.325 76.5654 249.434 78.9683 248.946 80.4115C248.349 82.1738 245.842 86.4875 248.035 87.5858C248.544 87.841 250.961 87.5439 251.388 87.3754C252.575 87.685 252.958 87.2403 252.538 86.0403V83.6365ZM200.011 211.698C199.876 207.364 201.817 202.153 202.916 197.908C204.163 193.098 204.82 188.193 206.141 183.436C204.671 183.613 203.189 183.758 201.737 184.052C199.756 184.455 199.721 184.391 199.863 186.334C200.076 189.251 199.797 192.112 199.647 195.028C199.345 200.867 200.08 206.803 199.591 212.605C200.027 212.716 200.167 212.413 200.011 211.698ZM254.845 98.1086C259.603 98.837 264.164 100.345 268.494 102.372C270.88 103.49 273.509 104.69 276.176 105.136C279.14 105.632 282.282 105.4 285.308 105.591C286.375 105.658 289.179 106.177 290.22 105.549C291.25 104.927 291.169 103.874 291.218 102.618C291.343 99.3883 289.881 96.2257 288.566 93.3278C287.438 90.8416 286.586 88.9432 284.836 86.8046C282.588 84.0577 280.631 81.0935 278.527 78.2265C276.94 76.0654 275.336 73.9352 273.719 71.7766C272.562 70.2311 272.617 69.6992 270.873 69.8722C269.156 70.0427 267.427 71.0577 265.809 71.5956C263.409 72.3942 260.502 72.8324 258.312 74.1092C256.897 74.9347 256.834 75.0868 256.85 76.5275C256.865 77.8695 257.298 79.5062 258.101 80.5561C259.769 82.7356 262.533 83.8892 264.905 84.9765C266.278 85.6051 267.464 86.497 268.686 87.3644C270.002 88.2997 272.657 88.8505 273.665 89.9164C276.597 93.0207 271.259 92.407 269.767 92.3133C266.549 92.1109 263.347 92.1418 260.105 92.1393C256.565 92.1368 253.054 91.9723 249.565 92.0874C247.521 92.1547 245.176 91.1183 243.852 89.3904C243.211 88.5534 242.961 87.7622 242.123 86.8938C241.024 85.7567 240.069 84.5587 238.732 83.6788C236.545 82.2391 232.572 81.4245 229.968 81.9619C230.9 82.092 235.285 83.5846 233.354 85.4606C233.12 85.6889 230.299 85.8384 229.686 86.1201C228.58 86.6281 227.186 87.3664 226.537 88.4392C228.426 88.1227 235.433 87.7563 231.858 91.381C230.981 92.2709 228.462 93.1588 230.606 94.105C231.098 94.3223 232.083 94.0147 232.717 94.2107C233.659 94.5023 234.429 95.2825 235.312 95.6983C237.816 96.8793 241.266 97.6076 243.879 97.3489C247.492 96.9904 251.256 97.6355 254.845 98.1086ZM159.038 207.329C159.161 212.536 158.973 217.774 159.084 223.005C159.203 228.592 159.92 234.067 160.261 239.597C160.568 244.553 161.237 249.415 161.781 254.348C162.093 257.189 162.454 259.906 162.935 262.726C163.385 265.365 163.462 267.69 160.308 268.399C154.277 269.756 153.339 261.08 152.174 257.424C150.434 251.968 149.318 246.241 148.456 240.585C146.851 230.052 144.717 219.665 143.884 209.042C143.372 202.501 142.628 196.027 142.206 189.492C142.123 188.211 142.45 186.238 141.325 185.667C140.649 185.325 138.786 185.322 137.932 185.074C135.553 184.382 133.359 183.363 131.038 182.305C132.685 190.919 133.229 199.49 134.465 208.178C135.12 212.789 136.375 217.566 137.462 222.104C138.589 226.806 138.839 231.869 140.139 236.469C140.711 238.497 141.196 239.323 140.365 241.403C139.346 243.958 140.022 244.569 141.3 247.078C143.651 251.693 145.446 257.14 145.048 262.343C144.723 266.592 141.512 268.817 137.535 269.963C132.559 271.397 127.35 271.228 122.345 272.856C117.984 274.274 113.553 275.322 109.319 277.195C107.611 277.949 105.989 278.845 104.093 278.984C101.492 279.173 99.7389 277.664 97.2827 277.349C95.7477 277.153 93.5 277.885 92.6157 276.276C91.9145 275.001 92.708 272.217 93.5882 271.19C96.0604 268.304 101.011 265.789 104.345 264.086C108.188 262.124 111.906 259.667 115.466 257.134C117.624 255.598 119.825 254.124 121.981 252.586C123.407 251.567 123.95 251.561 123.804 249.943C123.688 248.653 123.106 247.402 123.005 246.081C122.927 245.069 123.281 243.689 122.803 243.029C122.451 242.542 121.131 242.198 120.612 241.829C118.713 240.483 118.282 238.818 117.419 236.771C115.461 232.12 113.211 227.601 111.32 222.913C107.259 212.848 104.781 202.265 101.415 191.995C97.9759 181.503 94.9009 170.488 93.0067 159.602C90.4722 160.373 88.0804 163.786 86.0621 165.475C83.3351 167.757 80.5413 169.964 77.8672 172.308C73.484 176.152 69.0459 179.89 65.4237 184.493C63.6787 186.71 62.2499 189.096 60.67 191.425C59.7573 192.77 58.9065 194.293 57.918 195.574C57.7594 195.779 57.755 196.201 57.5839 196.376C57.2074 196.76 56.4887 196.248 56.2473 196.501C54.7582 198.059 54.7776 202.481 54.3133 204.536C53.674 207.368 52.9558 210.624 50.7445 212.576C47.3288 215.59 41.0295 216.057 36.7066 216.214C31.1589 216.415 25.7773 217.961 20.5138 219.621C18.0586 220.396 15.6678 221.301 13.2036 222.053C11.7863 222.486 10.1694 223.349 8.65582 223.183C6.83052 222.983 5.38923 221.448 4.05217 220.306C1.91318 218.48 -0.067224 216.68 0.00175017 213.684C0.0788999 210.512 1.79698 208.118 4.50351 206.543C9.73604 203.497 15.5885 201.544 21.2285 199.44C23.3899 198.633 25.2401 197.74 27.3068 196.653C30.2268 195.118 33.5882 193.865 36.179 191.838C36.943 191.239 39.7503 189.407 39.9897 188.462C40.0211 188.339 39.3194 186.895 39.3164 186.666C39.3094 186.078 39.658 185.44 39.8725 184.936C41.222 181.764 43.4857 178.709 45.2162 175.717C48.3856 170.237 51.5669 164.728 55.2414 159.575C62.5686 149.3 70.7994 139.239 79.683 130.269C84.0139 125.897 87.7562 120.937 92.1479 116.625C93.888 114.917 95.7247 113.526 97.8687 112.417C100.259 111.181 102.941 110.939 105.681 110.562C112.319 109.648 117.863 111.612 124.095 113.321C129.987 114.936 135.885 116.298 141.81 117.981C148.317 119.828 154.757 121.601 161.243 123.614C164.709 124.69 168.274 125.35 171.756 126.383C173.433 126.879 179.771 129.992 181.169 128.97C176.766 126.903 172.254 125.02 167.543 123.773C166.155 123.406 165.269 123.812 165.321 122.219C165.349 121.35 166.326 120.177 166.677 119.461C167.519 117.749 168.472 116.075 169.296 114.358C166.309 115.206 158.281 118.141 156.03 115.107C153.675 111.931 155.641 105.704 157.117 102.594C160.971 94.4759 167.525 87.7014 173.911 81.582C175.292 80.259 178.27 78.5311 179.006 76.8461C179.23 76.3336 178.743 75.5808 179.248 74.9153C179.548 74.5194 180.755 74.2487 181.237 73.822C182.993 72.2676 184.394 68.9968 185.607 66.9588C186.878 64.8246 188.023 62.5135 189.62 60.5986C192.232 57.4674 194.928 54.1482 199.158 53.4159C201.232 53.057 203.436 53.2484 205.423 52.532C207.828 51.6656 210.112 50.3006 212.54 49.4033C211.938 48.165 211.449 46.1958 210.281 46.0607C209.156 45.9301 207.506 46.8972 206.218 46.8902C204.337 46.8798 202.732 46.5791 200.917 46.2207C198.908 45.8234 198.246 45.8957 197.514 43.7166C196.746 41.4339 196.94 38.7827 196.946 36.4117C196.949 35.2532 197.179 33.8149 197.08 32.6778C196.932 30.9644 196.599 30.8986 195.256 29.8088C193.578 28.4473 191.509 26.6457 193.565 24.2802C194.676 23.0019 196.958 23.996 197.942 22.6226C198.944 21.2237 198.896 17.7096 199.201 16.0665C196.112 17.585 197.244 11.9083 197.244 10.5423C197.243 8.5547 195.911 4.98028 197.829 3.32667C198.72 2.55895 199.382 3.19407 200.401 2.75287C201.563 2.24936 202.295 0.928771 203.532 0.416787C205.99 -0.6012 208.5 0.624671 211.024 0.42227C213.92 0.190456 216.763 -0.257218 219.674 0.207406C221.054 0.426757 221.634 0.950706 222.801 1.53797C223.923 2.1028 225.062 2.25734 226.281 2.62076C227.365 2.94431 228.316 3.10782 229.049 4.05302C229.629 4.80081 229.393 6.05859 229.978 6.70318C230.555 7.3383 231.696 7.24607 232.384 8.00034C233.044 8.7242 233.439 9.92066 233.782 10.8215C234.246 12.0349 234.301 12.4905 235.117 13.4617C235.829 14.3092 236.853 14.9906 237.447 15.9573C238.847 18.236 238.883 21.5313 238.436 24.0947C238.284 24.9676 237.019 27.2239 237.217 27.9667C237.406 28.6736 238.592 28.4877 239.129 28.9349C239.593 29.3212 240.002 31.0426 240.368 31.1478C241.159 31.3747 242.134 29.8128 242.734 29.5785C243.775 29.1712 244.211 28.7534 244.788 30.2884C245.215 31.4275 244.62 32.9734 244.306 34.0607C243.907 35.4446 243.466 37.1112 242.409 38.1576C241.166 39.3879 240.171 38.7154 238.8 39.378C236.745 40.371 237.351 43.4758 234.822 44.3632C232.412 45.2087 229.757 42.5486 227.934 41.3257C228.312 44.2944 229.733 47.1549 229.051 50.1974C234.594 48.0259 240.076 44.944 246.116 44.265C249.196 43.9185 252.308 43.5082 255.215 44.787C258.618 46.2835 260.704 49.5848 263.007 52.3276C267.337 57.4829 271.779 62.4935 275.934 67.8148C279.745 72.6958 282.958 78.3516 287.154 82.9221C291.407 87.5569 294.617 95.0766 294.152 101.495C294.11 102.074 293.661 103.39 293.731 104.015C293.786 104.493 294.221 105.1 294.214 105.486C294.19 106.784 293.761 107.532 292.523 108.253C290.377 109.502 287.179 110.135 284.754 110.445C281.532 110.857 277.586 110.902 274.362 110.462C271.037 110.007 268.115 108.146 265.057 107.021C262.375 106.034 259.681 105.418 256.863 104.788C255.308 104.441 253.587 103.479 252.627 104.41C251.745 105.265 251.562 109.654 251.356 110.821C249.126 123.471 246.477 135.692 244.13 148.277C241.47 162.542 239.651 176.801 237.802 191.187C236.12 204.264 235.571 217.489 235.195 230.554C235.015 236.786 234.989 242.951 235.027 249.188C235.049 252.681 236.795 264.34 231.617 264.786C228.574 265.049 226.14 260.687 225.325 258.308C224.1 254.734 223.462 250.884 223.266 247.13C222.871 239.528 222.353 231.921 222.047 224.317C221.714 216.078 222.137 207.687 222.814 199.476C223.496 191.209 225.213 183.063 225.74 174.784C224.16 177.039 223.654 177.463 221.022 178.445C218.267 179.474 215.618 180.69 212.838 181.649C211.893 181.975 210.417 182.179 209.642 182.713C208.212 183.698 209.151 182.581 208.694 184.498C208.207 186.546 208.115 189.006 207.985 191.11C207.376 200.989 204.64 210.797 203.378 220.622C203.073 222.995 203.508 233.066 199.425 229.892C196.28 227.448 196.343 219.77 195.895 216.174C195.3 211.38 195.632 206.451 195.726 201.628C195.833 196.135 195.925 190.375 197.236 185.011C194.891 184.61 191.629 185.703 189.269 185.887C187.225 186.046 185.188 186.148 183.156 186.259C178.31 186.525 173.318 186.738 168.389 186.643C167.492 186.625 161.631 185.805 160.882 186.466C160.638 186.681 160.564 189.636 160.518 189.997C160.346 191.355 160.112 192.712 159.937 194.062C159.381 198.379 158.878 203.014 159.038 207.329Z" fill="#3F3F3F"/>
<path fill-rule="evenodd" clip-rule="evenodd" d="M246.082 248.353C249.781 249.799 253.707 250.323 257.437 251.64C260.772 252.817 263.868 254.4 267.152 255.597C267.344 254.073 267.446 251.494 266.883 250.059C266.087 248.026 263.991 247.976 261.928 247.252C256.905 245.49 251.622 245.118 246.636 243.06C247.489 244.703 247.108 246.879 246.082 248.353ZM309.932 243.038C301.943 243.272 294.309 245.131 286.436 246.281C282.605 246.84 278.77 247.339 274.936 247.861C273.46 248.061 270.771 247.825 269.698 249.102C268.809 250.161 269.783 253.772 269.389 255.324C271.003 255.443 273.87 253.934 275.622 253.685C278.351 253.297 281.044 252.753 283.801 252.58C288.168 252.305 292.459 252.071 296.818 251.585C301.251 251.091 305.541 250.172 310.009 249.837C312.181 249.673 313.055 250.081 313.183 247.787C313.233 246.891 313.356 245.39 313.105 244.506C313.507 243.419 313.15 242.892 312.036 242.922C311.328 242.843 310.627 242.881 309.932 243.038ZM294.481 235.719C296.642 235.516 298.811 235.226 300.976 235.104C301.416 235.079 303.643 235.213 304.007 234.805C304.522 234.228 303.948 232.115 303.854 231.461C303.532 229.238 303.178 227.946 300.753 227.941C298.707 227.936 296.588 228.369 294.55 228.568C285.297 229.475 276.091 229.858 266.94 231.58C267.497 233.952 268.13 236.4 267.463 238.825C271.853 239.052 276.672 238.207 280.963 237.34C285.347 236.455 290 236.015 294.481 235.719ZM279.836 213.386C276.531 213.401 273.037 214.857 269.775 214.532C269.726 215.139 270.77 214.635 271.058 215.203C271.674 215.205 271.888 215.406 271.7 215.807C271.712 216.081 271.572 216.241 271.28 216.288C271.136 216.301 270.992 216.313 270.849 216.325C270.218 216.346 270.115 216.771 270.539 217.603C270.357 218.633 270.63 219.941 270.67 220.975C276.533 220.178 282.228 219.348 288.131 218.992C290.919 218.824 293.704 218.824 296.487 218.595C299.55 218.343 302.893 218.884 305.887 218.31C307.488 218.004 307.32 218.025 307.204 215.943C307.133 214.679 307.159 213.177 306.129 212.255C304.41 210.714 300.494 211.605 298.438 211.659C292.245 211.823 285.947 212.398 279.836 213.386ZM283.22 243.112C292.077 242.308 300.866 240.546 309.772 240.546C309.142 239.917 307.771 239.755 306.987 239.411C306.094 239.02 305.25 238.187 304.377 237.845C302.624 237.159 300.841 238.112 299.041 238.524C294.699 239.518 290.244 239.552 285.896 240.528C281.4 241.535 276.845 242.465 272.266 242.977C270.086 243.221 267.747 243.716 265.592 243.14C265.418 243.015 265.242 242.89 265.067 242.765C264.879 241.963 264.356 241.749 263.499 242.123C262.41 241.915 261.023 242.183 259.927 242.21C259.883 242.648 263.933 244.021 264.705 244.361C266.565 245.181 267.827 245.781 269.814 245.429C274.288 244.639 278.689 243.696 283.22 243.112ZM252.067 217.22C252.413 218.569 253.866 217.955 255.117 218.104C256.797 218.303 258.467 218.882 260.094 219.319C263.048 220.113 266.003 220.896 268.944 221.735C268.828 220.546 269.091 217.842 268.463 216.788C267.804 215.683 264.681 215.199 263.227 214.862C259.561 214.014 255.645 214.497 251.921 214.675C251.987 215.522 252.036 216.37 252.067 217.22ZM287.28 225.66C290.758 225.366 294.24 225.137 297.728 225.014C301.716 224.874 298.817 224.237 298.733 221.805C293.492 222.641 288.204 222.806 282.978 223.521C278.65 224.114 273.493 225.661 269.077 224.83C266.994 224.438 264.868 224.287 262.653 224.065C260.562 223.856 258.59 222.883 256.526 222.641C254.208 222.369 251.84 223.672 249.535 224.016C248.557 224.162 248.33 224.825 247.869 223.648C247.39 222.428 248.761 221.431 249.301 220.702C249.931 219.849 249.669 221.233 250.019 219.902C250.117 219.529 249.851 218.592 249.803 218.191C249.679 217.175 249.36 216.073 249.31 215.059C249.264 214.128 249.256 212.707 250.267 212.164C250.884 211.832 251.321 212.316 251.859 212.222C256.056 211.492 260.994 211.432 265.25 212.137C269.865 212.9 273.837 210.879 278.386 210.059C283.721 209.098 289.113 208.954 294.495 208.547C299.097 208.2 307.505 206.399 309.258 212.277C309.754 213.942 310.478 218.527 309.142 219.944C307.389 221.805 303.331 221.211 301.065 221.695C301.404 222.659 302.413 223.315 302.064 224.463C305.24 224.613 305.802 227.613 306.299 230.414C306.814 233.311 305.81 234.463 308.579 235.972C312.438 238.074 316.527 240.198 316.451 245.206C316.413 247.724 316.132 251.522 313.546 252.828C311.017 254.106 306.899 253.89 304.111 254.354C298.713 255.253 293.296 256.307 287.866 256.847C282.083 257.422 276.204 257.893 270.412 258.15C267.256 258.291 264.529 258.767 261.482 257.705C258.485 256.661 255.553 255.899 252.462 255.124C249.409 254.359 240.065 253.329 242.788 248.109C243.224 247.274 244.713 246.61 244.953 245.82C245.341 244.546 244.031 243.552 244.085 242.4C244.186 240.294 246.562 240.03 248.203 240.03C245.39 238.271 249.157 236.188 249.134 234.695C249.095 232.064 245.823 230.356 245.637 228.15C245.187 222.782 262.215 228.371 264.836 229.533C262.818 232.524 253.46 229.935 250.672 229.482C251.053 230.48 251.416 231.378 251.526 232.401C251.615 233.234 251.297 234.187 251.588 235.025C252.048 236.352 252.032 236.098 253.661 236.459C254.866 236.727 256.057 237.036 257.258 237.319C259.103 237.754 262.004 238.922 263.832 238.858C265.435 238.802 265.118 239.299 265.412 237.519C265.571 236.562 265.301 235.545 265.139 234.607C264.803 232.643 264.31 230.784 266.026 229.374C267.662 228.03 271.11 227.39 273.117 226.916C277.57 225.864 282.71 225.606 287.28 225.66Z" fill="#3F3F3F"/>
<path fill-rule="evenodd" clip-rule="evenodd" d="M308.471 192.129C303.634 191.319 298.72 191.119 293.826 191.365C294.091 192.576 294.356 193.786 294.622 194.996C299.207 193.816 303.858 193.124 308.471 192.129ZM269.142 201.523C267.202 201.381 268.552 202.248 269.03 203.518C269.619 205.077 269.493 207.049 269.628 208.691C275.303 206.527 281.906 205.261 287.94 204.532C290.802 204.187 293.705 204.088 296.582 203.94C297.433 203.897 300.505 204.253 301.127 203.681C301.589 203.255 301.265 200.907 300.821 200.389C298.406 197.574 289.07 200.005 285.692 200.257C280.155 200.671 274.718 201.66 269.142 201.523ZM277.202 193.978C282.227 194.461 287.079 194.415 292.105 195.168C291.724 191.974 292.179 191.159 288.555 190.989C285.326 190.838 282.107 190.716 278.893 190.718C271.665 190.722 264.454 190.584 257.219 190.584V193.83C263.911 193.145 270.497 194.382 277.202 193.978ZM253.038 205.916C256.209 205.902 259.207 207.099 262.378 207.409C264.277 207.595 263.68 207.83 264.997 208.783C267.048 210.268 267.639 209.477 267.382 207.46C266.51 200.635 257.87 202.166 252.891 201.786C253.218 203.414 252.466 204.794 251.358 205.916H253.038ZM287.317 197.154C282.755 197.228 278.188 197.487 273.659 197.393C271.631 197.35 269.004 196.948 267.017 197.294C265.562 197.547 264.344 198.289 262.747 198.564C265.093 199.827 266.282 198.974 268.747 198.686C271.211 198.4 273.711 198.405 276.184 198.256C280.246 198.009 284.576 197.037 288.578 197.301C288.651 196.737 288.231 196.688 287.317 197.154ZM251.137 211.934C249.044 211.93 251.924 209.55 252.302 209.314C249.984 209.314 249.424 207.924 250.095 205.691C250.727 203.588 251.195 204.232 249.604 202.481C248.406 201.162 248.224 200.191 249.637 198.716C251.074 197.217 253.985 197.641 255.258 196.403C257.426 194.296 254.628 190.099 257.632 188.484C259.663 187.394 262.936 187.529 265.178 187.298C267.344 187.076 269.587 187.033 271.769 187.003C276.523 186.938 281.463 187.735 286.196 188.174C287.922 188.334 289.862 189.031 291.563 189.033C293.297 189.035 295.113 188.648 296.903 188.692C298.985 188.745 300.99 188.591 303.136 188.933C304.781 189.195 308.621 189.333 309.878 190.555C314.066 194.629 304.134 196.5 302.425 196.958C304.164 198.863 304.092 201.382 303.83 203.781C304.658 203.781 306.085 203.421 306.513 204.349C307.046 205.502 305.076 205.802 304.61 205.936C301.93 206.71 298.794 206.498 296.032 206.779C290.511 207.341 285.056 207.665 279.592 208.711C276.929 209.221 274.283 209.852 271.622 210.348C271.162 210.434 270.7 210.503 270.237 210.555C269.524 210.494 269.294 210.94 269.545 211.897C268.807 212.258 266.053 211.359 265.202 211.222C260.327 210.431 255.966 210.759 251.137 211.934Z" fill="#3F3F3F"/>
<path fill-rule="evenodd" clip-rule="evenodd" d="M349.57 259.269C346.426 261.743 343.504 264.078 340.099 266.228C342.506 266.153 350.51 262.314 349.57 259.269ZM348.342 255.237C346.627 253.762 344.922 253.913 342.798 253.466C340.842 253.054 338.942 252.346 336.99 251.874C335.458 251.504 333.942 251.003 332.415 250.654C330.26 250.16 330.047 250.703 328.065 251.833C321.036 255.839 313.17 258.595 305.765 261.846C307.939 263.76 312.83 263.843 315.547 264.453C317.53 264.898 319.418 265.507 321.318 266.211C323.087 266.868 325.938 268.379 327.803 268.429C329.378 268.472 330.659 266.922 332.015 266.087C333.798 264.989 335.574 263.91 337.371 262.838C341.176 260.572 344.732 257.794 348.342 255.237ZM316.575 271.464C315.763 270.683 313.32 270.717 312.303 270.479C310.299 270.011 308.324 269.524 306.293 269.172C302.997 268.602 297.791 268.347 297.433 264.071C297.135 260.518 301.428 259.674 303.939 258.471C307.716 256.659 311.569 254.988 315.441 253.391C319.071 251.894 322.755 250.628 326.452 249.335C327.173 249.082 327.758 249.117 328.346 248.54C328.811 248.085 328.667 247.201 329.176 246.725C330.342 245.635 331.853 246.208 333.254 246.488C336.434 247.122 339.735 247.955 342.767 249.132C345.918 250.354 348.736 250.61 349.492 254.181C351.103 253.425 352.315 253.316 352.122 255.537C352.066 256.189 351.592 256.899 351.478 257.572C351.311 258.564 351.604 259.61 351.438 260.605C350.835 264.221 345.958 266.901 342.936 268.321C339.21 270.072 334.402 272.66 330.241 273.001C325.808 273.366 320.976 271.625 316.575 271.464Z" fill="#3F3F3F"/>
<path fill-rule="evenodd" clip-rule="evenodd" d="M260.141 211.457C258.82 211.466 257.497 211.474 256.176 211.482C257.495 211.235 258.817 211.232 260.141 211.457Z" fill="#3F3F3F"/>
<path fill-rule="evenodd" clip-rule="evenodd" d="M182.815 71.6023C182.418 72.2629 182.022 72.9235 181.625 73.5851C181.76 72.7332 182.062 72.0032 182.815 71.6023Z" fill="#3F3F3F"/>
<path fill-rule="evenodd" clip-rule="evenodd" d="M260.141 230.411C260.935 230.419 261.73 230.425 262.52 230.432C261.724 230.426 260.932 230.419 260.141 230.411Z" fill="#3F3F3F"/>
<path fill-rule="evenodd" clip-rule="evenodd" d="M278.381 187.273C277.456 187.223 276.531 187.173 275.605 187.123C276.531 187.173 277.456 187.223 278.381 187.273Z" fill="#3F3F3F"/>
<path fill-rule="evenodd" clip-rule="evenodd" d="M262.52 211.477C261.727 211.47 260.933 211.462 260.141 211.455C260.937 211.238 261.73 211.245 262.52 211.477Z" fill="#3F3F3F"/>
<path fill-rule="evenodd" clip-rule="evenodd" d="M294.081 98.9645C294.058 98.1711 294.036 97.3776 294.014 96.5852C294.037 97.3792 294.058 98.1716 294.081 98.9645Z" fill="#3F3F3F"/>
<path fill-rule="evenodd" clip-rule="evenodd" d="M159.24 218.723C159.224 218.062 159.208 217.401 159.191 216.741C159.208 217.402 159.224 218.063 159.24 218.723Z" fill="#3F3F3F"/>
<path fill-rule="evenodd" clip-rule="evenodd" d="M180.83 186.404C181.361 186.404 181.89 186.404 182.416 186.406C181.885 186.406 181.358 186.404 180.83 186.404Z" fill="#3F3F3F"/>
<path fill-rule="evenodd" clip-rule="evenodd" d="M251.813 43.97C251.152 44.018 250.491 44.0655 249.83 44.1135C250.491 44.0655 251.152 44.018 251.813 43.97Z" fill="#3F3F3F"/>
<path fill-rule="evenodd" clip-rule="evenodd" d="M301.78 188.792C300.987 188.786 300.193 188.781 299.4 188.776C300.193 188.781 300.987 188.786 301.78 188.792Z" fill="#3F3F3F"/>
<path fill-rule="evenodd" clip-rule="evenodd" d="M234.989 237.758C234.969 237.229 234.949 236.699 234.93 236.172C234.949 236.702 234.969 237.23 234.989 237.758Z" fill="#3F3F3F"/>
<path fill-rule="evenodd" clip-rule="evenodd" d="M235.773 217.534C235.759 217.005 235.745 216.475 235.73 215.948C235.745 216.477 235.759 217.005 235.773 217.534Z" fill="#3F3F3F"/>
<path fill-rule="evenodd" clip-rule="evenodd" d="M222.242 226.655C222.261 227.184 222.281 227.714 222.299 228.241C222.28 227.711 222.261 227.183 222.242 226.655Z" fill="#3F3F3F"/>
<path fill-rule="evenodd" clip-rule="evenodd" d="M184.002 186.016C184.4 186.01 184.798 186.005 185.192 186C184.793 186.005 184.397 186.01 184.002 186.016Z" fill="#3F3F3F"/>
<path fill-rule="evenodd" clip-rule="evenodd" d="M299.004 206.655C299.401 206.638 299.799 206.62 300.194 206.603C299.795 206.62 299.399 206.638 299.004 206.655Z" fill="#3F3F3F"/>
<path fill-rule="evenodd" clip-rule="evenodd" d="M223.027 239.344C223.05 239.874 223.073 240.403 223.095 240.93C223.073 240.399 223.05 239.872 223.027 239.344Z" fill="#3F3F3F"/>
<path fill-rule="evenodd" clip-rule="evenodd" d="M265.535 236.568C265.509 237.098 265.482 237.627 265.455 238.155C265.482 237.625 265.509 237.097 265.535 236.568Z" fill="#3F3F3F"/>
<path fill-rule="evenodd" clip-rule="evenodd" d="M219.83 0.280811C219.27 0.209431 218.709 0.138646 218.148 0.0672668C218.704 0.19575 219.313 -0.280709 219.83 0.280811Z" fill="#3F3F3F"/>
<path fill-rule="evenodd" clip-rule="evenodd" d="M195.723 203.655C195.708 204.184 195.693 204.713 195.678 205.241C195.692 204.71 195.708 204.182 195.723 203.655Z" fill="#3F3F3F"/>
<path fill-rule="evenodd" clip-rule="evenodd" d="M161.638 252.034C161.611 251.505 161.584 250.976 161.557 250.448C161.584 250.977 161.611 251.505 161.638 252.034Z" fill="#3F3F3F"/>
<path fill-rule="evenodd" clip-rule="evenodd" d="M289.883 207.434C290.281 207.426 290.679 207.417 291.072 207.41C290.673 207.418 290.278 207.426 289.883 207.434Z" fill="#3F3F3F"/>
<path fill-rule="evenodd" clip-rule="evenodd" d="M155.248 111.258C155.251 111.787 155.254 112.317 155.256 112.844C155.253 112.314 155.251 111.786 155.248 111.258Z" fill="#3F3F3F"/>
<path fill-rule="evenodd" clip-rule="evenodd" d="M146.928 230.224C146.927 230.753 146.925 231.283 146.922 231.81C146.923 231.28 146.926 230.751 146.928 230.224Z" fill="#3F3F3F"/>
<path fill-rule="evenodd" clip-rule="evenodd" d="M245.763 227.051C245.749 227.581 245.735 228.11 245.72 228.637C245.502 228.094 245.527 227.567 245.763 227.051Z" fill="#3F3F3F"/>
<path fill-rule="evenodd" clip-rule="evenodd" d="M235.362 224.672C235.358 224.143 235.354 223.613 235.35 223.086C235.354 223.616 235.358 224.144 235.362 224.672Z" fill="#3F3F3F"/>
<path fill-rule="evenodd" clip-rule="evenodd" d="M316.451 271.647C316.849 271.658 317.247 271.669 317.641 271.68C317.241 271.669 316.846 271.658 316.451 271.647Z" fill="#3F3F3F"/>
<path fill-rule="evenodd" clip-rule="evenodd" d="M302.176 221.308C302.441 221.303 302.707 221.299 302.969 221.294C302.702 221.299 302.439 221.303 302.176 221.308Z" fill="#3F3F3F"/>
<path fill-rule="evenodd" clip-rule="evenodd" d="M292.262 222.492C292.528 222.491 292.793 222.49 293.055 222.49C292.789 222.491 292.525 222.491 292.262 222.492Z" fill="#3F3F3F"/>
<path fill-rule="evenodd" clip-rule="evenodd" d="M137.829 225.069C137.813 224.672 137.797 224.275 137.781 223.879C137.798 224.276 137.813 224.673 137.829 225.069Z" fill="#3F3F3F"/>
<path fill-rule="evenodd" clip-rule="evenodd" d="M300.194 224.768C299.849 225.116 299.406 224.91 299.004 224.933C299.401 224.877 299.797 224.823 300.194 224.768Z" fill="#3F3F3F"/>
<path fill-rule="evenodd" clip-rule="evenodd" d="M253.004 212.08C252.481 212.328 251.952 212.362 251.418 212.097C251.947 212.092 252.476 212.086 253.004 212.08Z" fill="#3F3F3F"/>
<path fill-rule="evenodd" clip-rule="evenodd" d="M287.502 225.67C286.973 225.666 286.444 225.661 285.916 225.656C286.445 225.661 286.974 225.666 287.502 225.67Z" fill="#3F3F3F"/>
<path fill-rule="evenodd" clip-rule="evenodd" d="M265.297 211.856C264.768 211.808 264.239 211.76 263.711 211.712C264.239 211.76 264.768 211.808 265.297 211.856Z" fill="#3F3F3F"/>
<path fill-rule="evenodd" clip-rule="evenodd" d="M144.164 210C144.154 210.397 144.144 210.794 144.133 211.189C144.143 210.791 144.153 210.395 144.164 210Z" fill="#3F3F3F"/>
<path fill-rule="evenodd" clip-rule="evenodd" d="M235.326 231.413C235.347 231.016 235.367 230.618 235.387 230.224C235.367 230.622 235.347 231.017 235.326 231.413Z" fill="#3F3F3F"/>
<path fill-rule="evenodd" clip-rule="evenodd" d="M289.883 208.545C289.355 208.589 288.825 208.634 288.297 208.678C288.826 208.634 289.355 208.589 289.883 208.545Z" fill="#3F3F3F"/>
<path fill-rule="evenodd" clip-rule="evenodd" d="M159.234 207.224C159.223 206.826 159.212 206.429 159.201 206.034C159.212 206.432 159.223 206.828 159.234 207.224Z" fill="#3F3F3F"/>
<path fill-rule="evenodd" clip-rule="evenodd" d="M225.488 176.689C225.457 177.086 225.425 177.483 225.395 177.879C225.426 177.481 225.457 177.085 225.488 176.689Z" fill="#3F3F3F"/>
<path fill-rule="evenodd" clip-rule="evenodd" d="M297.813 188.689C297.283 188.963 296.755 188.929 296.227 188.686C296.755 188.687 297.284 188.688 297.813 188.689Z" fill="#3F3F3F"/>
<path fill-rule="evenodd" clip-rule="evenodd" d="M234.996 243.707C234.972 243.309 234.949 242.913 234.926 242.517C234.949 242.915 234.972 243.31 234.996 243.707Z" fill="#3F3F3F"/>
<path fill-rule="evenodd" clip-rule="evenodd" d="M234.984 246.879C234.967 246.482 234.95 246.085 234.934 245.689C234.951 246.087 234.967 246.482 234.984 246.879Z" fill="#3F3F3F"/>
<path fill-rule="evenodd" clip-rule="evenodd" d="M160.004 194.534C160.01 194.137 160.015 193.739 160.021 193.344C160.015 193.742 160.009 194.138 160.004 194.534Z" fill="#3F3F3F"/>
<path fill-rule="evenodd" clip-rule="evenodd" d="M272.832 257.795C273.097 257.787 273.363 257.78 273.625 257.773C273.358 257.781 273.095 257.788 272.832 257.795Z" fill="#3F3F3F"/>
<path fill-rule="evenodd" clip-rule="evenodd" d="M144.974 261.155C144.953 260.758 144.932 260.361 144.91 259.965C144.932 260.362 144.953 260.759 144.974 261.155Z" fill="#3F3F3F"/>
<path fill-rule="evenodd" clip-rule="evenodd" d="M230.797 264.517C231.063 264.523 231.328 264.528 231.59 264.534C231.323 264.528 231.06 264.523 230.797 264.517Z" fill="#3F3F3F"/>
<path fill-rule="evenodd" clip-rule="evenodd" d="M288.297 188.447C287.769 188.407 287.239 188.367 286.711 188.327C287.239 188.367 287.769 188.407 288.297 188.447Z" fill="#3F3F3F"/>
<path fill-rule="evenodd" clip-rule="evenodd" d="M291.072 188.866L289.883 188.701L291.072 188.866Z" fill="#3F3F3F"/>
<path fill-rule="evenodd" clip-rule="evenodd" d="M230.961 230.62C230.984 229.43 231.005 228.24 231.028 227.051C231.005 228.241 230.983 229.431 230.961 230.62Z" fill="#3F3F3F"/>
<path fill-rule="evenodd" clip-rule="evenodd" d="M200.043 186.999C200.056 187.925 200.07 188.851 200.084 189.775C200.071 188.848 200.057 187.924 200.043 186.999Z" fill="#3F3F3F"/>
<path fill-rule="evenodd" clip-rule="evenodd" d="M131.659 245.082C130.997 245.09 130.334 245.098 129.676 245.107C130.34 245.099 130.999 245.09 131.659 245.082Z" fill="#3F3F3F"/>
<path fill-rule="evenodd" clip-rule="evenodd" d="M185.985 166.196C185.322 166.185 184.66 166.175 184.002 166.165C184.666 166.176 185.326 166.186 185.985 166.196Z" fill="#3F3F3F"/>
<path fill-rule="evenodd" clip-rule="evenodd" d="M168.934 181.647C169.595 181.646 170.256 181.646 170.916 181.645C170.255 181.645 169.595 181.646 168.934 181.647Z" fill="#3F3F3F"/>
<path fill-rule="evenodd" clip-rule="evenodd" d="M177.658 165.771C177.128 165.779 176.598 165.788 176.072 165.797C176.604 165.788 177.131 165.779 177.658 165.771Z" fill="#3F3F3F"/>
<path fill-rule="evenodd" clip-rule="evenodd" d="M134.83 245.099C134.3 245.096 133.77 245.093 133.244 245.09C133.776 245.094 134.303 245.096 134.83 245.099Z" fill="#3F3F3F"/>
<path fill-rule="evenodd" clip-rule="evenodd" d="M206.209 42.5243C206.87 42.4783 207.531 42.4327 208.192 42.3867C207.531 42.4327 206.87 42.4783 206.209 42.5243Z" fill="#3F3F3F"/>
<path fill-rule="evenodd" clip-rule="evenodd" d="M215.096 89.0506C215.12 88.3895 215.145 87.7284 215.169 87.0679C215.144 87.7295 215.12 88.3901 215.096 89.0506Z" fill="#3F3F3F"/>
<path fill-rule="evenodd" clip-rule="evenodd" d="M199.072 95.1968C198.675 95.1968 198.277 95.1972 197.883 95.1976C198.282 95.1976 198.677 95.1972 199.072 95.1968Z" fill="#3F3F3F"/>
<path fill-rule="evenodd" clip-rule="evenodd" d="M165.365 164.587C164.968 164.592 164.57 164.596 164.176 164.6C164.575 164.597 164.97 164.592 165.365 164.587Z" fill="#3F3F3F"/>
<path fill-rule="evenodd" clip-rule="evenodd" d="M156.244 180.788C156.773 180.831 157.302 180.874 157.83 180.917C157.301 180.874 156.773 180.831 156.244 180.788Z" fill="#3F3F3F"/>
<path fill-rule="evenodd" clip-rule="evenodd" d="M155.24 200.879C155.249 200.349 155.257 199.821 155.265 199.292C155.257 199.822 155.249 200.351 155.24 200.879Z" fill="#3F3F3F"/>
<path fill-rule="evenodd" clip-rule="evenodd" d="M200.656 179.741C201.185 179.689 201.714 179.637 202.242 179.585C201.714 179.637 201.185 179.689 200.656 179.741Z" fill="#3F3F3F"/>
<path fill-rule="evenodd" clip-rule="evenodd" d="M236.895 170.344C236.926 169.815 236.958 169.285 236.989 168.758C236.958 169.287 236.926 169.816 236.895 170.344Z" fill="#3F3F3F"/>
<path fill-rule="evenodd" clip-rule="evenodd" d="M243.883 97.2415C244.412 97.2002 244.94 97.159 245.469 97.1182C244.94 97.159 244.412 97.2002 243.883 97.2415Z" fill="#3F3F3F"/>
<path fill-rule="evenodd" clip-rule="evenodd" d="M189.951 166.583C189.554 166.579 189.155 166.575 188.762 166.571C189.161 166.575 189.556 166.579 189.951 166.583Z" fill="#3F3F3F"/>
<path fill-rule="evenodd" clip-rule="evenodd" d="M155.283 230.62C155.263 230.223 155.244 229.826 155.225 229.431C155.244 229.828 155.263 230.224 155.283 230.62Z" fill="#3F3F3F"/>
<path fill-rule="evenodd" clip-rule="evenodd" d="M199.743 210.396C200.61 212.545 200.123 211.023 200.146 211.519C199.407 211.619 199.273 211.244 199.743 210.396Z" fill="#3F3F3F"/>
<path fill-rule="evenodd" clip-rule="evenodd" d="M163.383 164.616C162.985 164.601 162.587 164.587 162.193 164.573C162.593 164.587 162.988 164.601 163.383 164.616Z" fill="#3F3F3F"/>
<path fill-rule="evenodd" clip-rule="evenodd" d="M244.438 124.344C244.462 123.815 244.488 123.286 244.512 122.758C244.487 123.287 244.462 123.815 244.438 124.344Z" fill="#3F3F3F"/>
<path fill-rule="evenodd" clip-rule="evenodd" d="M155.254 226.655C155.253 226.125 155.251 225.597 155.25 225.068C155.251 225.599 155.252 226.127 155.254 226.655Z" fill="#3F3F3F"/>
<path fill-rule="evenodd" clip-rule="evenodd" d="M155.211 214.758C155.238 214.361 155.266 213.964 155.294 213.568C155.266 213.966 155.238 214.362 155.211 214.758Z" fill="#3F3F3F"/>
<path fill-rule="evenodd" clip-rule="evenodd" d="M237.682 162.81C237.719 162.413 237.756 162.016 237.793 161.62C237.756 162.017 237.719 162.414 237.682 162.81Z" fill="#3F3F3F"/>
<path fill-rule="evenodd" clip-rule="evenodd" d="M150.045 215.948C150.08 216.345 150.116 216.742 150.151 217.137C150.116 216.741 150.08 216.344 150.045 215.948Z" fill="#3F3F3F"/>
<path fill-rule="evenodd" clip-rule="evenodd" d="M149.246 212.775C149.285 213.172 149.324 213.57 149.363 213.965C149.324 213.567 149.285 213.171 149.246 212.775Z" fill="#3F3F3F"/>
<path fill-rule="evenodd" clip-rule="evenodd" d="M228.57 158.447C228.6 158.051 228.629 157.654 228.659 157.258C228.629 157.655 228.6 158.051 228.57 158.447Z" fill="#3F3F3F"/>
<path fill-rule="evenodd" clip-rule="evenodd" d="M26.1738 212.243C26.7022 212.201 27.2311 212.159 27.76 212.118C27.23 212.16 26.7016 212.201 26.1738 212.243Z" fill="#3F3F3F"/>
<path fill-rule="evenodd" clip-rule="evenodd" d="M225.069 221.896C225.054 222.293 225.038 222.691 225.023 223.086C225.039 222.687 225.054 222.292 225.069 221.896Z" fill="#3F3F3F"/>
<path fill-rule="evenodd" clip-rule="evenodd" d="M231.348 223.086C231.377 222.689 231.406 222.292 231.436 221.896C231.406 222.293 231.377 222.689 231.348 223.086Z" fill="#3F3F3F"/>
<path fill-rule="evenodd" clip-rule="evenodd" d="M228.949 156.861C228.991 156.464 229.033 156.068 229.075 155.672C229.033 156.069 228.991 156.465 228.949 156.861Z" fill="#3F3F3F"/>
<path fill-rule="evenodd" clip-rule="evenodd" d="M29.3477 211.862C29.8766 211.81 30.4055 211.758 30.9339 211.706C30.4055 211.758 29.876 211.81 29.3477 211.862Z" fill="#3F3F3F"/>
<path fill-rule="evenodd" clip-rule="evenodd" d="M197.486 166.176C197.221 166.179 196.955 166.182 196.693 166.185C196.96 166.182 197.223 166.179 197.486 166.176Z" fill="#3F3F3F"/>
<path fill-rule="evenodd" clip-rule="evenodd" d="M155.254 211.189C155.253 210.792 155.251 210.395 155.25 210C155.251 210.397 155.253 210.793 155.254 211.189Z" fill="#3F3F3F"/>
<path fill-rule="evenodd" clip-rule="evenodd" d="M232.214 210.396C232.073 209.986 232.004 209.582 232.275 209.206C232.255 209.604 232.234 210 232.214 210.396Z" fill="#3F3F3F"/>
<path fill-rule="evenodd" clip-rule="evenodd" d="M225.459 202.861C225.448 203.258 225.436 203.656 225.426 204.051C225.437 203.653 225.448 203.257 225.459 202.861Z" fill="#3F3F3F"/>
<path fill-rule="evenodd" clip-rule="evenodd" d="M225.801 242.12C225.825 242.517 225.85 242.914 225.875 243.31C225.85 242.913 225.825 242.516 225.801 242.12Z" fill="#3F3F3F"/>
<path fill-rule="evenodd" clip-rule="evenodd" d="M254.984 97.8884C255.381 97.9451 255.778 98.0018 256.174 98.0578C255.777 98.001 255.381 97.9447 254.984 97.8884Z" fill="#3F3F3F"/>
<path fill-rule="evenodd" clip-rule="evenodd" d="M253.401 97.9252C253.933 97.9574 254.517 97.7016 254.987 98.0763L253.401 97.9252Z" fill="#3F3F3F"/>
<path fill-rule="evenodd" clip-rule="evenodd" d="M185.59 181.65C186.119 181.647 186.648 181.645 187.176 181.642C186.647 181.645 186.119 181.647 185.59 181.65Z" fill="#3F3F3F"/>
<path fill-rule="evenodd" clip-rule="evenodd" d="M197.484 97.5076L199.071 97.6452C198.541 97.5992 198.013 97.5536 197.484 97.5076Z" fill="#3F3F3F"/>
<path fill-rule="evenodd" clip-rule="evenodd" d="M171.312 181.542C171.842 181.545 172.37 181.547 172.899 181.549C172.368 181.805 171.839 181.83 171.312 181.542Z" fill="#3F3F3F"/>
<path fill-rule="evenodd" clip-rule="evenodd" d="M156.884 248.069C156.854 247.671 156.824 247.274 156.793 246.879C156.824 247.277 156.854 247.672 156.884 248.069Z" fill="#3F3F3F"/>
<path fill-rule="evenodd" clip-rule="evenodd" d="M214.727 98.1713C214.733 97.7741 214.738 97.3774 214.744 96.9817C214.738 97.3794 214.733 97.7757 214.727 98.1713Z" fill="#3F3F3F"/>
<path fill-rule="evenodd" clip-rule="evenodd" d="M181.227 181.71C181.756 181.667 182.284 181.625 182.813 181.582C182.284 181.625 181.756 181.667 181.227 181.71Z" fill="#3F3F3F"/>
<path fill-rule="evenodd" clip-rule="evenodd" d="M226.223 251.637C226.231 252.034 226.24 252.432 226.249 252.827C226.24 252.429 226.231 252.034 226.223 251.637Z" fill="#3F3F3F"/>
<path fill-rule="evenodd" clip-rule="evenodd" d="M227.623 88.1347C228.152 88.0844 228.681 88.034 229.209 87.9836C228.681 88.034 228.152 88.0844 227.623 88.1347Z" fill="#3F3F3F"/>
<path fill-rule="evenodd" clip-rule="evenodd" d="M234.508 189.379C234.544 188.982 234.581 188.585 234.616 188.189C234.58 188.586 234.544 188.982 234.508 189.379Z" fill="#3F3F3F"/>
<path fill-rule="evenodd" clip-rule="evenodd" d="M252.76 83.4987C252.79 83.1016 252.82 82.7049 252.851 82.3091C252.82 82.7063 252.79 83.1025 252.76 83.4987Z" fill="#3F3F3F"/>
<path fill-rule="evenodd" clip-rule="evenodd" d="M215.121 49.3953C215.129 49.7921 215.136 50.1895 215.144 50.5849C215.137 50.1871 215.129 49.7912 215.121 49.3953Z" fill="#3F3F3F"/>
<path fill-rule="evenodd" clip-rule="evenodd" d="M201.055 41.9929C201.583 42.0369 202.113 42.0814 202.641 42.125C202.112 42.081 201.583 42.0369 201.055 41.9929Z" fill="#3F3F3F"/>
<path fill-rule="evenodd" clip-rule="evenodd" d="M121.744 267.379C122.273 267.327 122.801 267.276 123.33 267.224C122.801 267.276 122.273 267.328 121.744 267.379Z" fill="#3F3F3F"/>
<path fill-rule="evenodd" clip-rule="evenodd" d="M201.848 38.0938C201.582 38.0934 201.316 38.093 201.055 38.093C201.321 38.0938 201.585 38.0938 201.848 38.0938Z" fill="#3F3F3F"/>
<path fill-rule="evenodd" clip-rule="evenodd" d="M104.297 272.544C104.826 272.271 105.354 272.349 105.883 272.546C105.354 272.545 104.825 272.545 104.297 272.544Z" fill="#3F3F3F"/>
<path fill-rule="evenodd" clip-rule="evenodd" d="M310.107 249.527C311.033 249.48 311.958 249.433 312.883 249.385C311.958 249.433 311.033 249.48 310.107 249.527Z" fill="#3F3F3F"/>
<path fill-rule="evenodd" clip-rule="evenodd" d="M310.108 242.697C309.577 242.709 309.047 242.721 308.521 242.733C309.053 242.721 309.58 242.709 310.108 242.697Z" fill="#3F3F3F"/>
<path fill-rule="evenodd" clip-rule="evenodd" d="M302.176 234.832C302.837 234.782 303.498 234.731 304.158 234.681C303.542 235.068 302.837 234.782 302.176 234.832Z" fill="#3F3F3F"/>
<path fill-rule="evenodd" clip-rule="evenodd" d="M294.641 235.649C295.302 235.601 295.962 235.553 296.623 235.505C295.963 235.553 295.302 235.601 294.641 235.649Z" fill="#3F3F3F"/>
<path fill-rule="evenodd" clip-rule="evenodd" d="M283.539 242.777C284.068 242.736 284.597 242.694 285.125 242.653C284.597 242.694 284.068 242.736 283.539 242.777Z" fill="#3F3F3F"/>
<path fill-rule="evenodd" clip-rule="evenodd" d="M286.312 242.778C286.841 242.736 287.37 242.694 287.899 242.652C287.37 242.694 286.841 242.736 286.312 242.778Z" fill="#3F3F3F"/>
<path fill-rule="evenodd" clip-rule="evenodd" d="M288.297 242.389C288.825 242.342 289.354 242.295 289.883 242.248C289.355 242.295 288.826 242.342 288.297 242.389Z" fill="#3F3F3F"/>
<path fill-rule="evenodd" clip-rule="evenodd" d="M291.072 228.832C290.675 228.835 290.277 228.838 289.883 228.839C290.282 228.836 290.677 228.834 291.072 228.832Z" fill="#3F3F3F"/>
<path fill-rule="evenodd" clip-rule="evenodd" d="M300.984 250.679C301.513 250.634 302.042 250.589 302.571 250.545C302.077 250.891 301.52 250.692 300.984 250.679Z" fill="#3F3F3F"/>
<path fill-rule="evenodd" clip-rule="evenodd" d="M285.916 218.998C286.444 218.947 286.973 218.897 287.502 218.846C286.973 218.897 286.444 218.947 285.916 218.998Z" fill="#3F3F3F"/>
<path fill-rule="evenodd" clip-rule="evenodd" d="M283.936 212.578C283.538 212.577 283.14 212.577 282.746 212.576C283.146 212.577 283.541 212.577 283.936 212.578Z" fill="#3F3F3F"/>
<path fill-rule="evenodd" clip-rule="evenodd" d="M279.969 213.368C279.703 213.37 279.438 213.371 279.176 213.372C279.443 213.371 279.706 213.37 279.969 213.368Z" fill="#3F3F3F"/>
<path fill-rule="evenodd" clip-rule="evenodd" d="M270.451 214.473C270.318 214.799 269.617 214.757 269.66 214.423C269.924 214.439 270.187 214.456 270.451 214.473Z" fill="#3F3F3F"/>
<path fill-rule="evenodd" clip-rule="evenodd" d="M251.988 215.948C252.005 216.344 252.021 216.742 252.037 217.137C252.02 216.74 252.005 216.343 251.988 215.948Z" fill="#3F3F3F"/>
<path fill-rule="evenodd" clip-rule="evenodd" d="M306.141 218.05C306.537 218.043 306.934 218.037 307.33 218.03C306.939 218.31 306.541 218.271 306.141 218.05Z" fill="#3F3F3F"/>
<path fill-rule="evenodd" clip-rule="evenodd" d="M291.07 212.175C290.805 212.179 290.54 212.183 290.277 212.186C290.544 212.182 290.807 212.179 291.07 212.175Z" fill="#3F3F3F"/>
<path fill-rule="evenodd" clip-rule="evenodd" d="M280.762 237.237C281.291 237.188 281.82 237.139 282.348 237.089C281.819 237.139 281.291 237.188 280.762 237.237Z" fill="#3F3F3F"/>
<path fill-rule="evenodd" clip-rule="evenodd" d="M274.416 238.026L276.002 237.887L274.416 238.026Z" fill="#3F3F3F"/>
<path fill-rule="evenodd" clip-rule="evenodd" d="M305.348 249.928C305.876 249.878 306.405 249.828 306.934 249.779C306.405 249.828 305.876 249.878 305.348 249.928Z" fill="#3F3F3F"/>
<path fill-rule="evenodd" clip-rule="evenodd" d="M286.312 252.315C286.842 252.121 287.372 252.055 287.899 252.32C287.37 252.318 286.841 252.317 286.312 252.315Z" fill="#3F3F3F"/>
<path fill-rule="evenodd" clip-rule="evenodd" d="M285.472 197.654L284.727 197.396C285.652 197.385 286.577 197.373 287.502 197.362C287.505 197.362 285.579 197.662 285.472 197.654Z" fill="#3F3F3F"/>
<path fill-rule="evenodd" clip-rule="evenodd" d="M278.381 190.767C277.719 190.767 277.056 190.766 276.398 190.766C277.062 190.767 277.722 190.767 278.381 190.767Z" fill="#3F3F3F"/>
<path fill-rule="evenodd" clip-rule="evenodd" d="M253.401 205.926C254.06 205.662 254.721 205.713 255.383 205.918C254.722 205.921 254.062 205.923 253.401 205.926Z" fill="#3F3F3F"/>
<path fill-rule="evenodd" clip-rule="evenodd" d="M293.451 199.484C293.053 199.488 292.656 199.493 292.262 199.498C292.661 199.493 293.056 199.488 293.451 199.484Z" fill="#3F3F3F"/>
<path fill-rule="evenodd" clip-rule="evenodd" d="M285.125 194.271C285.786 194.314 286.448 194.357 287.108 194.4C286.447 194.357 285.786 194.314 285.125 194.271Z" fill="#3F3F3F"/>
<path fill-rule="evenodd" clip-rule="evenodd" d="M276.797 198.371C277.458 198.325 278.119 198.278 278.78 198.231C278.119 198.278 277.458 198.325 276.797 198.371Z" fill="#3F3F3F"/>
<path fill-rule="evenodd" clip-rule="evenodd" d="M281.951 197.575C282.48 197.53 283.008 197.485 283.537 197.441C283.008 197.485 282.48 197.53 281.951 197.575Z" fill="#3F3F3F"/>
<path fill-rule="evenodd" clip-rule="evenodd" d="M277.59 193.874C278.119 193.917 278.647 193.961 279.176 194.004C278.647 193.96 278.118 193.917 277.59 193.874Z" fill="#3F3F3F"/>
<path fill-rule="evenodd" clip-rule="evenodd" d="M270.055 201.482C269.789 201.476 269.524 201.471 269.262 201.465C269.528 201.471 269.792 201.476 270.055 201.482Z" fill="#3F3F3F"/>
<path fill-rule="evenodd" clip-rule="evenodd" d="M278.383 197.533C278.117 197.516 277.852 197.5 277.59 197.483C277.856 197.499 278.119 197.516 278.383 197.533Z" fill="#3F3F3F"/>
<path fill-rule="evenodd" clip-rule="evenodd" d="M273.227 197.519C272.961 197.511 272.695 197.504 272.434 197.497C272.7 197.505 272.963 197.512 273.227 197.519Z" fill="#3F3F3F"/>
<path fill-rule="evenodd" clip-rule="evenodd" d="M287.502 197.15C287.502 197.253 288.696 196.732 288.692 197.216L287.502 197.15Z" fill="#3F3F3F"/>
<path fill-rule="evenodd" clip-rule="evenodd" d="M283.141 190.766C282.875 190.766 282.61 190.767 282.348 190.767C282.615 190.767 282.877 190.766 283.141 190.766Z" fill="#3F3F3F"/>
<path fill-rule="evenodd" clip-rule="evenodd" d="M142.363 171.961C142.793 170.208 142.676 168.837 144.205 169.957C145.044 170.572 146.428 173.689 146.323 174.745C146.194 176.048 145.6 176.567 144.374 176.153C142.964 175.675 142.405 173.271 142.363 171.961Z" fill="#3F3F3F"/>
<path fill-rule="evenodd" clip-rule="evenodd" d="M219.625 161.321C223.176 161.321 221.627 165.101 218.666 165.185C217.306 165.224 215.349 164.956 215.79 163.135C216.026 162.163 219.476 160.853 219.625 161.321Z" fill="#3F3F3F"/>
<path fill-rule="evenodd" clip-rule="evenodd" d="M181.534 168.758C184.098 169.998 180.491 175.445 178.161 174.097C175.178 172.371 180.48 169.535 181.534 168.758Z" fill="#3F3F3F"/>
<path fill-rule="evenodd" clip-rule="evenodd" d="M175.295 173.913C176.134 174.828 179.916 177.932 177.831 179.179C175.268 180.714 173.317 175.648 175.295 173.913Z" fill="#3F3F3F"/>
<path fill-rule="evenodd" clip-rule="evenodd" d="M132.324 171.534C131.49 169.921 132.637 165.7 135.184 166.472C137.746 167.248 133.734 171.105 132.324 171.534Z" fill="#3F3F3F"/>
<path fill-rule="evenodd" clip-rule="evenodd" d="M188.895 172.463C190.557 171.794 190.241 173.775 190.492 174.413C190.777 175.139 192.241 176.907 191.874 177.679C191.329 178.826 190.026 178.095 189.319 177.351C188.079 176.046 188.167 173.953 188.895 172.463Z" fill="#3F3F3F"/>
<path fill-rule="evenodd" clip-rule="evenodd" d="M163.556 174.299C162.17 174.299 158.862 170.303 160.806 169.633C163.218 168.801 165.236 174.593 163.556 174.299Z" fill="#3F3F3F"/>
<path fill-rule="evenodd" clip-rule="evenodd" d="M211.448 167.965C212.717 168.278 214.397 171.871 212.484 172.288C210.366 172.75 209.988 168.959 211.448 167.965Z" fill="#3F3F3F"/>
<path fill-rule="evenodd" clip-rule="evenodd" d="M203.754 174.706C202.758 172.789 202.513 168.686 204.944 171.979C205.47 172.693 206.014 172.404 205.743 173.581C205.507 174.609 204.564 174.706 203.754 174.706Z" fill="#3F3F3F"/>
<path fill-rule="evenodd" clip-rule="evenodd" d="M151.32 164.792C152.335 166.319 152.035 171.108 149.915 168.276C149.014 167.072 149.635 164.849 151.32 164.792Z" fill="#3F3F3F"/>
<path fill-rule="evenodd" clip-rule="evenodd" d="M202.319 20.8821C204.287 20.3739 204.759 25.0147 203.611 25.5263C202.004 26.2422 202.205 21.6584 202.319 20.8821Z" fill="#3F3F3F"/>
<path fill-rule="evenodd" clip-rule="evenodd" d="M326.824 256.654C324.997 256.547 322.438 256.049 325.205 254.752C326.961 253.931 329.572 253.873 331.425 254.21C332.703 254.443 334.621 255.502 332.671 256.875C331.529 257.678 328.212 256.693 326.824 256.654Z" fill="#3F3F3F"/>
<path fill-rule="evenodd" clip-rule="evenodd" d="M324.777 259.965C324.248 259.906 323.721 259.846 323.193 259.787C323.617 259.018 324.848 258.857 324.777 259.965Z" fill="#3F3F3F"/>
<path fill-rule="evenodd" clip-rule="evenodd" d="M327.158 256.577C327.688 256.589 328.218 256.601 328.744 256.612C328.213 256.6 327.685 256.589 327.158 256.577Z" fill="#3F3F3F"/>
</svg>
