<svg width="320" height="266" viewBox="0 0 320 266" fill="none" xmlns="http://www.w3.org/2000/svg">
<path fill-rule="evenodd" clip-rule="evenodd" d="M99.9219 120.514C101.083 133.2 102.244 145.887 103.406 158.574C109.728 154.67 116.05 150.766 122.372 146.863V175.765V183.362C122.372 184.035 122.003 186.344 122.372 186.926C122.685 187.419 125.002 187.434 125.549 187.517C129.124 188.058 132.707 188.54 136.295 188.969C145.753 190.099 155.875 191.718 165.368 190.42C173.62 189.291 181.619 186.115 189.159 182.419C191.806 181.122 194.416 179.733 196.977 178.249C197.52 177.935 199.491 177.192 199.787 176.552C200.028 176.029 199.462 174.19 199.387 173.64C199.068 171.322 198.749 169.004 198.431 166.686L193.981 134.316L202.387 143.398C203.045 144.109 204.296 146.129 205.207 146.445C205.875 146.676 207.529 145.96 208.189 145.823C212.949 144.83 217.708 143.838 222.468 142.846C223.576 142.614 226.075 142.623 227.01 141.898C227.513 141.508 227.537 140.714 227.714 139.961C228.875 135.04 230.036 130.119 231.197 125.198C231.406 124.312 232.573 121.517 232.276 120.625C232.17 120.305 231.655 120.086 231.34 119.877C224.157 115.13 216.973 110.383 209.79 105.635C205.855 103.035 201.92 100.434 197.985 97.8334C196.337 96.7438 194.312 94.781 192.444 94.1716C191.285 93.7931 189.598 94.0767 188.398 94.0395C185.96 93.9642 183.522 93.8889 181.084 93.8136C180.702 93.8019 179.365 93.5075 179.044 93.7509C178.777 93.9533 178.887 94.2356 178.8 94.7183C178.586 95.8969 178.584 97.1679 178.478 98.3645C178.394 99.3248 178.562 101.086 178.162 101.955C177.907 102.51 178.231 102.289 177.885 102.557C177.473 102.877 176.16 102.774 175.67 102.836C173.281 103.136 170.892 103.436 168.503 103.736C165.662 104.093 162.79 104.763 159.936 104.455C155.61 103.987 150.945 104.01 146.697 103.024C145.593 102.768 145.195 102.095 144.344 101.175C142.681 99.3788 141.036 97.5619 139.356 95.7848C138.532 94.914 138.885 95.0616 138.036 95.3921C136.972 95.8057 135.893 96.8045 134.929 97.4394C131.239 99.8715 127.549 102.304 123.859 104.736L101.332 119.584C100.862 119.894 100.392 120.204 99.9219 120.514Z" fill="#FFCDD6"/>
<path fill-rule="evenodd" clip-rule="evenodd" d="M315.394 122.091C310.75 141.168 301.41 161.97 282.593 168.05C278.018 169.529 273.568 170.645 268.816 170.082C268.364 170.028 267.986 170.097 267.555 170.106C266.785 170.122 267.45 170.421 266.586 170.133C265.912 169.907 265.281 169.344 264.579 169.095C262.712 168.434 260.721 168.306 258.824 167.772C254.161 166.46 249.356 164.839 244.838 163.029C242.71 162.177 240.755 160.99 238.754 159.848C236.72 158.688 234.564 157.968 232.507 156.904C230.882 156.062 228.097 154.966 226.954 153.388C225.735 151.706 227.421 148.123 227.903 146.335C229.542 140.248 231.494 134.25 232.726 128.042C236.979 133.376 242.882 136.679 248.993 138.809C252.309 139.965 255.72 140.801 259.169 141.324C262.3 141.798 265.679 142.373 268.817 141.699C271.187 141.19 274.161 140.012 275.853 138.055C276.457 137.356 277.182 136.075 276.843 135.061C276.414 133.772 275.162 134.379 274.485 133.417C273.895 132.58 273.988 130.621 273.799 129.601C273.467 127.797 273.01 126.041 272.452 124.304C271.37 120.931 270.02 117.55 269.697 113.961C269.416 110.847 270.072 107.902 271.507 105.2C272.185 103.922 273.889 100.447 275.552 100.592C277.378 100.75 274.916 109.077 274.835 110.776C274.516 117.51 275.351 124.685 278.544 130.587C279.767 132.847 281.535 135.478 284.145 135.758C286.911 136.054 289.141 133.7 290.457 131.318C293.669 125.507 292.049 117.533 290.423 111.442C288.428 103.97 283.221 98.8192 279.928 92.1082C284.844 92.643 287.476 96.0219 289.999 100.309C292.777 105.029 294.939 110.696 296.005 116.188C296.544 118.962 296.172 121.749 296.175 124.551C296.177 125.481 296.176 128.916 297.579 128.78C299.078 128.636 299.592 124.763 299.812 123.581C300.318 120.871 300.864 118.161 301.303 115.437C302.08 110.618 302.425 105.683 303.355 100.898C303.512 100.089 303.825 97.8447 304.944 98.4508C305.807 98.9173 305.669 102.388 305.7 103.195C305.778 105.184 305.887 107.172 305.901 109.162C305.924 112.112 305.38 115.165 305.647 118.097C305.821 120.013 306.771 122.129 307.949 119.546C309.117 116.984 309.355 113.788 310.006 111.033C310.691 108.14 311.397 105.205 312.849 102.635C313.252 101.922 313.685 100.791 314.58 101.126C315.23 101.37 315.71 103.038 315.911 103.627C316.819 106.288 316.665 109.246 316.607 112.031C316.537 115.444 316.199 118.782 315.394 122.091ZM224.839 127.041C224.591 126.955 223.537 126.846 223.275 126.822C222.969 126.793 223.316 126.182 222.575 126.356C222.718 126.74 222.972 126.996 223.338 127.124C222.223 127.533 221.4 126.525 220.638 126.395C219.908 126.271 219.877 126.395 219.157 127.228C218.377 126.199 218.523 126.841 217.882 126.841C217.649 126.842 217.639 127.223 217.259 127.178C216.927 127.137 216.892 126.593 216.696 126.529C215.632 126.181 214.537 127.934 213.33 126.413C213.038 127.996 209.687 126.013 208.397 126.292C207.046 126.582 207.629 127.107 206.537 126.211C205.496 125.357 205.786 125.924 204.576 126.623C204.604 126.606 203.893 127.126 203.959 127.135C203.121 127.029 203.168 126.091 202.107 126.141C200.984 126.194 200.504 127.147 199.476 125.974C199.253 126.852 199.207 126.474 198.68 126.695C198.39 126.77 198.137 126.687 197.919 126.448C197.854 126.69 197.709 126.838 197.485 126.892C196.911 126.948 195.834 127.034 195.313 126.735C194.531 126.287 195.16 126.114 194.617 125.61C194.374 127.001 193.842 126.705 192.718 126.835C191.861 126.935 191.672 126.65 190.854 126.512C190.048 126.375 189.006 126.714 188.219 126.858C187.895 126.918 187.46 127.163 187.129 127.077C186.831 126.999 186.704 126.749 186.526 126.684C186.31 126.605 186.356 126.401 185.983 126.302C185.725 126.234 185.265 126.495 185.007 126.54C183.174 126.862 181.413 126.865 179.664 126.085C180.525 127.723 177.651 126.839 177.138 126.16C176.497 127.246 175.722 126.48 174.431 126.564C173.188 126.646 171.317 127.058 170.813 125.383C170.715 125.723 170.009 126.712 169.728 126.862C168.913 127.3 168.816 126.653 168.058 126.39C167.027 126.031 167.242 126.712 166.602 126.85C165.523 127.084 164.939 126.261 163.985 125.824C163.944 126.504 163.924 126.922 163.38 127.345C162.899 125.45 161.182 127.5 161.477 124.967C160.824 125.427 159.904 125.781 159.718 126.712C160.811 126.386 159.835 127.159 159.789 127.185C159.645 127.266 159.157 126.525 159.044 126.421C159.013 126.771 158.982 127.12 158.951 127.47C158.516 127.234 158.107 126.813 157.754 126.601C157.436 126.411 157.892 126.015 157.354 125.988C157.07 125.973 156.775 126.637 156.477 126.694C156.022 126.78 156.241 126.074 156.051 126.098C155.761 126.134 155.288 126.593 155.069 126.584C154.35 126.555 154.836 126.193 154.288 126.027C153.307 125.73 153.37 126.424 152.665 126.674C151.052 127.247 151.214 124.611 149.574 126.369C149.181 126.79 148.928 127.44 148.391 127.403C147.277 127.328 147.668 125.899 147.894 125.2C148.128 125.325 143.825 127.716 143.86 127.623C143.887 127.049 144.563 126.607 143.959 126.098C143.464 127.246 142.944 127.266 141.803 127.479C141.249 127.583 141.14 127.722 140.547 127.473C140.169 127.314 139.915 126.662 139.539 126.626C139.59 126.631 138.9 127.199 138.795 127.25C138.172 127.554 137.779 127.209 137.174 127.334C136.658 127.441 136.455 127.915 135.942 127.785C135.257 127.612 135.66 126.727 134.718 126.974C134.395 127.059 134.202 127.73 133.694 127.869C132.904 128.085 131.934 127.681 131.099 127.892C130.435 128.06 129.943 128.131 129.362 128.165C128.894 128.194 129.086 127.8 128.224 128.265L127.858 127.267C127.426 127.688 126.994 128.108 126.562 128.528C126.48 128.151 126.428 127.77 126.406 127.383C125.762 128.082 124.951 128.201 124.085 128.264C123.147 128.331 122.448 128.553 121.536 128.738C121.248 128.797 120.505 128.89 120.268 128.781C120.302 128.797 119.824 128.582 119.968 128.623C119.906 128.486 119.848 128.347 119.795 128.205C119.714 127.811 119.452 127.794 119.01 128.153C118.781 128.115 118.337 127.79 118.109 127.87C117.521 128.076 117.601 128.57 117.014 128.498C116.634 128.45 116.44 127.842 116.044 127.801C115.437 127.738 114.912 128.472 114.366 128.632C116.027 128.145 112.212 128.523 113.398 128.557C112.62 128.535 111.813 128.493 111.094 128.87C110.697 128.576 111.179 127.986 110.778 127.743C110.414 127.522 110.386 128.104 110.344 128.117C110.573 128.047 110.458 128.542 110.229 128.63C109.513 128.905 108.94 128.207 108.903 127.515C108.295 128.505 108.124 128.107 107.23 128.168C106.348 128.228 105.587 128.729 104.705 128.72C102.96 128.702 101.775 128.045 101.193 126.359C103.053 126.604 104.924 125.31 106.743 125.615C107.34 125.715 107.714 126.201 108.237 126.115C108.882 126.009 109.333 125.247 110.16 125.165C111.984 124.984 113.783 125.16 115.62 124.858C117.814 124.496 120.104 124.282 122.319 124.458C124.031 124.594 125.417 123.886 127.153 123.75C129.398 123.573 131.661 123.541 133.91 123.414C136.22 123.283 138.706 122.884 141.009 123.012C141.729 123.051 142.348 123.128 143.061 123.081C143.363 123.061 143.649 122.84 143.966 122.873C144.378 122.916 144.556 123.373 144.983 123.357C145.711 123.33 146.488 122.682 147.352 122.664C148.774 122.635 150.189 122.638 151.614 122.551C152.868 122.474 154.212 122.157 155.461 122.174C156.342 122.186 156.559 122.998 157.073 123.082C157.996 123.232 162.665 120.357 163.069 122.938C165.5 121.138 168.76 122.662 171.466 122.324C174.942 121.889 178.482 122.276 181.982 122.122C185.543 121.964 189.207 122.11 192.754 122.473C194.223 122.624 195.643 122.765 197.117 122.674C197.773 122.633 198.532 122.452 199.189 122.615C199.348 122.655 200.567 123.575 200.415 123.602C201.081 122.955 200.63 122.861 201.801 122.828C202.703 122.802 203.557 123.013 204.454 123.07C206.065 123.173 207.687 122.932 209.294 122.985C210.636 123.03 211.948 123.244 213.296 123.254C214.75 123.265 216.467 123.31 217.519 124.578C217.408 124.18 217.297 123.782 217.186 123.384C218.809 123.521 220.413 124.148 222.053 123.855C221.638 124.285 221.217 124.636 221.058 125.267C221.943 125.146 222.542 124.478 223.473 124.472C224.256 124.467 224.419 124.892 225.245 124.343C225.346 125.015 225.448 125.688 225.549 126.359C226.693 126.068 225.943 125.145 226.026 124.313C226.956 124.616 227.743 124.268 227.377 125.716C227.094 126.831 225.807 127.381 224.839 127.041ZM223.231 139.47C222.832 140.682 219.382 139.989 218.566 139.861C217.512 139.696 216.306 139.434 215.336 139.304C215.219 139.136 215.079 138.994 214.917 138.876C214.795 139.06 214.64 139.191 214.453 139.268C214.008 139.373 214.006 139.871 213.421 139.761C213.393 140.498 213.866 140.079 214.229 140.347C213.316 141.009 213.733 140.246 213.221 140.259C213.094 140.064 212.917 139.987 212.691 140.029C212.402 140.11 212.136 140.244 211.892 140.43C211.664 140.691 211.469 140.704 211.306 140.471C211.15 140.301 210.96 140.196 210.735 140.157C209.835 140.315 209.584 140.747 208.571 140.676C207.124 140.575 205.558 140.988 204.134 140.771C203.251 140.636 201.776 139.135 201.375 140.598C200.764 139.514 199.792 138.776 199.208 137.667C201.93 137.497 204.651 137.294 207.376 137.188C209.761 137.095 212.371 137.385 214.6 137.264C216.688 137.15 218.9 136.9 221.032 136.694C223.292 136.475 224.04 137.012 223.231 139.47ZM152.213 139.649C153.201 139.945 154.143 139.274 155.101 139.486C155.418 139.556 156.074 140.18 156.219 140.192C156.482 140.215 157.258 139.602 157.591 139.52C159.697 139.002 162.248 139.057 164.353 139.375C165.468 139.544 165.639 138.992 166.613 138.723C167.625 138.444 169.064 138.659 170.129 138.582C172.636 138.401 175.142 138.53 177.632 138.331C180.189 138.128 182.733 138.017 185.29 137.875C187.032 137.778 191.219 136.703 192.663 138.102C193.854 139.256 192.32 141.259 191.128 141.717C190.238 142.058 189.811 141.339 189.15 141.407C188.397 141.485 188.659 142.448 187.987 141.555C187.571 142.443 184.954 142.065 184.203 142.123C182.569 142.251 181.186 142.606 180.073 140.956C180.149 141.432 180.224 141.908 180.3 142.383C178.824 141.53 177.241 141.803 175.96 142.101C175.325 142.248 173.379 143.266 172.692 142.827C172.219 142.525 173.052 142.009 172.254 141.751C171.836 141.616 171.115 142.367 170.604 142.329C169.19 142.224 169.592 141.196 168.203 142.505C167.733 142.065 167.576 141.316 167.638 140.675C166.63 141.606 166.714 143.157 164.911 142.873C164.239 142.767 164.115 142.026 163.765 141.889C163.019 141.597 162.934 142.122 162.287 142.536C162.043 142.693 161.746 142.945 161.458 142.976C160.868 143.04 160.774 142.746 160.694 142.756C160.301 142.803 159.806 143.019 159.34 142.865C158.922 142.726 158.799 141.927 158.062 142.114C157.357 142.293 157.351 142.811 157.479 143.587C156.784 143.509 156.363 143.09 155.843 142.636C155.318 143.962 154.212 142.864 153.6 143.982C152.803 142.953 152.292 143.236 151.304 142.231C151.352 142.65 151.401 143.07 151.449 143.49C150.678 143.329 150.335 142.74 149.677 143.519C149.038 142.231 147.101 144.066 146.106 142.822C145.663 144.397 142.729 144.021 141.49 144.048C140.392 144.072 139.58 143.975 138.507 144.251C137.559 144.495 136.245 144.747 135.353 144.636C134.77 144.563 134.134 144.447 133.408 144.533C132.361 144.656 131.458 145.241 130.374 144.964C128.741 144.547 127.741 142.227 129.559 141.208C130.803 140.511 133.044 140.769 134.413 140.64C136.682 140.427 139.225 139.98 141.497 140.183C143.27 140.342 144.885 139.884 146.693 139.691C148.054 139.546 150.285 139.284 151.173 140.743C151.514 140.317 151.479 139.429 152.213 139.649ZM127.374 159.633C127.13 158.319 137.504 157.596 138.533 157.511C140.695 157.33 142.863 157.202 145.029 157.142C146.811 157.093 148.473 157.461 150.255 157.165C151.918 156.889 153.927 156.323 155.375 157.597C155.588 155.854 161.832 156.703 163.02 156.708C168.192 156.728 173.14 156.741 178.142 156.395C181.001 156.197 184.037 155.93 186.896 156.085C188.186 156.155 189.224 156.527 190.506 156.204C191.343 155.994 192.244 155.556 193.044 156.175C193.981 156.9 194.381 159.361 193.736 160.388C193.266 161.137 192.85 161.054 192.1 160.924C190.946 160.726 190.089 160.437 188.912 160.944C189.103 160.862 188.124 161.098 188.205 161.092C186.873 161.199 185.045 162.206 183.897 161.045C184.357 161.133 185.025 160.244 184.445 160.171C184.01 160.116 183.733 160.621 183.393 160.791C182.231 161.369 181.636 161.188 180.941 159.974C179.541 161.286 179.39 160.923 178.776 159.308C178.302 159.702 178.201 160.635 177.828 160.941C177.773 160.987 178.002 161.553 177.733 161.53C177.483 161.508 177.402 161.066 177.21 161.031C177.087 161.008 177.023 160.62 176.906 160.597C176.779 160.571 176.648 160.819 176.504 160.812C176.119 160.792 175.019 161.678 175.414 160.434C174.831 161.237 174.58 160.725 174.37 159.995C173.696 160.549 173.024 161.102 172.35 161.656C172.037 160.714 171.499 160.971 170.821 161.299C171.025 160.646 170.897 160.027 170.385 160.482C170.088 160.745 169.889 161.581 169.585 161.936C168.356 160.589 167.91 160.958 166.212 161.133C165.564 161.2 164.758 161.33 164.179 160.906C163.67 160.534 163.382 159.167 162.512 160.271C162.706 160.026 162.402 161.911 162.348 162.211C161.964 161.931 161.638 161.587 161.37 161.178C160.869 162.251 159.554 161.289 158.476 161.508C156.78 161.853 155.03 162.434 153.532 161.068C153.426 161.509 152.198 162.071 152.197 162.088C152.269 161.307 152.725 161.582 151.795 161.434C151.624 161.406 151.429 161.74 151.268 161.776C150.713 161.9 150.066 161.782 149.507 161.765C147.183 161.693 145.055 162.25 142.76 162.452C141.986 162.52 141.068 162.654 140.342 162.338C139.593 162.012 139.614 161.643 138.857 161.853C139.096 161.786 138.384 162.597 138.422 162.566C138.321 162.646 137.896 162.251 137.745 162.281C137.701 162.453 137.657 162.626 137.613 162.799C137.43 162.774 137.248 162.75 137.066 162.726C136.567 162.798 136.116 162.252 135.647 162.233C135.734 162.237 134.382 162.781 134.443 162.814C133.5 162.305 133.771 162.452 132.574 162.763C131.442 163.056 130.315 162.987 129.154 163.17C125.777 163.701 127.79 161.869 127.374 159.633ZM124.391 177.901C123.756 176.927 125.446 176.59 125.986 176.504C126.873 176.362 128.05 176.644 128.642 176.491C129.542 176.26 130.412 175.706 131.426 175.556C132.705 175.367 133.995 175.336 135.28 175.218C135.708 175.178 136.238 175.019 136.654 175.045C137.274 175.086 137.532 175.441 138.032 175.443C138.885 175.448 139.937 174.865 140.811 174.758C141.931 174.621 143.061 174.557 144.186 174.496C146.555 174.369 148.9 174.422 151.269 174.419C152.349 174.417 155.226 173.204 155.764 174.564C156.513 173.534 158.434 173.674 159.505 173.644C161.391 173.592 163.258 173.395 165.142 173.3C166.756 173.219 168.559 173.593 170.144 173.331C171.017 173.187 171.306 172.884 172.297 173.021C173.032 173.122 174.154 172.701 174.786 172.887C174.753 172.877 175.574 173.428 175.318 173.445C175.6 173.426 175.583 173.639 175.894 173.544C176.303 173.419 176.115 172.864 176.962 172.666C178.282 172.358 180.043 172.715 181.414 172.636C182.745 172.559 184.074 172.526 185.406 172.532C186.019 172.535 186.778 172.377 187.374 172.506C187.667 172.57 188.288 172.983 188.536 172.941C189.238 172.822 189.595 172.295 190.544 172.327C191.62 172.364 192.589 172.348 193.658 172.26C194.694 172.174 194.86 172.014 195.374 172.946C195.882 173.872 196.023 175.076 195.086 175.705C195.695 175.662 196.443 176.543 195.726 177.031C195.283 177.333 194.395 176.652 193.864 176.701C193.211 176.762 192.698 177.136 191.987 177.159C191.239 177.183 190.48 177.387 189.743 177.403C188.975 177.419 188.394 177.048 187.666 177.206C187.025 177.345 186.957 177.914 186.185 177.414C185.802 177.166 185.737 176.246 185.214 176.238C184.512 176.226 184.792 177.206 184.389 177.66C184.28 176.259 183.28 178.578 182.883 176.877C182.516 177.442 181.159 178.232 180.502 177.778C179.903 177.364 180.101 176.428 179.852 175.754C179.436 176.966 178.321 178.224 178.422 176.017C177.881 176.738 176.417 176.624 176.784 177.886C176.343 177.877 176.239 177.196 175.867 177.144C175.547 177.1 175.292 177.366 175.243 177.362C175.419 177.378 174.718 177.63 174.707 177.633C175.182 177.528 173.339 177.351 173.653 177.354C173.225 177.35 172.702 177.729 172.202 177.727C171.747 177.726 171.293 177.532 170.844 177.477C169.678 177.333 169.921 177.61 169.189 178.006C168.918 178.152 168.85 178.401 168.465 178.37C168.181 178.347 168.075 177.946 168.043 177.942C167.643 177.899 167.938 177.754 167.318 177.821C167.247 177.953 167.176 178.085 167.105 178.218C166.881 178.528 166.59 178.606 166.234 178.451C165.316 178.664 162.272 179.587 162.57 177.878C162.104 178.124 161.638 178.371 161.171 178.618C160.971 177.239 158.437 179.067 157.871 179.159C157.145 179.277 157.078 178.976 156.391 178.815C156.267 178.786 156.019 179.228 155.729 179.165C154.976 179.001 154.842 178.919 154.712 178.034C154.176 179.121 153.729 178.635 152.755 178.813C152.539 178.853 152.402 179.312 152.092 179.233C151.869 179.176 151.863 178.735 151.71 178.678C151.571 178.626 151.592 178.279 151.388 178.229C151.154 178.172 150.357 178.879 150.129 178.988C149.613 179.234 148.766 179.641 148.263 179.519C147.64 179.369 147.917 178.87 147.038 178.926C145.651 179.014 145.072 180.291 144.209 178.278C143.819 179.085 143.869 179.303 143.243 179.57C142.781 179.766 141.61 179.561 141.001 179.536C138.402 179.432 135.845 180.391 133.267 180.14C132.134 180.03 131.179 179.785 130.035 179.985C128.833 180.196 127.658 180.506 126.439 180.631C125.819 180.694 124.524 180.887 124.22 180.03C123.952 179.275 124.951 178.76 124.391 177.901ZM129.49 208.851C126.118 211.292 123.325 214.626 120.229 217.448C117.125 220.278 114.661 223.423 111.87 226.557C109.289 229.454 106.917 232.194 103.797 234.383C101.822 235.769 100.061 237.474 98.0324 238.78C96.5132 239.758 94.2117 241.045 94.9529 238.053C95.7127 234.986 97.1152 231.887 98.333 229.023C100.064 224.952 101.809 220.919 103.682 216.925C104.386 215.424 104.78 213.931 105.897 212.735C107.112 211.434 107.962 209.736 109.293 208.507C114.889 203.337 123.323 207.331 129.49 208.851ZM140.068 210.604C138.538 211.472 136.826 211.687 135.205 212.26C133.824 212.749 132.539 213.618 131.054 213.683C132.406 212.584 133.568 211.091 135.093 210.257C136.808 209.319 138.364 210.002 140.068 210.604ZM207.205 217.834C201.579 215.78 196.34 212.753 190.86 210.317C189.914 209.897 182.516 207.26 182.666 206.005C187.851 204.978 193.19 203.214 198.387 205.137C203.115 206.886 206.96 211.082 210.62 214.594C211.575 215.51 217.48 219.683 216.952 221.012C216.586 221.933 213.74 221.682 213.068 221.493C212.2 221.249 211.7 220.679 211.02 220.052C209.881 219.006 208.622 218.352 207.205 217.834ZM196.819 183.515C197.673 182.664 198.185 181.373 199.001 180.588C200.05 179.578 201.742 180.07 202.889 180.594C206.329 182.167 209.27 184.812 212.689 186.453C216.478 188.272 219.758 190.703 223.176 193.208C226.3 195.498 229.678 197.394 232.866 199.579C236.116 201.806 239.753 203.254 243.047 205.402C246.399 207.588 249.738 209.784 252.96 212.193C258.704 216.489 264.685 220.901 268.935 227.009C271.119 230.149 273.164 233.71 274.767 237.236C276.224 240.441 277.804 244.89 275.916 248.224C274.103 251.426 271.012 253.948 268.396 256.337C267.405 257.242 266.463 258.341 265.179 258.733C263.617 259.21 261.794 259.078 260.188 259.219C251.6 259.972 243.598 259.261 235.134 257.599C226.973 255.997 218.778 255.099 210.554 253.985C205.915 253.357 201.276 252.625 196.7 251.579C194.743 251.131 192.753 250.615 190.839 250.006C189.167 249.474 187.761 248.302 186.042 247.837C178.747 245.866 170.401 245.113 163.178 241.797C169.57 238.923 176.362 237.187 182.912 234.799C189.806 232.285 196.539 230.176 203.806 229.462C207.545 229.095 210.891 228.061 214.488 226.98C217.916 225.949 221.494 225.633 225.015 225.172C226.581 224.966 231.049 225.274 231.568 223.059C232.341 219.762 227.95 219.381 226.079 219.677C223.424 220.096 221.234 220.813 219.202 218.456C217.128 216.049 215.112 213.585 212.999 211.208C209.083 206.802 205.046 201.706 199.509 199.729C192.755 197.317 184.922 199.607 178.183 200.978C171.064 202.427 163.957 203.813 156.972 205.919C154.08 206.791 150.349 208.712 147.347 208.403C144.388 208.099 141.037 207.575 138.178 206.651C136.885 206.234 135.821 205.46 134.664 204.738C133.158 203.799 131.509 203.198 129.912 202.468C126.681 200.993 123.532 199.634 120.047 199.054C117.112 198.566 113.996 198.276 111.151 199.389C108.361 200.481 105.889 202.705 103.942 205.081C101.827 207.662 100.079 210.554 98.3462 213.438C97.514 214.822 96.4985 216.03 95.6365 217.383C94.9131 218.519 94.4906 219.781 93.725 220.886C92.0115 223.356 90.8482 226.517 89.8098 229.391C88.6562 232.584 87.3745 236.381 87.6499 239.854C87.754 241.166 87.8627 242.905 88.332 244.122C88.9289 245.67 89.78 245.631 91.0068 246.215C93.1145 247.218 93.7056 249.991 96.4292 249.45C98.9841 248.943 101.2 246.665 103.064 244.849C105.493 242.483 107.818 239.988 110.143 237.502C112.529 234.951 114.88 232.122 116.777 229.12C117.524 227.939 118.107 226.604 118.989 225.528C120.114 224.158 121.376 223.993 122.903 223.447C136.254 218.674 149.669 214.07 163.436 210.919C166.735 210.164 170.06 209.19 173.3 208.184C176.736 207.119 178.516 208.245 181.352 210.274C187.278 214.513 194.281 217.499 200.879 220.265C202.957 221.136 206.264 221.191 207.888 222.909C198.262 224.496 189.088 227.552 179.803 230.594C175.225 232.094 170.594 233.394 165.999 234.829C161.402 236.264 156.98 238.123 152.447 239.741C147.934 241.351 143.166 242.007 138.61 243.492C133.959 245.008 129.328 246.051 124.555 246.972C119.734 247.903 114.948 248.977 110.111 249.81C107.897 250.192 105.682 250.587 103.492 251.112C101.349 251.626 99.2793 252.856 97.1256 253.141C87.5079 254.414 78.0791 257.251 68.4989 258.855C61.3456 260.052 48.9011 261.722 44.2624 253.957C39.5979 246.147 45.3205 237.037 50.4265 231.453C53.5996 227.983 57.1654 224.929 60.9065 222.212C64.9103 219.304 68.7624 216.164 72.7669 213.26C81.8294 206.689 91.6564 201.33 101.393 196.05C106.066 193.515 110.581 190.797 115.128 188.016C117.384 186.635 118.633 188.863 120.416 190.377C121.819 191.568 124.395 194.503 126.358 193.146C126.433 193.635 126.509 194.124 126.584 194.613C127.159 194.329 127.735 194.046 128.31 193.762C128.696 194.858 128.65 195.539 129.729 196.114C130.392 196.468 131.805 196.893 132.437 196.27C132.566 196.703 132.695 197.136 132.824 197.568C133.376 197.523 133.482 195.814 133.586 195.413C134.533 196.909 135.842 198.159 137.505 198.581C137.513 198.483 137.234 197.255 137.246 197.247C137.772 196.899 138.436 198.392 138.715 198.711C139.64 199.771 140.192 199.606 141.214 198.751C141.288 198.838 141.634 199.815 141.684 199.797C141.905 199.721 142.325 198.856 142.371 198.777C142.307 199.916 144.338 200.145 145.055 199.9C144.894 199.567 144.733 199.234 144.573 198.9C147.071 198.539 148.052 201.411 150.45 201.265C152.222 201.157 150.8 200.738 151.804 199.916C152.68 199.198 152.836 200.768 152.922 200.719C153.089 200.529 153.219 200.312 153.311 200.066C153.635 201.41 156.217 202.616 155.95 200.405C156.966 200.845 157.688 201.575 158.812 201.729C160.178 201.916 161.638 201.603 163.001 201.48C165.938 201.216 168.707 200.567 171.355 199.111C172.925 198.248 174.596 197.464 176.071 196.423C177.306 195.551 179.649 192.905 181.293 194.044C180.872 192.7 182.855 193.946 182.918 192.215C183.236 192.474 183.555 192.734 183.873 192.994C184.064 192.541 184.011 191.827 184.267 191.432C184.618 190.89 184.789 191.209 185.089 190.904C185.424 190.563 185.716 189.649 186.118 189.388C186.532 189.121 187.019 189.44 187.464 189.206C188.142 188.849 191.059 185.369 190.566 188.351C191.82 187.89 190.853 187.468 191.009 186.564C191.324 184.752 192.09 186.056 192.853 186.214C194.102 186.473 194.077 185.356 194.774 184.543C195.41 183.801 196.605 183.469 196.193 182.181C196.664 182.456 196.764 182.993 196.819 183.515ZM121.513 144.805C120.529 145.991 119.792 145.484 118.698 145.31C118.581 144.886 118.381 144.827 118.098 145.134C117.774 145.335 117.425 145.468 117.052 145.532C116.155 145.771 115.223 145.669 114.345 146.032C114.37 145.713 114.679 145.148 114.481 144.825C113.558 145.516 112.986 145.955 111.852 145.968C110.934 145.979 109.322 145.22 108.559 146.127C108.536 145.774 108.512 145.421 108.489 145.068C108.116 145.269 107.791 145.538 107.514 145.876C107.462 145.353 107.433 144.957 107.113 144.534C106.506 145.884 105.841 145.916 104.663 145.4C104.828 145.472 103.483 144.619 103.534 144.855C103.109 142.917 109.822 143.077 110.527 143C112.287 142.808 114.047 142.696 115.809 142.521C117.481 142.354 118.729 142.072 119.886 143.581C119.37 141.401 124.248 141.51 121.513 144.805ZM44.5449 110.999C44.7298 114.295 45.4076 117.798 44.2234 120.97C43.2713 123.519 41.3721 126.398 39.3263 128.062C35.1373 131.469 31.5865 127.3 31.0035 122.719C30.3957 117.941 31.6005 112.102 35.403 109.155C37.6752 107.395 39.8753 107.517 42.4913 108.096C43.1057 108.232 44.1031 108.18 44.4543 108.84C44.5367 108.995 44.4628 110.996 44.5449 110.999ZM100.182 154.908C99.4585 155.303 98.7013 155.534 98.0634 156.072C97.8417 156.259 97.7663 156.684 97.5311 156.842C97.1032 157.128 96.4915 156.938 96.0455 157.174C95.3073 157.565 94.7781 158.123 93.9006 158.483C92.5976 159.017 91.4552 159.75 90.2238 160.445C88.1718 161.602 85.9697 162.596 83.8245 163.539C82.7417 164.015 79.7469 164.942 79.8505 166.657C79.6084 166.728 79.3608 166.155 78.8551 166.2C78.1607 166.263 77.2434 167.132 76.5227 167.345C75.1744 167.745 74.1306 167.78 74.1306 169.64C73.7016 169.324 73.5925 168.552 73.0215 168.45C72.3789 168.335 72.1084 169.085 71.5943 169.319C70.9888 169.594 70.236 169.33 69.6363 169.622C69.374 169.923 69.0827 170.184 68.762 170.408C68.4358 170.449 68.1113 170.438 67.7882 170.375C66.5154 170.667 65.3439 171.185 64.068 171.454C62.8246 171.717 61.9731 171.813 62.4958 173.404C61.1657 173.685 60.8407 172.158 59.3401 172.717C57.5005 173.401 55.7812 173.895 53.8608 174.312C52.8816 174.525 51.8583 175 50.8718 175.112C50.1681 175.191 49.5112 174.919 48.8183 175.004C47.983 175.105 47.3118 175.524 46.4475 175.539C45.6277 175.555 44.7669 175.395 43.9618 175.239C44.0756 175.59 44.218 175.926 44.389 176.249C43.8322 176.123 43.5754 175.398 43.1034 175.291C42.6082 175.179 42.1644 175.732 41.752 175.609C41.5764 175.557 41.6932 174.971 41.3791 174.859C41.0928 174.758 40.9721 174.877 40.6881 174.829C40.5933 174.813 39.4056 174.744 39.2165 174.852C38.8857 175.042 39.2203 175.397 39.1546 175.45C38.0377 176.344 38.0241 175.862 37.5262 174.927C36.795 173.556 35.9133 174.421 34.5844 174.181C33.1035 173.914 31.9367 174.621 30.4789 174.52C28.9067 174.412 27.059 173.139 25.6689 172.395C22.6672 170.79 19.7401 169.271 17.2192 166.839C12.2912 162.087 8.28206 156.241 5.91826 149.55C3.37843 142.361 2.89716 134.863 3.10105 127.236C3.22369 122.649 3.56297 118.065 4.2311 113.532C4.6911 110.414 4.78743 104.873 8.03639 103.453C8.59504 110.754 6.83244 118.194 7.94393 125.447C8.27857 127.632 9.09488 130.544 10.6397 132.162C12.9269 134.557 13.4619 131.095 13.6689 129.182C14.0538 125.63 14.7691 122.097 15.2756 118.562C15.7816 115.028 16.1391 111.454 16.8428 107.957C17.0993 106.682 19.1683 97.3455 20.6868 97.7877C20.3796 104.58 19.5637 111.255 19.5316 118.073C19.5188 120.807 19.2925 123.696 19.6573 126.412C19.8449 127.81 21.0214 131.912 23.0448 131.57C24.9172 131.253 22.8587 128.364 22.6838 127.25C22.2207 124.3 22.8111 120.631 23.2428 117.703C24.0599 112.163 25.8829 106.489 28.8626 101.86C31.5312 97.714 35.6402 93.7675 40.5902 94.4984C42.7053 94.8111 44.3553 95.3794 45.418 97.4692C46.2517 99.1092 49.5363 100.973 47.6329 103.026C45.9001 104.895 43.0976 103.399 41.1713 102.953C38.8129 102.408 36.2855 103.064 34.3132 104.56C30.9292 107.125 29.0007 111.711 28.3712 116.012C27.5228 121.811 29.7907 136.991 38.1437 133.589C43.6926 131.329 47.872 123.198 47.4062 116.974C47.2193 114.482 46.3191 109.752 49.505 109.079C53.5865 108.218 54.1629 113.086 53.7497 116.25C53.1489 120.852 50.9012 125.131 48.3296 128.769C46.0885 131.941 43.4817 133.923 40.7848 136.543C39.9863 137.318 37.9498 139.061 38.2918 140.503C38.6667 142.084 41.8673 142.533 43.149 142.793C49.4891 144.077 56.6389 142.896 62.9682 141.999C75.9768 140.156 88.8144 135.616 99.4813 127.269C99.9123 132.433 100.455 137.581 100.655 142.764C100.753 145.28 100.777 147.833 101.043 150.335C101.207 151.874 101.798 154.024 100.182 154.908ZM64.1114 172.903C63.6007 173.192 64.1528 171.444 64.0108 172.022C64.7737 172.318 64.8074 172.612 64.1114 172.903ZM118.075 110.403C118.886 109.436 121.101 107.136 121.803 109.319C122.065 108.388 122.099 107.01 123.109 108.267C123.511 106.723 127.945 106.868 129.044 106.799C132.561 106.582 136.092 106.465 139.597 106.087C146.799 105.311 154.126 105.711 161.354 105.686C162.919 105.68 164.48 105.588 166.034 105.834C167.533 106.071 169.109 106.736 170.637 106.493C171.996 106.277 172.887 105.872 174.286 106.045C175.959 106.253 177.584 106.4 179.272 106.394C186.74 106.364 194.204 106.692 201.673 106.704C203.129 106.707 204.873 106.399 206.239 107.068C206.745 107.316 207.297 108.141 207.684 108.232C208.127 108.335 207.864 107.588 208.457 107.926C209.251 108.377 208.636 109.767 208.111 109.988C208.426 109.856 207.544 109.726 207.633 109.721C207.214 109.745 206.858 110.092 206.408 110.07C205.724 110.038 205.152 109.587 204.601 109.189C204.591 109.351 204.894 110.433 204.548 110.488C204.251 110.535 203.972 109.468 203.942 109.22C202.271 110.815 200.501 109.926 198.427 110.128C196.957 110.271 193.89 111.333 192.864 109.672C192.821 110.025 192.69 110.334 192.471 110.6C192.178 111.083 191.925 111.042 191.71 110.475C191.638 110.479 190.923 110.647 190.91 110.646C190.407 110.602 189.755 110.407 189.243 110.36C188.452 110.287 188.598 110.91 187.967 110.92C187.623 110.926 186.744 110.387 186.144 110.354C185.104 110.295 184.042 110.773 183.016 110.628C182.309 110.529 181.671 109.907 180.978 109.882C180.115 109.851 179.834 110.564 179.151 109.563C179.01 109.522 178.923 110.111 178.868 110.121C178.881 110.118 178.217 110.225 178.138 110.258C178.002 110.315 177.47 110.578 177.309 110.581C176.959 110.588 176.77 110.317 176.399 110.311C175.787 110.299 173.832 110.883 173.886 109.657C171.701 110.533 169.836 110.192 167.592 110.399C166.563 110.494 165.916 110.345 164.937 110.141C163.711 109.885 162.896 110.206 161.673 110.271C160.498 110.334 160.127 109.796 159.135 109.31C158.744 109.118 158.485 108.866 158.005 108.972C157.732 109.033 157.926 109.532 157.845 109.566C157.424 109.742 157.129 109.555 156.551 109.598C155.484 109.677 155.059 110.642 153.962 109.736C154.326 109.688 154.691 109.639 155.056 109.592C154.007 109.11 152.622 108.865 152.876 110.617C151.982 110.481 152.756 109.822 152.316 109.586C151.876 109.351 151.384 109.745 150.83 109.94C149.367 110.453 148.147 110.198 146.622 110.106C144.889 110.001 140.834 111.532 139.593 109.545C139.556 109.964 139.14 111.13 138.587 111.075C138.407 111.057 138.909 109.819 138.966 109.688C138.682 110.344 137.382 110.468 136.742 110.809C136.814 110.456 136.886 110.104 136.957 109.752C136.363 110.436 136.074 110.019 135.375 110.247C135.069 110.348 134.626 111.03 134.365 111.071C134.06 110.689 133.677 110.525 133.216 110.578C132.909 110.495 132.603 110.478 132.296 110.529C131.069 110.626 129.949 111.364 128.729 110.861C127.672 110.425 127.263 109.305 126.632 111.087C126.466 110.771 126.301 110.454 126.135 110.137C125.931 110.481 125.726 110.825 125.521 111.168C124.722 110.602 124.673 110.273 123.752 110.482C123.536 110.575 123.315 110.562 123.088 110.442C123.034 110.617 122.98 110.791 122.925 110.966C122.904 111.405 122.783 111.55 122.564 111.4C122.38 111.329 122.214 111.22 122.066 111.074C121.457 111.125 120.679 111.298 120.026 111.202C119.774 111.166 118.192 110.263 118.075 110.403ZM136.707 98.6042C136.778 98.7232 136.85 98.8422 136.922 98.9613C135.933 99.5263 135.701 99.2018 135.599 98.0677C136.081 98.0777 136.164 98.9969 136.707 98.6042ZM137.319 97.9386C137.795 98.1658 138.341 98.6121 138.789 98.014C139.091 98.9634 136.849 100.259 137.319 97.9386ZM140.393 98.3577C141.392 99.0887 138.995 98.5011 138.999 98.5023C139.43 98.0719 139.894 98.0237 140.393 98.3577ZM148.988 94.2826C149.331 96.1535 150.276 96.1003 151.802 95.2306C154.027 93.9619 154.403 91.8843 154.558 89.4035C154.707 87.025 154.976 86.1042 157.242 86.6008C158.825 86.9475 160.163 86.6562 161.758 86.6084C163.46 86.5577 164.06 86.8389 164.197 88.7342C164.334 90.632 164.646 92.0729 165.919 93.5173C167.213 94.9854 168.938 95.8623 170.62 96.6837C171.484 97.1058 172.296 97.5601 173.253 97.6515C173.624 97.6871 175.553 97.4231 175.593 98.0836C175.623 98.5803 172.952 99.981 172.668 100.148C171.429 100.877 170.193 101.531 168.84 101.973C165.726 102.99 162.424 103.05 159.198 102.988C153.998 102.889 146.81 100.509 143.701 95.5165C145.463 95.1053 147.226 94.6937 148.988 94.2826ZM148.522 78.0788C147.699 77.3315 147.166 76.2028 146.483 75.318C146.138 74.8716 145.885 74.7295 145.557 74.5062C145.212 74.271 145.017 74.6038 144.729 74.051C143.984 72.6222 146.282 70.6116 143.845 70.0617C143.02 69.8752 141.036 70.5823 140.795 69.304C140.455 67.4963 143.643 67.3781 144.393 66.4606C145.885 64.6366 144.873 61.5443 145.781 59.4399C146.641 57.4465 148.861 57.0923 150.614 56.4934C153.055 55.6593 155.526 55.1757 158.005 54.508C159.739 54.0415 162.619 52.1668 164.226 53.8232C161.745 54.4192 163.187 55.3546 164.841 55.8827C166.714 56.4813 168.699 56.7147 170.639 56.8815C172.637 57.0529 174.673 57.0856 176.647 56.6548C178.472 56.2562 180.511 54.5394 182.425 54.9791C181.363 56.9771 178.199 58.0685 176.277 58.592C175.297 58.8585 174.67 58.7751 174.802 60.0966C174.929 61.3775 175.958 62.6617 176.191 63.9958C176.498 65.7615 176.229 67.384 175.649 69.0445C175.077 70.6783 174.944 70.8916 175.443 72.4529C176.221 74.8838 174.549 77.5704 173.003 79.3357C166.752 86.4734 154.79 83.7697 148.522 78.0788ZM164.405 35.4194C164.43 35.4923 164.409 35.4646 164.405 35.4194V35.4194ZM166.352 53.4325C166.093 53.6421 164.6 54.0813 164.662 53.4501C164.746 52.6043 166.091 52.9099 166.352 53.4325ZM169.754 36.3469C169.404 36.0644 168.423 36.1805 169.14 35.1096C169.374 35.5807 169.564 35.9638 169.754 36.3469ZM146.211 29.5776C146.658 28.3223 147.152 27.1546 147.353 25.8185C147.478 24.9953 147.231 24.0552 148.294 23.9261C146.939 23.2865 146.925 20.7621 146.845 19.4536C146.735 17.6514 146.209 15.2385 146.941 13.5612C147.692 11.8381 148.706 11.8666 149.012 13.9187C149.132 14.7221 148.673 14.982 148.587 15.5415C148.417 16.6484 148.756 16.4058 149.416 15.5625C149.688 16.4196 149.793 17.7076 150.901 17.6531C150.828 17.4213 150.403 16.91 150.545 16.622C150.763 16.1799 151.828 16.8555 151.963 16.9577C152.935 17.6937 153.146 18.3656 152.452 19.294C153.413 19.4059 152.607 20.3154 153.227 20.5526C154.172 20.9143 153.538 19.2005 153.435 18.8991C154.011 19.1422 154.204 19.4197 154.569 19.9117C154.783 20.2512 154.977 20.6037 155.153 20.9684C155.349 21.6339 155.752 21.8007 156.363 21.4688C157.588 21.8846 159.279 21.8196 160.377 22.5464C160.878 22.8783 161.059 23.6047 161.478 23.8804C161.949 24.191 162.581 24.0502 163.087 24.2451C162.902 24.7002 163.052 24.9467 163.536 24.9853C163.913 25.0226 164.277 25.1143 164.63 25.2602C164.893 25.0452 165.18 24.8754 165.49 24.7518C165.698 25.1487 165.992 25.2468 166.372 25.0469C167.502 25.2757 168.045 25.738 168.762 26.4291C169.407 27.0494 168.882 27.0997 169.588 27.0448C169.872 27.0226 170.369 26.5021 171.018 26.6035C171.391 26.6823 171.751 26.8068 172.098 26.9769C172.473 27.324 172.871 27.3676 173.292 27.1081C173.976 27.4698 174.043 28.1107 174.877 28.1983C175.799 28.2955 175.502 27.0515 176.136 28.806C176.988 26.9459 177.301 29.9091 178.181 30.1485C179.093 30.3966 179.192 29.5965 179.973 30.4708C180.207 30.7327 180.194 31.1657 180.456 31.4436C180.887 31.8983 181.469 31.8074 181.843 32.4277C181.635 32.0815 181.892 33.6544 181.888 33.6025C181.946 34.2965 181.376 35.074 182.544 35.0149C182.531 35.0878 181.97 35.9726 181.861 35.8724C181.834 35.7714 181.811 35.6692 181.793 35.5657C181.668 35.6239 181.612 36.4668 181.635 36.6156C181.734 36.6323 181.775 36.5527 181.757 36.3767C181.565 37.0267 181.854 37.4396 181.486 38.0565C181.25 38.4509 180.604 38.7472 180.26 38.9907C179.433 39.5784 178.622 40.1676 177.814 40.793C175.931 42.2515 173.821 44.0102 171.449 44.3145C172.641 43.0487 179.495 38.2585 176.057 36.8834C175.42 36.6286 174.258 36.3871 173.592 36.3335C172.762 36.2668 171.904 36.7807 170.99 36.4601C169.886 36.0736 170.302 34.9508 169.627 34.548C168.195 33.6934 168.534 35.7031 168.083 36.2295C167.609 35.6918 167.711 35.4303 166.963 35.3817C166.204 35.3322 166.024 36.0912 165.138 35.6185C163.918 34.9667 164.563 33.6687 162.833 33.6381C162.862 33.3531 163.113 32.5567 162.782 32.3346C162.337 32.9595 162.682 33.6582 162.269 34.2597C162.062 34.5614 161.613 34.802 161.285 34.8997C160.518 35.1277 160.408 35.5644 160.533 34.3141C159.965 35.4227 158.221 34.9667 157.183 34.8552C155.497 34.6738 153.705 34.3284 152.088 33.7433C150.593 33.2018 149.794 32.2717 148.561 31.4255C148.095 31.1053 147.872 31.2277 147.204 31.029C146.544 30.8329 145.901 30.4527 146.211 29.5776ZM149.77 9.94872C150.024 9.78274 150.207 12.2594 149.899 12.7221C149.334 11.7551 148.332 10.3368 149.77 9.94872ZM150.583 8.96084C151.402 8.15905 150.833 10.23 150.683 10.5774C150.38 10.367 150.076 10.1566 149.773 9.9462C150.16 9.68928 150.256 9.28063 150.583 8.96084ZM181.472 5.62335C189.036 7.34092 196.531 10.5514 202.597 15.8349C208.123 20.6473 212.024 27.4753 214.21 34.7383C216.48 42.2771 215.717 50.6412 210.317 56.4108C207.473 59.4499 203.716 61.2836 200.136 63.0728C198.421 63.9299 196.654 64.6441 194.932 65.4815C193.695 66.083 192.185 67.0453 190.774 66.8785C191.494 66.0587 192.539 66.0419 193.41 65.5406C194.463 64.9346 195.323 63.7715 196.231 62.9408C197.132 62.116 199.13 59.5187 200.515 60.1473C200.323 58.7638 201.78 58.1213 202.436 57.2089C203.13 56.2436 203.18 55.1149 204.46 54.7989C203.086 53.6354 203.507 51.4409 203.805 49.857C204.188 47.8313 204.365 45.9717 204.515 43.9104C204.787 40.194 205.006 35.46 203.108 32.193C202.493 31.1321 201.709 30.1573 201.159 29.0554C200.497 27.7276 200.643 26.5587 200.643 25.103C199.433 25.9832 199.177 24.1885 198.666 23.3138C198.282 22.6574 197.778 22.2907 197.654 21.465C197.564 20.864 198.167 20.7626 197.836 20.1326C197.431 20.4637 197.27 20.9767 197.065 21.4529C196.691 21.2911 197.132 20.7278 196.917 20.5446C196.911 20.5396 196.19 20.2005 196.226 20.2496C195.761 19.6129 195.612 18.5563 195.384 17.7985C194.534 18.2646 194.693 18.2097 193.745 17.4309C193.577 17.2939 192.743 16.6644 192.664 16.4586C192.297 15.4963 192.94 16.0663 192.76 15.469C192.244 13.7535 189.345 14.0779 189.115 11.5074C187.702 12.4786 187.163 11.1026 186.327 10.1239C185.47 9.12137 184.034 8.73577 184.111 7.14561C183.666 7.31033 183.221 7.47462 182.777 7.6385C183.008 6.17114 180.993 6.26461 180.264 5.52024C180.669 5.52569 181.071 5.56006 181.472 5.62335ZM182.624 96.506C183.325 95.8275 183.112 96.7303 183.563 96.6272C183.949 96.5387 184.025 96.2231 184.395 96.1263C185.919 95.7277 188.198 96.2286 189.8 96.1426C191.657 96.0433 194.839 96.4603 195.723 98.8104C196.256 100.226 195.443 99.7442 194.547 99.639C193.852 99.5577 193.235 99.7098 192.547 99.7023C192.207 99.7589 191.869 99.7534 191.531 99.6851C191.366 99.5677 191.269 99.4026 191.239 99.1897C190.283 99.0329 189.267 99.6453 188.208 99.6759C186.794 99.7165 185.537 99.4231 184.463 98.3904C184.036 99.079 183.745 99.4206 182.977 99.4977C182.957 99.4998 182.207 99.1729 182.091 99.1402C181.938 99.0971 181.549 99.4462 181.252 99.3464C181.778 98.4403 181.855 97.25 182.624 96.506ZM279.176 104.684C279.425 103.745 279.634 102.794 279.861 101.848C283.351 106.147 286.405 111.901 287.779 117.414C288.671 120.996 290.061 127.487 285.805 129.334C282.339 130.84 280.406 125.445 279.529 122.787C277.592 116.922 277.592 110.653 279.176 104.684ZM123.053 37.3302C123.098 37.3205 120.794 38.7703 121.553 37.5963C121.858 37.1244 123.014 36.7924 123.527 36.7924L123.053 37.3302ZM120.837 37.9446C120.571 38.1873 120.301 38.427 120.03 38.6634C119.769 38.2175 119.508 37.7715 119.247 37.3256C119.761 37.0908 121.944 36.9148 120.837 37.9446ZM119.213 83.0207C118.731 82.6674 118.349 82.8551 118.204 83.4482C118.204 82.8581 118.488 81.4871 118.925 81.3274C119.207 81.2239 117.987 79.6626 118.33 79.254C119.202 79.7943 118.68 80.3119 118.935 81.0093C119.05 81.3241 119.397 81.6216 119.473 81.8635C119.601 82.2738 120.121 83.685 119.213 83.0207ZM116.852 79.5076C116.358 79.6442 117.223 80.526 117.222 80.9158C117.221 81.2105 116.894 81.4368 116.759 81.84C116.467 82.7139 116.97 83.304 116.141 83.9708C116.141 82.0563 114.954 76.9832 117.236 76.0502C116.123 75.1017 117.037 74.007 117.909 75.142C118.748 76.2334 118.214 79.1304 116.852 79.5076ZM115.663 71.9524C115.215 70.2315 113.864 69.6296 112.322 69.7315C112.38 68.8505 112.997 67.5801 113.443 69.1682C113.627 68.6988 113.753 68.0864 114.171 67.7754C114.875 70.1628 118.383 71.4817 116.199 74.0686C116.021 73.3632 115.847 72.6566 115.663 71.9524ZM111.586 69.8597C103.462 70.4972 92.056 72.3212 85.5546 65.583C81.3156 61.1893 81.542 54.3471 84.9677 49.4655C86.9226 46.68 89.5912 44.7185 92.2715 42.85C93.3056 42.1287 94.1819 41.6526 95.3174 41.2381C95.5011 41.2167 95.6741 41.2611 95.8358 41.3714C95.8996 41.0746 96.054 40.855 96.3 40.7117C96.7383 40.4577 97.3631 40.3671 97.6158 39.8399C97.3461 40.8299 97.2076 41.8492 97.1086 42.8735C96.8896 42.5977 96.671 42.3219 96.4524 42.0462C96.2698 43.9117 94.4736 42.7826 93.4012 43.0156C94.1076 44.0735 94.6129 44.4578 94.6736 45.856C94.1475 44.8048 93.0472 44.1137 92.0243 43.7751C92.5798 45.553 92.9725 46.6083 92.4131 48.5581C91.7376 48.1407 91.692 47.1381 90.8726 46.898C90.6563 48.0606 90.618 49.3507 90.341 50.479C88.2426 49.4433 88.4473 52.2326 89.2899 53.6128C89.7379 54.3471 89.958 55.1971 90.3576 55.902C91.3384 57.6309 90.5932 55.0453 91.6835 55.1681C91.4386 56.9917 91.3535 57.1732 92.5868 58.5086C93.7904 59.8108 94.4148 61.6176 95.7023 62.8411C96.0749 62.3255 95.4887 61.7861 95.4373 61.2928C96.6354 61.5103 97.1964 62.81 98.3481 61.6587C98.8503 62.7178 99.3938 63.8843 100.597 64.1018C99.8016 62.4664 102.124 63.5754 102.719 63.8076C103.171 63.9836 103.98 64.1236 104.154 64.1915C105.135 64.575 104.463 63.8868 105.058 65.1437C105.932 64.8583 106.262 64.0733 107.308 64.7363C108.158 65.2758 108.16 66.1995 108.355 67.1459C108.557 66.5268 108.762 65.9082 108.986 65.2976C109.214 65.4015 110.172 66.5415 110.067 66.547C112.308 66.4279 112.229 67.9334 111.586 69.8597ZM100.179 38.9974C100.629 38.6559 101.178 39.1106 101.684 38.9882C102.383 38.8193 102.781 38.1709 103.562 38.1014C103.345 38.8533 102.936 38.7829 102.591 39.3734C102.474 39.5746 102.535 40.0574 102.43 40.1731C101.555 41.1438 101.252 40.3516 100.358 39.6169C100.436 40.5029 100.593 40.7829 99.8217 41.0206C99.1234 41.236 97.9709 40.4426 97.6189 39.834C97.9156 39.1911 99.6407 39.4065 100.179 38.9974ZM105.754 37.6127C106.512 37.691 105.599 40.1127 104.511 37.7635C104.921 37.6671 105.335 37.6168 105.754 37.6127ZM109.655 37.1445C110.851 36.8804 114.841 35.6499 115.285 37.665C115.365 37.6148 115.662 36.4772 115.8 36.616C116.352 37.1722 116.414 37.9094 116.372 38.6818C115.704 37.1763 115.942 38.4987 115.489 38.3956C115.371 38.3683 115.19 38.6072 114.891 38.5087C114.499 38.3792 114.217 37.476 113.97 37.1701C113.557 37.8071 113.046 38.6274 112.22 38.572C111.636 38.5331 110.694 36.9043 111.451 38.6873C111.006 38.5284 110.492 38.1688 109.996 38.2409C109.442 38.3218 109.154 38.914 108.634 39.0096C107.482 39.2208 107.308 38.0213 106.561 37.37C107.592 37.305 108.636 37.3691 109.655 37.1445ZM116.893 37.1252C116.977 36.712 118.024 36.5451 118.29 36.6763C118.941 36.9961 118.7 37.4182 118.581 38.1206C118.098 37.8734 117.615 37.6265 117.132 37.3792C117.853 38.6349 116.547 38.8172 116.893 37.1252ZM319.541 110.678C319.456 107.669 319.375 104.608 318.67 101.678C318.177 99.6277 316.965 95.9511 314.672 95.5953C311.214 95.0584 309.3 102.453 308.331 104.991C308.137 102.002 308.307 98.8217 307.264 95.9855C306.428 93.7126 304.318 91.5599 302.501 94.1124C300.884 96.3841 300.573 99.7375 300.148 102.471C299.596 106.012 299.265 109.581 298.862 113.144C297.283 109.842 297.007 106.062 295.759 102.629C294.581 99.3909 292.728 96.2977 290.942 93.4171C289.484 91.0641 287.711 88.852 285.427 87.4135C283.438 86.1616 279.962 84.8074 278.067 86.8867C276.486 88.6214 276.734 90.943 276.816 93.1321C276.853 94.107 276.994 94.7755 276.202 95.2667C275.812 95.5081 275.204 95.3832 274.776 95.5123C274.087 95.7206 273.558 96.0735 272.975 96.5425C268.886 99.831 267.001 105.757 266.418 111.04C265.679 117.735 268.091 123.473 270.166 129.598C270.497 130.575 271.547 132.646 271.402 133.735C271.243 134.929 269.858 134.96 268.924 134.985C266.101 135.061 263.151 134.833 260.342 134.548C253.656 133.871 246.974 130.388 240.987 127.278C239.895 126.711 238.349 126.386 237.458 125.492C236.62 124.652 236.399 123.306 235.675 122.343C233.9 119.978 232.768 117.961 230.154 116.532C227.491 115.078 224.774 113.734 222.176 112.141C218.964 110.17 215.996 107.674 212.917 105.467C207.196 101.367 201.513 96.8723 195.447 93.3861C192.629 91.7657 189.479 91.5034 186.553 90.1768C183.703 88.8851 180.205 88.8834 177.231 89.699C175.782 90.0968 174.797 91.039 173.464 91.6538C171.903 92.3747 170.629 91.5792 169.255 90.7188C167.156 89.4044 165.075 87.2626 168.065 85.8447C169.079 85.3636 170.349 85.1813 171.235 84.4247C172.179 83.6188 172.937 82.1317 173.705 81.122C175.412 78.8776 176.432 76.2937 178.93 74.898C181.693 73.3544 184.968 72.9344 187.913 71.9256C191.105 70.8329 194.23 69.5336 197.362 68.2578C203.006 65.9593 208.872 63.4777 212.928 58.418C216.425 54.0528 217.95 48.4185 217.808 42.6958C217.52 30.9968 211.728 19.1238 203.419 11.8092C193.229 2.83994 180.267 -0.150941 167.396 0.00581176C161.355 0.0795778 154.146 0.935012 149.106 4.90622C144.753 8.33634 144.029 14.3357 144.676 19.7512C144.939 21.9491 145.837 24.8495 144.405 26.7862C143.603 27.8697 142.164 28.1379 141.084 28.8135C139.727 29.6623 138.53 30.4758 136.993 30.9247C130.464 32.8325 123.587 32.1682 116.912 32.0626C105.792 31.8866 94.3931 35.1444 86.0974 43.6233C79.3983 50.4697 77.3893 63.3801 85.5596 70.0546C92.1609 75.4467 102.515 74.8536 110.299 73.9131C112.712 73.621 114.372 73.1968 114.377 76.3922C114.384 79.8827 113.849 83.5308 114.672 86.9575C115.969 92.3542 120.761 92.4829 124.998 91.3206C127.234 90.7074 129.395 89.7854 131.518 88.8197C134.632 87.4035 137.486 85.3208 140.561 83.9071C142.646 82.949 144.207 86.0476 146.057 83.8996C146.398 83.5027 146.461 82.9109 146.977 82.7076C147.784 82.3895 149.139 83.5052 149.848 83.8581C150.908 84.3866 151.978 84.7751 152.401 86.0476C152.798 87.2379 152.624 89.1307 152.244 90.3051C151.419 92.8575 149.197 92.3529 147.168 92.1823C143.63 91.8843 140.116 91.2527 136.579 90.9874C133.406 90.7493 130.435 91.7754 127.697 93.4686C121.949 97.0249 117.246 102.681 112.261 107.333C109.696 109.727 107.216 112.313 104.426 114.398C103.213 115.305 101.9 116.138 100.845 117.264C99.7993 118.382 99.6844 119.398 99.3265 120.885C98.6893 123.532 95.5251 124.827 93.547 126.224C90.7499 128.199 87.7845 129.593 84.6489 130.805C78.0083 133.371 71.3153 135.164 64.3729 136.488C60.9738 137.137 57.603 137.564 54.1707 137.914C51.2122 138.216 48.0662 139.201 45.1112 138.414C45.9624 136.92 47.4704 136.023 48.6449 134.869C50.1592 133.38 51.4471 131.617 52.593 129.789C54.8237 126.231 56.3882 122.413 56.7476 118.096C57.0714 114.212 56.7 109.565 54.5339 106.284C53.7857 105.15 52.3055 104.842 51.6359 103.821C50.9701 102.805 51.2238 101.058 50.8594 99.8745C49.9313 96.8644 47.1771 93.1342 44.7534 91.386C42.1238 89.4886 38.2771 88.7916 35.2394 89.7803C29.6119 91.6119 26.1552 98.1192 23.5802 103.379C22.1735 100.176 24.5292 95.4243 21.7812 92.8014C19.4635 90.5888 17.6239 94.8748 16.8486 96.7085C13.2097 105.316 12.3833 114.445 10.8586 123.655C10.2373 122.993 10.5557 121.292 10.6141 120.501C10.7228 119.03 10.7128 117.586 10.7155 116.109C10.7228 112.375 11.3643 108.625 11.0703 104.895C10.9004 102.739 10.2652 98.193 7.37019 98.9093C4.9151 99.517 3.37727 103.253 2.60585 105.536C1.4932 108.831 1.23632 112.092 1.30557 115.572C1.38217 119.417 0.705139 123.199 0.541105 127.039C0.222321 134.497 0.537236 141.891 2.51493 149.089C5.75345 160.876 13.1996 170.67 23.1376 176.584C28.613 179.842 34.6873 181.904 40.9326 182.347C44.317 182.588 47.5841 182.152 50.9395 181.773C54.2507 181.399 57.5794 181.227 60.8848 180.788C68.2463 179.811 75.4193 177.289 82.1103 173.896C85.6324 172.11 88.9444 169.917 92.4088 168.013C93.7989 167.249 94.7382 166.293 95.9244 165.23C97.1005 164.178 97.4262 164.095 98.7636 164.095C98.3713 162.959 99.5165 162.609 100.026 161.89C99.9974 162.239 99.9687 162.587 99.9401 162.936C100.329 162.024 100.69 162.033 101.025 162.962C101.356 161.921 101.601 160.851 102 159.837C103.527 160.673 103.398 162.661 105.44 161.21C107.122 160.015 108.668 158.606 110.383 157.436C114.288 154.768 117.655 151.298 121.571 148.661C121.571 151.229 121.738 153.819 121.421 156.374C121.119 158.804 120.281 161.074 119.615 163.4C118.385 167.691 118.3 172.277 116.938 176.525C116.374 178.284 114.906 179.755 114.485 181.467C114.056 183.214 115.047 184.614 113.386 185.761C112.214 186.57 110.75 186.911 109.453 187.4C107.474 188.147 105.595 189.2 103.669 190.093C94.6337 194.282 85.8208 198.549 77.45 204.181C69.5059 209.526 61.4404 215.047 54.1428 221.395C47.8093 226.904 41.4069 234.028 39.8652 243.015C38.3692 251.732 42.3552 261.089 50.3588 263.96C54.5204 265.453 59.2252 265.268 63.5589 265.333C68.2223 265.403 73.1638 264.187 77.7487 263.307C82.5908 262.377 87.3497 260.923 92.2057 260.093C96.8649 259.297 101.138 257.517 105.721 256.42C110.602 255.252 115.609 254.618 120.517 253.568C122.727 253.095 124.892 252.397 127.107 251.959C129.533 251.479 131.985 251.299 134.387 250.664C139.046 249.432 143.507 247.446 148.187 246.3C150.291 245.784 152.363 245.094 154.467 244.612C156.405 244.169 157.915 242.99 159.857 243.958C161.426 244.74 162.677 246.081 164.162 247.015C166.088 248.226 168.118 249.312 170.126 250.354C174.16 252.449 178.344 253.896 182.562 255.469C186.993 257.121 191.344 259.005 195.935 260.096C200.641 261.214 205.441 261.526 210.18 262.41C219.884 264.222 229.506 265.035 239.357 265.101C244.336 265.135 249.314 264.496 254.281 264.571C258.679 264.639 262.502 265.711 266.523 263.181C272.948 259.139 280.401 253.051 280.243 244.207C280.1 236.197 275.659 228.544 271.494 222.227C266.437 214.555 259.225 209.152 252.157 203.86C244.625 198.22 236.164 194.323 228.247 189.4C224.198 186.882 220.464 184.174 216.067 182.384C213.968 181.531 211.921 180.541 209.847 179.621C208.178 178.881 205.768 178.473 204.34 177.245C203.448 176.479 203.363 175.32 203.128 174.181C202.606 171.661 201.787 169.271 200.993 166.841C199.461 162.149 198.442 157.369 197.783 152.448C197.155 147.756 195.761 142.877 196.483 138.109C201.232 143.079 206.111 147.857 210.969 152.695C212.79 154.508 214.577 156.36 216.407 158.162C217.781 159.515 219.499 161.525 221.415 161.926C223.861 162.439 222.967 159.511 224.647 159.058C225.673 158.78 228.769 161.602 229.581 162.16C234.724 165.694 240.42 167.933 246.078 170.338C252.011 172.86 258.112 175.1 264.496 175.735C270.393 176.323 276.422 175.569 282.113 173.831C293.445 170.369 301.784 162.155 307.904 151.507C314.878 139.375 319.952 125.162 319.541 110.678Z" fill="#3F3F3F"/>
<path fill-rule="evenodd" clip-rule="evenodd" d="M146.344 84.2285C146.342 84.2322 146.324 84.2728 146.324 84.2728C146.346 84.2565 146.352 84.2419 146.344 84.2285Z" fill="#3F3F3F"/>
<path fill-rule="evenodd" clip-rule="evenodd" d="M146.89 84.3854C146.848 83.9988 146.756 83.6205 146.615 83.25C146.24 83.8936 145.905 84.1692 146.397 84.8508C146.561 84.6956 146.725 84.5405 146.89 84.3854Z" fill="#3F3F3F"/>
<path fill-rule="evenodd" clip-rule="evenodd" d="M173.021 176.365C173.441 175.882 172.707 175.7 172.428 175.694C172.456 176.212 172.218 177.454 172.874 177.695C172.716 177.226 172.766 176.783 173.021 176.365Z" fill="#3F3F3F"/>
<path fill-rule="evenodd" clip-rule="evenodd" d="M161.951 75.2635C161.23 76.7705 162.823 77.238 163.745 76.51C164.439 75.9626 164.85 74.5673 164.964 73.672C165.332 70.7751 163.459 68.0179 162.525 65.4476C162.284 64.7832 161.953 62.5047 161.176 62.442C160.283 62.3701 160.217 64.4687 160.205 65.0102C160.171 66.6431 160.57 68.306 161.039 69.8473C161.543 71.509 162.794 73.5035 161.951 75.2635Z" fill="#3F3F3F"/>
<path fill-rule="evenodd" clip-rule="evenodd" d="M165.381 69.2194C168.153 71.8903 170.37 67.4418 170.177 64.8104C170.129 64.1584 169.722 61.7547 168.579 62.6295C168.005 63.069 168.494 64.4972 168.221 65.1241C166.895 68.1641 165.618 63.4489 164.725 63.0785C163.639 62.6275 163.53 64.172 163.531 64.9975C163.534 66.6361 164.255 68.1341 165.381 69.2194Z" fill="#3F3F3F"/>
<path fill-rule="evenodd" clip-rule="evenodd" d="M155.319 69.6342C155.972 68.5216 156.775 67.0294 156.864 65.6965C157.002 63.6248 155.886 63.7976 154.967 65.2432C154.319 66.2643 153.832 67.9962 152.4 67.5658C150.633 67.0349 151.173 64.4628 150.183 63.2405C147.684 66.8727 152.413 74.5848 155.319 69.6342Z" fill="#3F3F3F"/>
<path fill-rule="evenodd" clip-rule="evenodd" d="M159.066 80.7498C160.099 80.9915 162.794 80.9023 161.86 79.1898C160.683 77.0325 156.767 80.2118 159.066 80.7498Z" fill="#3F3F3F"/>
<path fill-rule="evenodd" clip-rule="evenodd" d="M195.277 16.4183C195.466 15.8086 195.206 15.6979 194.755 15.2178C194.328 15.6444 194.875 16.0933 195.277 16.4183Z" fill="#3F3F3F"/>
<path fill-rule="evenodd" clip-rule="evenodd" d="M214.555 126.85C215.237 126.967 215.456 126.577 215.213 125.679C214.137 125.604 213.918 125.994 214.555 126.85Z" fill="#3F3F3F"/>
<path fill-rule="evenodd" clip-rule="evenodd" d="M177.317 32.6462C178.069 33.0183 177.781 33.7818 177.768 34.427C178.156 33.9714 178.938 33.1385 178.62 32.4841C178.129 31.475 176.846 32.4134 177.317 32.6462Z" fill="#3F3F3F"/>
<path fill-rule="evenodd" clip-rule="evenodd" d="M151.697 19.946C151.583 19.7039 151.468 19.4618 151.354 19.2197C150.886 19.6253 150.165 20.6979 150.908 21.2207C151.212 20.821 151.475 20.3961 151.697 19.946Z" fill="#3F3F3F"/>
<path fill-rule="evenodd" clip-rule="evenodd" d="M160.723 27.0651C161.659 27.8592 161.21 25.4217 161.182 25.2227C161.043 25.5086 160.25 26.6639 160.723 27.0651Z" fill="#3F3F3F"/>
<path fill-rule="evenodd" clip-rule="evenodd" d="M160.205 25.8272C160.133 25.6259 160.061 25.4245 159.99 25.2227C159.61 25.6027 159.146 26.3788 159.772 26.8234C159.944 26.512 160.088 26.1801 160.205 25.8272Z" fill="#3F3F3F"/>
<path fill-rule="evenodd" clip-rule="evenodd" d="M166.146 34.1977C166.223 34.2741 166.299 34.3504 166.375 34.4271C166.684 33.7534 166.333 33.2472 165.75 33.2266C165.791 33.6049 165.923 33.9286 166.146 34.1977Z" fill="#3F3F3F"/>
<path fill-rule="evenodd" clip-rule="evenodd" d="M141.07 109.996C141.441 109.723 141.778 109.411 142.082 109.061C140.983 108.334 141.641 109.909 140.319 108.942C140.034 109.368 140.499 110.322 141.07 109.996Z" fill="#3F3F3F"/>
<path fill-rule="evenodd" clip-rule="evenodd" d="M187.24 176.094C187.658 175.4 187.733 175.42 187.162 174.893C186.686 175.751 186.736 175.531 187.24 176.094Z" fill="#3F3F3F"/>
<path fill-rule="evenodd" clip-rule="evenodd" d="M99.9199 65.6723C100.147 65.929 100.375 66.1857 100.602 66.4421C100.708 66.1063 101.287 65.1572 100.894 64.8413C100.57 65.1183 100.245 65.3953 99.9199 65.6723Z" fill="#3F3F3F"/>
<path fill-rule="evenodd" clip-rule="evenodd" d="M108.011 68.2119C107.648 68.1463 106.779 67.8596 106.578 68.2249C107.109 68.696 108.308 68.2659 108.011 68.2119Z" fill="#3F3F3F"/>
</svg>
