<svg width="258" height="343" viewBox="0 0 258 343" fill="none" xmlns="http://www.w3.org/2000/svg">
<path d="M21.269 143.362V122.576L101.292 161.029L21.269 143.362Z" fill="url(#paint0_linear_9_11444)"/>
<path d="M42.0542 125.694V108.027L101.292 153.754L42.0542 125.694Z" fill="url(#paint1_linear_9_11444)"/>
<path d="M239.511 141.629V121.252L159.489 158.95L239.511 141.629Z" fill="url(#paint2_linear_9_11444)"/>
<path d="M218.726 124.308V106.988L159.489 151.818L218.726 124.308Z" fill="url(#paint3_linear_9_11444)"/>
<path d="M0.483398 315.878V146.479L125.194 172.461V341.859L0.483398 315.878Z" fill="url(#paint4_linear_9_11444)"/>
<path d="M257.179 316.917V147.519L132.468 173.5V342.899L257.179 316.917Z" fill="url(#paint5_linear_9_11444)"/>
<circle cx="128.032" cy="73.366" r="73.1131" fill="url(#paint6_linear_9_11444)"/>
<defs>
<linearGradient id="paint0_linear_9_11444" x1="61.2804" y1="108.027" x2="61.2804" y2="161.029" gradientUnits="userSpaceOnUse">
<stop stop-color="#FFF0F0" stop-opacity="0"/>
<stop offset="1" stop-color="#D8EEFE"/>
</linearGradient>
<linearGradient id="paint1_linear_9_11444" x1="61.2804" y1="108.027" x2="61.2804" y2="161.029" gradientUnits="userSpaceOnUse">
<stop stop-color="#FFF0F0" stop-opacity="0"/>
<stop offset="1" stop-color="#D8EEFE"/>
</linearGradient>
<linearGradient id="paint2_linear_9_11444" x1="199.5" y1="106.988" x2="199.5" y2="158.95" gradientUnits="userSpaceOnUse">
<stop stop-color="#FFF0F0" stop-opacity="0"/>
<stop offset="1" stop-color="#D8EEFE"/>
</linearGradient>
<linearGradient id="paint3_linear_9_11444" x1="199.5" y1="106.988" x2="199.5" y2="158.95" gradientUnits="userSpaceOnUse">
<stop stop-color="#FFF0F0" stop-opacity="0"/>
<stop offset="1" stop-color="#D8EEFE"/>
</linearGradient>
<linearGradient id="paint4_linear_9_11444" x1="62.8388" y1="146.479" x2="62.8388" y2="341.859" gradientUnits="userSpaceOnUse">
<stop stop-color="#D8EEFE"/>
<stop offset="1" stop-color="#FFDCDC" stop-opacity="0"/>
</linearGradient>
<linearGradient id="paint5_linear_9_11444" x1="194.824" y1="147.519" x2="194.824" y2="342.899" gradientUnits="userSpaceOnUse">
<stop stop-color="#FFF0F0" stop-opacity="0"/>
<stop offset="1" stop-color="#D8EEFE"/>
</linearGradient>
<linearGradient id="paint6_linear_9_11444" x1="128.032" y1="0.25293" x2="128.032" y2="122.464" gradientUnits="userSpaceOnUse">
<stop stop-color="#FFACBC"/>
<stop offset="1" stop-color="#FFCBD5" stop-opacity="0"/>
</linearGradient>
</defs>
</svg>
