<svg width="22" height="21" viewBox="0 0 22 21" fill="none" xmlns="http://www.w3.org/2000/svg">
<g clip-path="url(#clip0_2_29197)">
<path d="M17.8571 12.1429H12.1429V17.8571C12.1429 18.4857 11.6286 19 11 19C10.3714 19 9.85714 18.4857 9.85714 17.8571V12.1429H4.14286C3.51429 12.1429 3 11.6286 3 11C3 10.3714 3.51429 9.85714 4.14286 9.85714H9.85714V4.14286C9.85714 3.51429 10.3714 3 11 3C11.6286 3 12.1429 3.51429 12.1429 4.14286V9.85714H17.8571C18.4857 9.85714 19 10.3714 19 11C19 11.6286 18.4857 12.1429 17.8571 12.1429Z" fill="#62B2DE"/>
</g>
<defs>
<clipPath id="clip0_2_29197">
<rect width="22" height="21" rx="5" fill="white"/>
</clipPath>
</defs>
</svg>
