<svg width="17" height="17" viewBox="0 0 17 17" fill="none" xmlns="http://www.w3.org/2000/svg">
<path d="M14.875 8.5C14.875 8.3045 14.8665 8.1175 14.8495 7.922L16.4305 6.7235C16.7705 6.4685 16.864 5.9925 16.6515 5.6185L15.062 2.873C14.8495 2.499 14.3905 2.346 13.9995 2.516L12.172 3.2895C11.8575 3.0685 11.526 2.873 11.1775 2.7115L10.931 0.748C10.88 0.323 10.5145 0 10.0895 0H6.91897C6.48547 0 6.11997 0.323 6.06897 0.748L5.82247 2.7115C5.47397 2.873 5.14247 3.0685 4.82797 3.2895L3.00047 2.516C2.60947 2.346 2.15047 2.499 1.93797 2.873L0.348472 5.627C0.135972 6.001 0.229472 6.4685 0.569472 6.732L2.15047 7.9305C2.13347 8.1175 2.12497 8.3045 2.12497 8.5C2.12497 8.6955 2.13347 8.8825 2.15047 9.078L0.569472 10.2765C0.229472 10.5315 0.135972 11.0075 0.348472 11.3815L1.93797 14.127C2.15047 14.501 2.60947 14.654 3.00047 14.484L4.82797 13.7105C5.14247 13.9315 5.47397 14.127 5.82247 14.2885L6.06897 16.252C6.11997 16.677 6.48547 17 6.91047 17H10.081C10.506 17 10.8715 16.677 10.9225 16.252L11.169 14.2885C11.5175 14.127 11.849 13.9315 12.1635 13.7105L13.991 14.484C14.382 14.654 14.841 14.501 15.0535 14.127L16.643 11.3815C16.8555 11.0075 16.762 10.54 16.422 10.2765L14.841 9.078C14.8665 8.8825 14.875 8.6955 14.875 8.5ZM8.53397 11.475C6.89347 11.475 5.55897 10.1405 5.55897 8.5C5.55897 6.8595 6.89347 5.525 8.53397 5.525C10.1745 5.525 11.509 6.8595 11.509 8.5C11.509 10.1405 10.1745 11.475 8.53397 11.475Z" fill="#FF8CA2"/>
</svg>
