<svg width="23" height="22" viewBox="0 0 23 22" fill="none" xmlns="http://www.w3.org/2000/svg">
<g clip-path="url(#clip0_2_29190)">
<path fill-rule="evenodd" clip-rule="evenodd" d="M4.02157 16.8695H7.00495V17.9131H4.02157V16.8695ZM15.9949 16.8695H18.9783V17.9131H15.9949V16.8695ZM15.9949 7.34793H18.9783V15.7826H15.9949V7.34793ZM15.9949 5.21741H18.9783V6.26104H15.9949V5.21741ZM14.9733 4.65233V18.4782C14.9733 18.7395 15.2182 19 15.4638 19H19.4281C19.8372 19 19.9999 18.6963 19.9999 18.261V4.86953C19.9999 4.43425 19.8372 4.13052 19.4281 4.13052H15.4638C15.2182 4.13052 14.9733 4.39098 14.9733 4.65233ZM10.029 16.8695H12.9709V17.9131H10.029V16.8695ZM10.029 5.21741H12.9709V15.7826H10.029V5.21741ZM10.029 3.08689H12.9709V4.13052H10.029V3.08689ZM9.00659 2.52181V18.5214C9.00659 18.766 9.27713 19 9.49704 19H13.502C13.7227 19 13.9924 18.766 13.9924 18.5214V2.52181C13.9924 2.2119 13.7269 2 13.4207 2H9.5792C9.27215 2 9.00659 2.2119 9.00659 2.52181ZM4.02157 8.39155H7.00495V15.7826H4.02157V8.39155ZM4.02157 6.39171C4.02157 6.29106 4.04978 6.26104 4.14439 6.26104H7.00495V7.30466H4.02157V6.39171ZM3 5.91316V18.261C3 18.6892 3.17012 19 3.57178 19H7.53606C7.7817 19 8.02651 18.7395 8.02651 18.4782V5.78249C8.02651 5.3472 7.74104 5.17415 7.33108 5.17415H3.6946C3.22323 5.17415 3 5.41165 3 5.91316Z" fill="#62B2DE" stroke="#62B2DE" stroke-width="0.3"/>
</g>
<defs>
<clipPath id="clip0_2_29190">
<rect width="23" height="22" rx="5" fill="white"/>
</clipPath>
</defs>
</svg>
