<svg width="17" height="17" viewBox="0 0 17 17" fill="none" xmlns="http://www.w3.org/2000/svg">
<path d="M15.725 5.70444L11.1539 5.30778L9.36892 1.105C9.04781 0.34 7.95225 0.34 7.63114 1.105L5.84614 5.31722L1.28447 5.70444C0.453361 5.77056 0.113361 6.80944 0.746139 7.35722L4.21225 10.3606L3.17336 14.8183C2.98447 15.6306 3.86281 16.2728 4.58058 15.8383L8.50003 13.4772L12.4195 15.8478C13.1373 16.2822 14.0156 15.64 13.8267 14.8278L12.7878 10.3606L16.2539 7.35722C16.8867 6.80944 16.5561 5.77056 15.725 5.70444ZM8.50003 11.7111V2.92778L10.115 6.74333L14.2517 7.10222L11.1161 9.82222L12.0606 13.8644L8.50003 11.7111Z" fill="#FF8CA2"/>
</svg>
