<svg width="17" height="17" viewBox="0 0 17 17" fill="none" xmlns="http://www.w3.org/2000/svg">
<path d="M2.9423 9.42622H14.0577C14.5671 9.42622 14.984 9.0094 14.984 8.49994C14.984 7.99049 14.5671 7.57366 14.0577 7.57366H2.9423C2.43284 7.57366 2.01602 7.99049 2.01602 8.49994C2.01602 9.0094 2.43284 9.42622 2.9423 9.42622ZM1.08973 13.1314H12.2051C12.7146 13.1314 13.1314 12.7145 13.1314 12.2051C13.1314 11.6956 12.7146 11.2788 12.2051 11.2788H1.08973C0.580279 11.2788 0.163452 11.6956 0.163452 12.2051C0.163452 12.7145 0.580279 13.1314 1.08973 13.1314ZM3.86858 4.79481C3.86858 5.30427 4.28541 5.72109 4.79486 5.72109H15.9102C16.4197 5.72109 16.8365 5.30427 16.8365 4.79481C16.8365 4.28536 16.4197 3.86853 15.9102 3.86853H4.79486C4.28541 3.86853 3.86858 4.28536 3.86858 4.79481Z" fill="#FF8CA2"/>
</svg>
