<svg width="17" height="17" viewBox="0 0 17 17" fill="none" xmlns="http://www.w3.org/2000/svg">
<path fill-rule="evenodd" clip-rule="evenodd" d="M8.5 17C13.1944 17 17 13.1944 17 8.5C17 3.80558 13.1944 0 8.5 0C3.80558 0 0 3.80558 0 8.5C0 13.1944 3.80558 17 8.5 17ZM8.5 15C12.0899 15 15 12.0899 15 8.5C15 4.91015 12.0899 2 8.5 2C4.91015 2 2 4.91015 2 8.5C2 12.0899 4.91015 15 8.5 15Z" fill="#FF8CA2"/>
<rect x="7.65393" y="4.2533" width="1.69271" height="1.69202" fill="#FF8CA2"/>
<rect x="7.65393" y="7.65234" width="1.69271" height="5.09743" rx="0.846356" fill="#FF8CA2"/>
</svg>
