<svg width="19" height="19" viewBox="0 0 19 19" fill="none" xmlns="http://www.w3.org/2000/svg">
<path fill-rule="evenodd" clip-rule="evenodd" d="M0 2.61977V1.35639C0 1.19207 0.191898 1 0.356077 1H1.61834C1.8209 1 2 1.1878 2 1.3948C2 1.62528 1.81237 1.80455 1.57996 1.80455H0.801706C0.801706 1.84424 0.802814 1.90083 0.804111 1.967L0.804111 1.96701V1.96701C0.809296 2.23171 0.817484 2.64964 0.769723 2.75208C0.567164 3.17889 0 3.00177 0 2.61977ZM1.88922 3.29232V3.9308C1.88922 4.09291 2.03122 4.228 2.1939 4.228H16.8061C16.9688 4.228 17.1108 4.09291 17.1108 3.9308V3.29232C17.1108 3.13874 16.9715 2.99512 16.8226 2.99512H2.17736C2.02846 2.99512 1.88922 3.13874 1.88922 3.29232ZM5.02011 5.89268V18.1946C5.02011 18.3774 5.12626 18.5421 5.25585 18.6211L5.26582 18.6271C5.30671 18.6518 5.34876 18.6771 5.40613 18.6771H6.46079C6.75306 18.6771 6.873 18.2803 6.873 17.9773V6.07051C6.873 5.9783 6.8537 5.85645 6.8344 5.78071C6.81234 5.69838 6.77236 5.62099 6.72686 5.56665C6.59451 5.40857 6.38772 5.40198 6.18919 5.40198C6.15693 5.40198 6.11733 5.40065 6.07511 5.39923H6.07511H6.0751H6.0751H6.07509C5.97661 5.39591 5.86382 5.39211 5.79628 5.40363C5.73687 5.41303 5.66705 5.4109 5.59666 5.40874C5.53149 5.40675 5.46583 5.40474 5.40751 5.41186C5.21863 5.43492 5.02011 5.64404 5.02011 5.89268ZM9.57373 5.86298V18.2252C9.57373 18.4442 9.79432 18.678 9.96113 18.678H11.0241C11.2364 18.678 11.3632 18.4261 11.4004 18.212C11.4156 18.1247 11.428 18.0424 11.428 17.9386V6.10999C11.428 5.89098 11.3756 5.68513 11.286 5.56986C11.1619 5.41342 10.9248 5.40189 10.7525 5.40189C10.7141 5.40189 10.6717 5.40068 10.6282 5.39944C10.5374 5.39684 10.4415 5.3941 10.3651 5.40189C10.2866 5.40935 10.2029 5.40922 10.1178 5.4091H10.1178H10.1178C10.0713 5.40903 10.0244 5.40896 9.97768 5.41012C9.79156 5.41671 9.57373 5.64396 9.57373 5.86298ZM14.1288 18.259V5.83279C14.1288 5.72736 14.2198 5.59392 14.2722 5.5412C14.337 5.47531 14.4307 5.40941 14.5493 5.40941C14.6792 5.40941 14.8026 5.40736 14.9263 5.40531H14.9263H14.9263H14.9263H14.9263H14.9263H14.9263H14.9264H14.9264C15.0508 5.40325 15.1755 5.40118 15.3075 5.40118C15.5281 5.40118 15.7073 5.40941 15.8562 5.59886C15.9486 5.71583 15.9817 5.96129 15.9817 6.18863V17.8834C15.9817 18.2096 15.9003 18.6824 15.5626 18.6824H14.5162C14.337 18.6824 14.1288 18.4287 14.1288 18.259ZM7.72084 17.7791V6.32491C7.72084 6.06807 7.73877 5.86062 7.81735 5.69268C7.99657 5.30907 8.395 5.32059 8.57836 5.62683C8.65694 5.75854 8.69278 5.90343 8.69278 6.12899V17.9652C8.69278 18.1891 8.6597 18.3505 8.57836 18.4772C8.46255 18.6583 8.27092 18.7209 8.08067 18.6583C7.75117 18.5513 7.72084 18.1693 7.72084 17.7791ZM12.2759 6.18826V17.895C12.2759 18.2736 12.3476 18.5584 12.6412 18.6588C12.7488 18.6967 12.8729 18.6868 12.9652 18.6308C13.1348 18.5271 13.2396 18.3444 13.2396 18.0826V6.00059C13.2396 5.84419 13.1651 5.66968 13.1017 5.58572C12.8356 5.22684 12.2759 5.36842 12.2759 6.18826ZM3.17409 17.9623V6.13869C3.17409 5.928 3.2251 5.76339 3.29679 5.635C3.425 5.40455 3.65524 5.33542 3.86892 5.46546C4.0385 5.56916 4.13776 5.81442 4.13776 6.05968V18.0315C4.13776 18.2915 4.04125 18.4891 3.88133 18.6109C3.79861 18.6734 3.72003 18.68 3.62353 18.6816H3.61939C3.35194 18.6816 3.17409 18.2981 3.17409 17.9623ZM0 4.37756V5.64302C0 5.74563 0.0703625 5.83327 0.123667 5.88884C0.183369 5.9487 0.268657 6 0.381663 6H1.63113C1.8081 6 2 5.81617 2 5.60454C2 5.38437 1.8209 5.19626 1.60554 5.19626H0.801706V4.41603C0.801706 3.84529 0 3.89018 0 4.37756ZM17 1.3948C17 1.62528 17.1876 1.80455 17.42 1.80455H18.1983C18.1983 1.84424 18.1972 1.90084 18.1959 1.96702C18.1907 2.23171 18.1825 2.64964 18.2303 2.75208C18.4328 3.17889 19 3.00177 19 2.61977V1.35639C19 1.19207 18.8102 1 18.6439 1H17.3817C17.1791 1 17 1.1878 17 1.3948ZM18.198 5.1985V4.39487C18.198 4.28616 18.2642 4.16466 18.3217 4.11136C18.5947 3.85983 19 4.07086 19 4.38208V5.64402C19 5.79963 18.823 6 18.6182 6H17.3683C17.266 6 17.1572 5.92539 17.1039 5.86997C16.8671 5.61204 17.0655 5.1985 17.3939 5.1985H18.198Z" fill="black"/>
</svg>
