<svg width="17" height="17" viewBox="0 0 17 17" fill="none" xmlns="http://www.w3.org/2000/svg">
<path d="M12.75 2.70459C11.2432 2.70459 9.62045 3.01368 8.5 3.86368C7.37955 3.01368 5.75682 2.70459 4.25 2.70459C3.12955 2.70459 1.93955 2.87459 0.942727 3.31504C0.378636 3.57004 0 4.11868 0 4.74459V13.461C0 14.4655 0.942727 15.2073 1.91636 14.96C2.67364 14.7669 3.47727 14.6819 4.25 14.6819C5.45545 14.6819 6.73818 14.8828 7.77364 15.3928C8.23727 15.6246 8.76273 15.6246 9.21864 15.3928C10.2541 14.875 11.5368 14.6819 12.7423 14.6819C13.515 14.6819 14.3186 14.7669 15.0759 14.96C16.0495 15.215 16.9923 14.4732 16.9923 13.461V4.74459C16.9923 4.11868 16.6136 3.57004 16.0495 3.31504C15.0605 2.87459 13.8705 2.70459 12.75 2.70459ZM15.4545 12.5414C15.4545 13.0282 15.0064 13.3837 14.5273 13.2987C13.9477 13.1905 13.345 13.1441 12.75 13.1441C11.4364 13.1441 9.54318 13.6464 8.5 14.3032V5.40914C9.54318 4.75232 11.4364 4.25004 12.75 4.25004C13.4609 4.25004 14.1641 4.31959 14.8364 4.46641C15.1918 4.54368 15.4545 4.8605 15.4545 5.22368V12.5414Z" fill="#FF8CA2"/>
<path d="M10.03 7.73498C9.7827 7.73498 9.55861 7.58043 9.48134 7.33316C9.38088 7.03179 9.55088 6.69952 9.85225 6.60679C11.0422 6.22043 12.58 6.0968 13.9941 6.25907C14.3109 6.2977 14.5427 6.58361 14.5041 6.90043C14.4654 7.21725 14.1795 7.44907 13.8627 7.41043C12.6109 7.26361 11.2432 7.37952 10.2077 7.71179C10.1459 7.71952 10.0841 7.73498 10.03 7.73498Z" fill="#FF8CA2"/>
<path d="M10.03 9.7904C9.7827 9.7904 9.55861 9.63585 9.48134 9.38858C9.38088 9.08721 9.55088 8.75494 9.85225 8.66221C11.0345 8.27585 12.58 8.15222 13.9941 8.31449C14.3109 8.35312 14.5427 8.63903 14.5041 8.95585C14.4654 9.27267 14.1795 9.50449 13.8627 9.46585C12.6109 9.31903 11.2432 9.43494 10.2077 9.76721C10.1459 9.78267 10.0841 9.7904 10.03 9.7904Z" fill="#FF8CA2"/>
<path d="M10.03 11.8458C9.7827 11.8458 9.55861 11.6913 9.48134 11.444C9.38088 11.1426 9.55088 10.8104 9.85225 10.7176C11.0345 10.3313 12.58 10.2076 13.9941 10.3699C14.3109 10.4085 14.5427 10.6945 14.5041 11.0113C14.4654 11.3281 14.1795 11.5522 13.8627 11.5213C12.6109 11.3745 11.2432 11.4904 10.2077 11.8226C10.1459 11.8381 10.0841 11.8458 10.03 11.8458Z" fill="#FF8CA2"/>
</svg>
