<svg width="17" height="17" viewBox="0 0 17 17" fill="none" xmlns="http://www.w3.org/2000/svg">
<g clip-path="url(#clip0_2_29091)">
<path d="M1.88886 2.83335H15.1111C15.6305 2.83335 16.0555 2.40835 16.0555 1.8889C16.0555 1.36946 15.6305 0.944458 15.1111 0.944458H1.88886C1.36941 0.944458 0.944412 1.36946 0.944412 1.8889C0.944412 2.40835 1.36941 2.83335 1.88886 2.83335ZM16.2066 4.53335C16.1216 4.0989 15.7344 3.77779 15.2811 3.77779H1.71886C1.26552 3.77779 0.878301 4.0989 0.793301 4.53335L-0.151143 9.25557C-0.264477 9.84112 0.179412 10.3889 0.774412 10.3889H0.944412V15.1111C0.944412 15.6306 1.36941 16.0556 1.88886 16.0556H9.44441C9.96386 16.0556 10.3889 15.6306 10.3889 15.1111V10.3889H14.1666V15.1111C14.1666 15.6306 14.5916 16.0556 15.1111 16.0556C15.6305 16.0556 16.0555 15.6306 16.0555 15.1111V10.3889H16.2255C16.8205 10.3889 17.2644 9.84112 17.1511 9.25557L16.2066 4.53335ZM8.49997 14.1667H2.8333V10.3889H8.49997V14.1667Z" fill="#FF8CA2"/>
</g>
<defs>
<clipPath id="clip0_2_29091">
<rect width="17" height="17" fill="white"/>
</clipPath>
</defs>
</svg>
