<svg width="17" height="17" viewBox="0 0 17 17" fill="none" xmlns="http://www.w3.org/2000/svg">
<g clip-path="url(#clip0_2_29076)">
<path d="M14.6965 12.9965L13.6 11.9V7.65005C13.6 5.04055 12.206 2.85605 9.77502 2.27805V1.70005C9.77502 0.994549 9.20552 0.425049 8.50002 0.425049C7.79452 0.425049 7.22502 0.994549 7.22502 1.70005V2.27805C4.78552 2.85605 3.40002 5.03205 3.40002 7.65005V11.9L2.30352 12.9965C1.76802 13.5321 2.14202 14.45 2.89852 14.45H14.093C14.858 14.45 15.232 13.5321 14.6965 12.9965ZM11.9 12.75H5.10002V7.65005C5.10002 5.54205 6.38352 3.82505 8.50002 3.82505C10.6165 3.82505 11.9 5.54205 11.9 7.65005V12.75ZM8.50002 17C9.43502 17 10.2 16.235 10.2 15.3H6.80002C6.80002 16.235 7.55652 17 8.50002 17Z" fill="#FF8CA2"/>
</g>
<defs>
<clipPath id="clip0_2_29076">
<rect width="17" height="17" fill="white"/>
</clipPath>
</defs>
</svg>
