<svg width="17" height="17" viewBox="0 0 17 17" fill="none" xmlns="http://www.w3.org/2000/svg">
<path fill-rule="evenodd" clip-rule="evenodd" d="M0.0748291 3.48334V0.866258C0.0748291 0.660338 0.193124 0.450036 0.326022 0.317138C0.399044 0.242656 0.460381 0.201764 0.55969 0.15211C0.635633 0.114138 0.771452 0.074707 0.882445 0.074707H3.48346C3.63973 0.074707 3.76825 0.128743 3.88362 0.195922C3.96978 0.244116 4.04281 0.314217 4.10414 0.390159C4.37724 0.724597 4.34949 1.20362 4.03258 1.52053C3.89968 1.65489 3.68792 1.76442 3.42359 1.76442H1.76454V3.42346C1.76454 3.78565 1.5484 4.09234 1.26508 4.21355L1.2537 4.21835C1.20359 4.23953 1.16267 4.25682 1.10151 4.26905C0.816725 4.32893 0.521719 4.24422 0.328943 4.05145C0.209188 3.93169 0.0748291 3.71993 0.0748291 3.48334ZM13.4114 3.58996H11.4501V5.55131H13.4114V3.58996ZM10.4614 5.84486V3.29495C10.4614 3.18396 10.4789 3.09633 10.5125 3.01455C10.6059 2.77942 10.8455 2.60125 11.0952 2.60125H13.7722C13.8613 2.60125 13.9635 2.63484 14.0263 2.66405C14.0745 2.68595 14.1723 2.75459 14.2088 2.7911L14.2789 2.87873C14.2994 2.90502 14.3257 2.94883 14.3388 2.97804C14.3666 3.0423 14.3987 3.1343 14.3987 3.22777V5.89743C14.3987 6.00843 14.368 6.09459 14.3315 6.16907C14.2103 6.41004 13.981 6.53856 13.705 6.53856H11.1551C10.9302 6.53856 10.7695 6.45532 10.6571 6.34286C10.5446 6.23041 10.4614 6.07122 10.4614 5.84486ZM9.15721 8.4999V9.80553H7.84429V8.4999H9.15721ZM11.7743 8.4999H9.15721V7.18698H5.21844V8.4999H3.91428V9.81283H5.2272V8.4999H6.53136V9.81283H7.84429V13.0871L7.98115 13.0865C8.32146 13.0848 9.13774 13.0808 9.14991 13.0929C9.1623 13.1053 9.15892 13.9529 9.15761 14.2805L9.15721 14.3986H10.4687V13.0871H9.15721V9.81283H11.7816V8.4999H13.0858V7.18698H11.7743V8.4999ZM3.59008 11.45H5.55143V13.4113H3.59008V11.45ZM2.60137 11.1024V13.7735C2.60137 13.8947 2.6554 14.032 2.72112 14.1211C2.73281 14.1372 2.74157 14.1488 2.75471 14.1634C2.76239 14.1718 2.76773 14.1792 2.7728 14.1862L2.77281 14.1862C2.77836 14.1939 2.7836 14.2011 2.79122 14.2087C2.89638 14.3124 3.07455 14.3986 3.22789 14.3986H5.90486C6.15313 14.3986 6.39702 14.2189 6.48903 13.9867C6.52116 13.9049 6.53868 13.8159 6.53868 13.7049V11.155C6.53868 10.9651 6.4715 10.7825 6.34445 10.6555C6.21739 10.5284 6.0363 10.4612 5.84498 10.4612H3.28047C3.00737 10.4612 2.78538 10.6 2.66709 10.8366C2.63058 10.9081 2.60137 10.9958 2.60137 11.1024ZM3.59008 3.58996H5.55143V5.55131H3.59008V3.58996ZM2.60137 3.22777V5.89743C2.60137 6.25086 2.90222 6.53856 3.29507 6.53856H5.84498C6.24952 6.53856 6.53868 6.25086 6.53868 5.84486V3.29495C6.53868 3.01893 6.41017 2.7911 6.16919 2.66843C6.10348 2.6363 6.00417 2.60125 5.90486 2.60125H3.22789C3.07455 2.60125 2.89638 2.68741 2.79122 2.7911C2.78415 2.79888 2.77982 2.80495 2.7754 2.81113C2.77071 2.81771 2.76592 2.82442 2.75763 2.83345C2.66855 2.93422 2.60137 3.08757 2.60137 3.22777ZM13.0858 11.117V8.49991H14.3987V11.1258H13.0858V13.0871H14.3987V14.3986H11.7743V12.4372H10.7783L10.7577 12.4376L10.7391 12.4381L10.739 12.4381C10.6542 12.4403 10.4763 12.445 10.4643 12.427C10.4599 12.4168 10.4541 11.1389 10.4687 11.1243C10.4829 11.1087 12.4662 11.115 12.9719 11.1167H12.972H12.9721L13.0858 11.117ZM0.0748291 13.5165V16.1335C0.0748291 16.5264 0.461841 16.9266 0.882443 16.9266H3.48346C3.73903 16.9266 4.00337 16.7659 4.14211 16.5585C4.31444 16.3 4.33488 16.0226 4.21367 15.7363C4.09391 15.4515 3.78723 15.2368 3.42358 15.2368H1.76454V13.5924C1.76454 13.3149 1.66085 13.1061 1.52065 12.9674C1.22564 12.6738 0.796278 12.6227 0.447237 12.8549C0.232555 12.998 0.0748291 13.2565 0.0748291 13.5165ZM12.709 0.918833C12.709 1.04881 12.7396 1.1525 12.7864 1.26349C12.8302 1.36718 12.8901 1.44313 12.9646 1.51761C13.1004 1.65489 13.3048 1.76442 13.5765 1.76442H15.2355V3.42346C15.2355 3.84553 15.5261 4.18727 15.8927 4.26759C16.1833 4.33185 16.4666 4.24714 16.6711 4.05145C16.8157 3.91271 16.9252 3.6878 16.9252 3.48334V0.866258C16.9252 0.756726 16.8799 0.623827 16.8434 0.549345C16.7091 0.282087 16.4243 0.074707 16.1191 0.074707H13.5166C13.3589 0.074707 13.1836 0.141887 13.0624 0.230973L12.9485 0.328821C12.8039 0.480705 12.709 0.698309 12.709 0.918833ZM15.2355 15.2368V13.5763C15.2355 13.2156 15.4517 12.9075 15.7364 12.7862C16.0227 12.665 16.2987 12.6855 16.5572 12.8593L16.769 13.0623C16.858 13.1835 16.9252 13.3587 16.9252 13.5165V16.1335C16.9252 16.5264 16.5382 16.9265 16.1191 16.9265H13.5166C13.3618 16.9265 13.2318 16.871 13.1164 16.8053C13.0828 16.7857 13.0606 16.7673 13.0375 16.7482L13.0374 16.7482L13.0374 16.7482C13.0243 16.7374 13.011 16.7264 12.9952 16.7148C12.9485 16.6783 12.8857 16.5979 12.8521 16.5483C12.8243 16.5074 12.801 16.4694 12.7805 16.4169C12.709 16.2445 12.6885 16.078 12.7338 15.8867C12.7586 15.7787 12.8083 15.6823 12.8696 15.5917C13.004 15.3931 13.2727 15.2368 13.5765 15.2368H15.2355ZM8.50003 3.91416H7.1871V6.53856H9.81295V5.21832H8.50003V3.91416ZM3.9143 7.18698V8.4999H2.60137V7.18698H3.9143ZM8.50004 3.91417H9.81296V2.60125H8.50004V3.91417ZM12.928 5.0606H11.9393V4.07188H12.9047C12.9222 4.07188 12.928 4.07772 12.928 4.09525V5.0606ZM4.072 4.09525V5.0606H5.06072V4.07188H4.09537C4.07785 4.07188 4.072 4.07772 4.072 4.09525ZM4.09537 12.9279C4.07785 12.9279 4.072 12.9221 4.072 12.906V11.9392H5.06072V12.9279H4.09537Z" fill="black"/>
</svg>
