<svg width="17" height="17" viewBox="0 0 17 17" fill="none" xmlns="http://www.w3.org/2000/svg">
<g clip-path="url(#clip0_2_29077)">
<path fill-rule="evenodd" clip-rule="evenodd" d="M4.29541 3.00373V14.0023C4.29541 14.2412 4.48971 14.5193 4.65672 14.5193H5.60931C5.91854 14.5193 6.00348 14.0194 6.00348 13.6263V3.37973C6.00348 2.25145 5.5653 2.48668 4.65672 2.48668C4.48971 2.48668 4.29541 2.7648 4.29541 3.00373ZM2.58728 3.37973V13.6263C2.58728 14.8812 3.47417 14.7441 3.47417 13.7673V3.23874C3.47417 2.25632 2.58728 2.12907 2.58728 3.37973ZM10.9964 3.37973V13.6263C10.9964 13.8301 11.02 14.083 11.0733 14.2213C11.2521 14.6856 11.8833 14.6843 11.8833 13.7673V3.23874C11.8833 2.25632 10.9964 2.12907 10.9964 3.37973ZM6.79186 3.37973V13.6263C6.79186 13.8301 6.81541 14.083 6.86872 14.2213C7.0475 14.6856 7.67875 14.6843 7.67875 13.7673V3.23874C7.67875 2.25632 6.79186 2.12907 6.79186 3.37973ZM12.7046 3.00373V14.0023C12.7046 14.2412 12.8989 14.5193 13.0659 14.5193H14.0185C14.3277 14.5193 14.4127 14.0194 14.4127 13.6263V3.37973C14.4127 2.25145 13.9745 2.48668 13.0659 2.48668C12.8989 2.48668 12.7046 2.7648 12.7046 3.00373ZM8.49999 3.00373V14.0023C8.49999 14.2412 8.6943 14.5193 8.8613 14.5193H9.81389C10.1231 14.5193 10.2081 14.0194 10.2081 13.6263V3.37973C10.2081 2.25145 9.76989 2.48668 8.8613 2.48668C8.6943 2.48668 8.49999 2.7648 8.49999 3.00373Z" fill="#363636"/>
<path d="M16.1499 4.25003C15.6824 4.25003 15.2998 3.86741 15.2998 3.39997L15.3001 1.69986H13.6C13.1326 1.69986 12.75 1.31725 12.75 0.84981C12.75 0.382373 13.1326 -0.000244141 13.6 -0.000244141L16.1499 9.22121e-05C16.6173 9.22121e-05 16.9999 0.382709 16.9999 0.850146V3.40031C16.9999 3.86741 16.6176 4.25003 16.1499 4.25003ZM16.9999 16.1498V13.6C16.9999 13.1326 16.6173 12.7499 16.1499 12.7499C15.6824 12.7499 15.2998 13.1326 15.2998 13.6V15.3001H13.6C13.1326 15.3001 12.75 15.6827 12.75 16.1502C12.75 16.6176 13.1326 17.0002 13.6 17.0002L16.1499 16.9999C16.6176 16.9999 16.9999 16.6176 16.9999 16.1498ZM0.850176 16.9999H3.4C3.86744 16.9999 4.25005 16.6173 4.25005 16.1498C4.25005 15.6824 3.86744 15.2998 3.4 15.2998L1.69989 15.3001V13.6C1.69989 13.1326 1.31728 12.7499 0.849839 12.7499H0.850176C0.382739 12.7499 0.00012207 13.1326 0.00012207 13.6V16.1502C0.00012207 16.6176 0.382402 16.9999 0.850176 16.9999ZM0.00012207 0.850146V3.40031C0.00012207 3.86775 0.382739 4.25036 0.850176 4.25036V4.25003C1.31761 4.25003 1.70023 3.86741 1.70023 3.39997L1.69989 1.69986H3.4C3.86744 1.69986 4.25005 1.31725 4.25005 0.84981C4.25005 0.382373 3.86744 -0.000244141 3.4 -0.000244141L0.850176 9.22121e-05C0.382402 9.22121e-05 0.00012207 0.382373 0.00012207 0.850146Z" fill="#363636"/>
</g>
<defs>
<clipPath id="clip0_2_29077">
<rect width="17" height="17" fill="white"/>
</clipPath>
</defs>
</svg>
