<svg width="17" height="17" viewBox="0 0 17 17" fill="none" xmlns="http://www.w3.org/2000/svg">
<path d="M15.3 2.55005H1.7C0.765 2.55005 0.00849999 3.31505 0.00849999 4.25005L0 12.75C0 13.685 0.765 14.45 1.7 14.45H15.3C16.235 14.45 17 13.685 17 12.75V4.25005C17 3.31505 16.235 2.55005 15.3 2.55005ZM7.65 5.10005H9.35V6.80005H7.65V5.10005ZM7.65 7.65005H9.35V9.35005H7.65V7.65005ZM5.1 5.10005H6.8V6.80005H5.1V5.10005ZM5.1 7.65005H6.8V9.35005H5.1V7.65005ZM4.25 9.35005H2.55V7.65005H4.25V9.35005ZM4.25 6.80005H2.55V5.10005H4.25V6.80005ZM11.05 12.75H5.95C5.4825 12.75 5.1 12.3675 5.1 11.9C5.1 11.4325 5.4825 11.05 5.95 11.05H11.05C11.5175 11.05 11.9 11.4325 11.9 11.9C11.9 12.3675 11.5175 12.75 11.05 12.75ZM11.9 9.35005H10.2V7.65005H11.9V9.35005ZM11.9 6.80005H10.2V5.10005H11.9V6.80005ZM14.45 9.35005H12.75V7.65005H14.45V9.35005ZM14.45 6.80005H12.75V5.10005H14.45V6.80005Z" fill="#62B2DE"/>
</svg>
