<svg width="17" height="14" viewBox="0 0 17 14" fill="none" xmlns="http://www.w3.org/2000/svg">
<path d="M1.34211 5.36842C0.599474 5.36842 0 5.9679 0 6.71053C0 7.45316 0.599474 8.05263 1.34211 8.05263C2.08474 8.05263 2.68421 7.45316 2.68421 6.71053C2.68421 5.9679 2.08474 5.36842 1.34211 5.36842ZM1.34211 0C0.599474 0 0 0.599474 0 1.34211C0 2.08474 0.599474 2.68421 1.34211 2.68421C2.08474 2.68421 2.68421 2.08474 2.68421 1.34211C2.68421 0.599474 2.08474 0 1.34211 0ZM1.34211 10.7368C0.599474 10.7368 0 11.3453 0 12.0789C0 12.8126 0.608421 13.4211 1.34211 13.4211C2.07579 13.4211 2.68421 12.8126 2.68421 12.0789C2.68421 11.3453 2.08474 10.7368 1.34211 10.7368ZM4.92105 12.9737H15.6579C16.15 12.9737 16.5526 12.5711 16.5526 12.0789C16.5526 11.5868 16.15 11.1842 15.6579 11.1842H4.92105C4.42895 11.1842 4.02632 11.5868 4.02632 12.0789C4.02632 12.5711 4.42895 12.9737 4.92105 12.9737ZM4.92105 7.60526H15.6579C16.15 7.60526 16.5526 7.20263 16.5526 6.71053C16.5526 6.21842 16.15 5.81579 15.6579 5.81579H4.92105C4.42895 5.81579 4.02632 6.21842 4.02632 6.71053C4.02632 7.20263 4.42895 7.60526 4.92105 7.60526ZM4.02632 1.34211C4.02632 1.83421 4.42895 2.23684 4.92105 2.23684H15.6579C16.15 2.23684 16.5526 1.83421 16.5526 1.34211C16.5526 0.85 16.15 0.447368 15.6579 0.447368H4.92105C4.42895 0.447368 4.02632 0.85 4.02632 1.34211Z" fill="#FF8CA2"/>
</svg>
