<svg width="352" height="218" viewBox="0 0 352 218" fill="none" xmlns="http://www.w3.org/2000/svg">
<path fill-rule="evenodd" clip-rule="evenodd" d="M259.658 175.794C257.991 177.722 255.528 179.154 253.639 180.917C251.655 182.769 249.501 184.388 247.525 186.217C238.807 175.562 226.864 169.029 216.518 160.187C211.614 155.995 208 150.309 205.356 144.473C204 141.482 202.998 138.403 202.215 135.216C201.862 133.781 201.516 132.35 201.286 130.895C201.006 129.133 200.934 128.983 199.745 127.607C199.233 127.015 198.242 125.286 197.24 125.477C196.396 125.637 194.853 128.205 194.32 128.839C191.756 131.89 189.271 135.033 186.572 137.966C182.443 142.453 178.683 146.868 174.849 151.624C167.006 161.354 158.546 170.513 150.008 179.669C149.375 180.348 147.899 182.339 146.989 182.607C145.883 182.932 144.086 181.575 142.972 180.817C140.283 178.986 138.164 176.721 135.865 174.452C131.38 170.025 128.342 163.81 126.299 157.897C125.076 154.358 124.281 150.689 123.019 147.161C122.493 145.691 121.3 143.885 121.906 142.604C122.086 142.222 123.233 141.208 123.638 141.131C124.116 141.039 124.914 141.695 125.08 141.649C126.668 141.215 125.787 139.553 126.731 138.659C127.267 138.152 129.989 138.226 130.802 137.947C133.775 136.927 136.441 134.983 139.251 133.822C151.015 128.961 162.922 124.234 173.077 116.298C175.711 114.24 177.461 112.693 180.603 111.363C183.779 110.019 186.971 108.82 190.212 107.647C193.071 106.612 195.945 105.642 198.899 104.9C202.092 104.098 206.623 103.08 209.814 104.114C216.08 106.143 218.103 111.306 220.599 116.752C223.975 124.121 228.057 131.095 232.483 137.877C240.996 150.928 251.35 162.638 259.658 175.794Z" fill="#FFCDD6"/>
<path fill-rule="evenodd" clip-rule="evenodd" d="M70.9436 60.4224C70.5988 60.2474 67.9067 61.3432 67.4548 61.5108C65.6498 62.1805 63.9497 63.2932 62.2492 64.1985C63.5524 65.7845 64.8561 67.371 66.1589 68.9574C67.4363 65.824 69.0781 63.2386 70.9436 60.4224ZM71.8323 79.9175C71.3889 79.9674 75.1325 88.9634 75.5696 89.9735C77.1604 93.6473 78.8306 97.2853 80.4425 100.95C82.0042 104.501 83.9853 107.768 85.9811 111.086C87.6883 113.923 89.4441 118.326 92.0192 120.427C90.3933 113.214 90.6075 104.92 85.9438 98.8636C81.1097 92.5848 76.3301 86.4537 71.8323 79.9175ZM259.659 176.114C252.435 164.674 243.392 154.555 235.86 143.319C231.642 137.028 227.536 130.657 223.986 123.96C221.403 119.089 219.798 112.139 215.809 108.415C214.051 106.775 212.173 105.169 209.815 104.434C206.587 103.428 202.142 104.425 198.9 105.22C192.857 106.702 186.954 109.002 181.231 111.419C175.425 113.869 170.472 118.272 165.227 121.808C159.6 125.603 153.509 128.367 147.205 130.787C141.716 132.894 136.832 135.919 131.372 138.039C130.284 138.462 128.064 138.4 127.151 138.951C126.168 139.544 126.555 141.297 125.361 141.943C124.823 142.235 124.643 141.177 124.23 141.195C123.724 141.216 123.263 141.809 122.775 142.185C120.791 143.716 122.007 144.737 122.792 146.844C125.353 153.708 126.73 160.691 130.326 167.171C133.282 172.498 137.513 177.27 142.495 180.797C143.253 181.333 145.724 183.413 146.613 183.274C147.414 183.15 149.043 181.021 149.596 180.443C152.105 177.82 154.398 174.998 156.905 172.37C160.779 168.309 164.509 164.14 168.268 160.024C172.633 155.245 176.496 149.831 180.427 144.726C182.235 142.377 184.563 140.464 186.573 138.286C189.276 135.357 191.758 132.209 194.322 129.159C195.097 128.236 196.396 125.875 197.602 125.903C198.446 125.923 199.936 127.912 200.378 128.535C202.02 130.851 202.013 135.035 202.829 137.927C204.822 144.978 208.415 151.866 213.344 157.307C218.244 162.718 224.522 166.567 230.318 170.916C236.598 175.628 242.546 180.451 247.526 186.537C249.502 184.708 251.656 183.089 253.64 181.237C255.53 179.473 257.992 178.042 259.659 176.114ZM166.672 208.477C168.076 208.491 170.454 209.355 171.711 208.835C167.984 204.712 164.562 201.174 159.847 198.152C154.954 195.016 150.077 191.908 145.325 188.563C135.748 181.823 128.704 173.828 124.703 162.603C123.673 159.712 122.983 156.68 122.228 153.709C121.822 152.108 121.014 144.621 119.641 143.975C118.827 143.591 112.706 147.894 111.736 148.43C109.469 149.684 107.193 150.656 104.848 151.638C99.8092 153.747 94.6143 155.357 89.2706 156.7C82.8641 158.311 78.5002 155.646 74.5314 150.61C70.0288 144.898 66.287 138.452 62.1702 132.453C60.298 129.724 58.7471 127 57.3644 123.99C56.4596 122.021 52.8707 116.708 54.1108 114.61C57.6487 117.303 58.9217 122.659 61.3318 126.266C64.3355 130.761 67.7206 134.999 70.7398 139.489C73.2788 143.265 75.869 147.842 79.62 150.556C82.9194 152.944 86.0539 152.21 89.6047 151.137C93.9084 149.836 98.3693 149.195 102.587 147.582C107.151 145.837 111.47 143.361 115.923 141.343C117.999 140.401 120.485 139.866 122.441 138.693C124.127 137.682 123.876 137.148 123.999 134.995C124.144 132.484 124.31 129.97 124.422 127.456C124.496 125.767 123.583 123.477 124.203 122.216C119.147 123.093 114.206 124.267 109.185 125.305C106.437 125.874 103.786 126.577 101.01 127.024C99.9513 127.194 98.5044 127.189 97.5567 127.65C96.8006 127.433 96.4152 127.571 96.4004 128.064C96.3642 128.332 96.307 128.596 96.2284 128.855C94.6782 129.56 93.7766 128.048 92.432 126.597C90.7728 124.806 89.5305 122.79 88.3133 120.686C85.5916 115.982 82.4546 111.557 79.936 106.72C77.369 101.79 75.2842 96.5108 73.1078 91.3953C71.1112 86.7021 69.8327 81.6265 67.6265 77.0445C66.6418 74.9992 65.394 73.3079 63.9368 71.5801C62.7343 70.1543 60.8843 67.0786 59.0886 66.4236C58.6138 66.2505 57.3703 66.5414 56.831 66.503C55.7559 66.4262 54.7978 66.0315 53.6976 66.1179C51.3156 66.3044 48.7187 67.8107 46.8152 69.1349C48.0453 70.2314 51.1225 71.5642 48.9122 73.5394C46.7672 75.457 45.5825 72.0172 44.764 70.5102C40.9096 73.6752 41.4667 78.0394 41.0215 82.5114C40.7889 84.8462 40.1772 87.1455 39.7825 89.4452C39.4982 91.1003 39.6976 92.8122 39.6164 94.502C39.4092 98.7961 38.9777 102.906 38.998 107.14C39.0208 111.666 39.3291 116.036 39.6913 120.529C40.3008 128.093 41.6975 135.659 42.8951 143.163C43.5689 147.381 44.4911 151.479 45.3864 155.629C46.4024 160.339 48.282 164.8 49.336 169.497C50.41 168.132 51.2178 168.125 52.9548 168.306C54.2909 168.445 55.1884 168.127 55.1102 169.982C55.0596 171.185 53.9985 172.103 52.8245 172.313C51.2935 172.587 50.7733 171.823 49.9843 170.663C49.7997 172.859 51.2765 175.155 51.8606 177.3C52.4132 179.332 52.7795 181.325 53.7083 183.27C54.6147 185.167 55.3907 187.039 56.3078 188.919C56.7302 189.783 57.1252 190.662 57.5524 191.524C57.7683 191.961 58.0227 192.563 58.345 192.931C59.1011 193.794 58.9808 193.376 59.8657 193.867C61.7936 194.938 61.0696 194.671 61.1147 196.883C61.1586 199.064 62.2773 200.667 64.0712 201.893C67.8771 204.495 71.6311 205.219 75.958 206.533C79.9895 207.758 84.236 208.809 88.5049 208.785C93.7334 208.756 98.8925 208.071 104.121 208.001C109.889 207.925 115.713 207.956 121.469 208.155C123.84 208.237 126.043 208.343 128.332 208.948C130.991 209.652 133.562 209.373 136.303 209.266C142.148 209.039 148.196 208.587 153.965 208.546C158.119 208.516 162.502 208.227 166.672 208.477ZM318.257 210.743C319.296 211.292 321.626 211.067 322.671 210.914C324.511 210.646 324.708 209.916 325.876 208.275C327.886 205.449 329.518 202.743 330.7 199.469C332.963 193.204 333.887 186.794 334.881 180.239C335.985 172.957 333.969 165.408 333.247 158.175C333.081 156.515 332.855 154.871 332.593 153.224C332.436 152.239 332.395 148.89 331.747 148.037C330.502 146.399 324.713 147.72 322.437 147.869C316.084 148.284 309.689 148.381 303.339 148.453C299.953 148.491 296.549 148.633 293.196 148.659C291.657 148.671 290.152 148.595 288.606 148.445C288.09 148.395 287.585 148.276 287.064 148.248C285.282 148.149 285.416 147.891 284.955 149.469C284.148 152.234 284.769 155.752 284.557 158.622C284.274 162.457 284.12 166.347 284.191 170.19C284.256 173.742 284.134 177.285 284.267 180.845C284.322 182.319 284.483 183.52 284.872 184.928C285.312 186.52 285.795 190.238 286.89 191.34C287.015 191.465 287.946 191.173 288.193 191.485C288.573 191.966 288.503 192.984 288.765 193.295C289.611 194.301 291.359 194.381 292.627 194.833C296.107 196.074 299.299 197.421 302.578 199.094C305.508 200.589 310.233 201.861 311.995 204.811C312.802 206.163 312.911 207.945 313.654 209.34C314.5 210.929 312.808 210.098 314.88 210.743C315.813 211.033 317.3 210.743 318.257 210.743ZM9.33499 192.772C9.07138 196.441 7.00429 199.936 6.28474 203.544C5.94803 205.233 5.3769 206.894 4.98112 208.573C4.6016 210.185 3.23042 212.092 3.36924 213.687C8.4301 211.884 13.5563 211.43 18.8457 210.944C23.8589 210.483 29.155 210.299 34.1261 210.297C39.1918 210.295 44.6082 209.8 49.8241 209.723C55.2789 209.643 60.816 209.501 66.1918 208.936C63.3808 206.854 59.8635 204.899 57.7879 202.002C55.5314 198.853 54.3596 194.908 52.3741 191.585C48.3898 184.917 45.8568 176.644 43.7683 169.152C39.5517 154.03 34.8398 139.186 33.7041 123.5C31.5429 124.607 29.8273 128.901 28.7452 131.039C27.364 133.769 26.6408 136.729 25.7429 139.63C23.894 145.607 22.6144 151.804 20.3505 157.724C16.0236 169.041 13.2425 181.234 9.33499 192.772ZM284.054 104.632C284.99 111.396 286.953 118.247 287.028 125.092C287.044 126.598 286.789 128.27 287.103 129.755C287.438 131.341 288.529 132.742 289.158 134.249C290.157 136.64 292.687 141.542 290.247 143.569C290.198 141.646 288.438 139.204 287.551 137.522C286.215 134.988 284.46 132.672 283.011 130.201C279.98 125.029 276.582 119.967 272.675 115.408C268.87 110.966 264.484 107.027 260.448 102.798C259.236 101.527 249.509 89.2968 249.122 89.4677C252.139 101.102 257.268 111.226 264.287 120.967C267.728 125.743 271.858 128.885 276.047 132.931C279.536 136.3 286.111 139.902 284.905 145.423C290.358 144.899 295.775 144.061 301.278 144.061C300.373 137.096 299.68 130.242 298.065 123.392C296.231 115.613 294.988 107.602 293.436 99.7545C291.852 91.7431 289.166 83.9871 287.494 75.9908C285.894 68.3338 284.519 60.6905 283.346 52.9482C282.376 57.2382 282.734 61.9501 282.39 66.3273C282.039 70.7993 282.073 75.1889 282.19 79.6871C282.406 88.0423 283.297 96.2967 284.054 104.632ZM307.684 64.7973C307.715 61.221 308.408 57.693 308.622 54.1251C308.687 53.0305 309.778 45.5621 308.761 45.1723C307.925 46.9953 307.73 49.3282 306.97 51.241C306.212 53.152 305.197 54.9724 304.469 56.8967C302.892 61.0652 302.347 65.782 302.178 70.2137C301.793 80.238 301.595 90.2397 302.268 100.264C302.557 104.561 302.779 108.865 302.7 113.17C302.613 117.907 301.887 122.019 302.768 126.717C303.64 131.369 304.188 136.003 304.479 140.723C304.683 144.036 304.764 143.802 307.925 143.569C310.207 143.401 312.512 143.58 314.797 143.476C313.729 130.563 313.554 117.624 311.847 104.76C310.976 98.198 310.953 91.5407 309.871 85.0027C309.334 81.755 308.432 78.5726 307.914 75.3211C307.357 71.83 307.631 68.3153 307.684 64.7973ZM76.5313 56.6711C82.6167 57.1983 89.0897 59.0176 95.3272 57.8163C94.299 57.3999 91.6083 56.8254 92.8193 55.1818C94.0505 53.5104 96.1254 55.6303 97.3533 55.4114C98.1105 55.2763 99.7837 52.1112 100.25 51.4559C101.31 49.9666 101.437 49.707 103.342 49.3253C105.187 48.9561 105.605 49.3559 105.839 47.5214C106.108 45.4119 105.378 43.0402 105.45 40.883C105.605 36.239 107.104 32.1664 108.498 27.7971C102.574 29.0859 96.7807 30.6144 90.723 31.445C88.1335 31.8002 84.1049 32.6194 81.7524 30.8591C81.1407 30.4013 81.2385 29.7833 80.7379 29.2528C79.8983 28.3627 78.3411 27.4419 77.1505 27.1883C69.8231 25.6284 69.1084 36.0739 72.7804 39.9826C73.7 40.962 74.9796 41.4457 75.9214 42.3432C77.1785 43.5401 77.2815 44.8009 77.465 46.628C77.8091 50.0541 77.3417 53.4935 75.8801 56.6275L76.5313 56.6711ZM165.449 105.984C167.612 106.394 169.87 106.301 172.038 106.651C172.809 106.775 175.119 107.21 175.796 106.759C176.831 106.071 177.198 103.549 177.688 102.374C178.548 100.308 179.765 98.5052 180.585 96.4011C183.938 87.8071 187.064 79.1788 191.118 70.8783C189.564 70.4744 188.371 70.4585 186.805 70.2499C185.173 70.0324 183.694 69.0677 182.138 68.6531C180.659 68.2592 179.109 68.3596 177.643 67.9015C176.836 67.6493 176.143 67.0885 175.347 66.8925C174.078 66.5805 172.597 66.3981 171.842 67.231C171.069 68.0853 170.797 70.4278 170.377 71.5314C169.256 74.4712 167.954 77.3085 167.015 80.3159C166.167 83.0283 165.363 85.712 164.617 88.4491C163.829 91.3388 162.276 93.7204 161.33 96.4809C160.611 98.5819 159.932 100.73 159.824 102.97C159.72 105.156 159.402 105.295 161.588 105.645C162.691 105.821 164.411 106.476 165.449 105.984ZM307.768 208.292C308.332 208.555 308.863 208.52 309.361 208.188C304.477 206.125 299.726 203.263 294.63 201.848C289.85 200.521 285.204 198.935 280.599 197.3C276.858 195.971 273.494 194.937 270.111 192.6C268.057 191.18 266.233 189.585 264.822 187.511C263.251 185.202 262.902 181.916 261.2 179.837C258.904 182.359 256.206 184.269 253.489 186.273C252.549 186.966 250.295 188.478 249.973 189.55C249.568 190.904 250.654 192.199 251.192 193.569C252.569 197.078 253.241 200.585 253.988 204.233C254.288 205.695 254.934 207.893 256.135 208.505C257.229 209.063 260.396 208.658 261.756 208.554C268.856 208.016 275.83 207.465 282.972 207.955C291.054 208.509 299.707 208.892 307.768 208.292ZM321.948 143.274C323.239 143.278 324.499 143.117 325.785 143.117C325.043 139.652 326.777 135.168 327.393 131.71C328.081 127.841 328.605 123.84 329.063 119.941C330.031 111.727 330.469 103.612 330.482 95.3379C330.493 87.3312 331.951 80.0146 333.993 72.3177C336.185 64.0516 339.775 56.6179 342.743 48.646C339.487 50.3672 337.685 54.3946 335.974 57.4737C333.811 61.3668 332.371 65.6775 331.488 70.0479C329.784 78.4791 327.915 86.9358 325.949 95.353C323.902 104.117 322.698 112.962 320.353 121.655C319.209 125.894 317.654 131.109 317.568 135.48C317.532 137.289 316.987 141.076 317.807 142.646C318.573 144.116 320.268 143.423 321.948 143.274ZM127.182 132.399C127.114 133.299 127.049 134.156 126.89 135.045C128.677 135.028 130.94 133.173 132.473 132.341C134.341 131.327 136.21 130.208 138.037 129.189C141.562 127.22 145.565 125.923 149.33 124.306C153.654 122.448 157.63 120.204 161.765 117.967C163.21 117.186 173.592 112.685 173.418 111.456C171.139 111.38 168.859 111.304 166.579 111.229C164.625 111.164 161.599 111.605 159.727 111.001C158.702 110.67 157.552 109.451 157.165 108.497C156.782 107.553 157.642 103.209 157.142 102.932C154.591 105.537 152.987 108.999 150.706 111.809C148.186 114.914 144.929 116.728 141.339 118.378C137.375 120.201 133.272 121.612 129.221 123.174C127.512 123.833 127.546 124.21 127.398 126.083C127.231 128.177 127.249 130.3 127.182 132.399ZM333.17 211.17C337.467 211.631 341.871 211.368 346.202 211.728C347.777 211.858 349.962 212.053 348.377 214.168C347.378 215.5 344.18 215.073 342.73 215.165C338.835 215.413 334.712 215.28 330.808 215.222C329.986 215.21 329.078 214.966 328.248 215.021C327.289 215.084 326.141 215.774 325.267 215.769C324.728 215.765 324.535 215.197 324.071 215.145C323.059 215.031 322.047 214.948 321.027 214.949C305.598 214.952 290.382 214.642 274.991 214.625C267.632 214.617 260.155 214.49 252.799 214.145C251.254 214.072 242.457 214.388 242.701 211.607C242.826 210.174 245.697 209.972 246.745 209.82C247.521 209.708 248.327 209.725 249.105 209.683C251.172 209.573 252.077 210.07 251.641 207.809C249.987 199.232 247.024 192.143 240.693 185.976C235.517 180.934 229.283 176.359 223.42 172.148C216.3 167.035 210.525 161.657 206.298 153.833C203.829 149.264 201.763 144.593 200.495 139.541C200.038 137.723 200.028 135.656 199.468 133.904C199.038 132.555 198.058 131.611 197.48 130.213C190.397 142.045 181.009 151.943 172.401 162.61C168.288 167.707 163.596 172.547 158.681 176.981C157.223 178.296 155.862 179.67 154.501 181.086C153.362 182.271 151.555 183.324 150.594 184.639C149.671 185.9 149.898 185.84 151.302 186.842C153.158 188.165 155.202 189.265 157.087 190.556C160.1 192.619 163.388 194.362 166.082 196.846C168.995 199.531 171.54 202.642 174.087 205.67C175.784 207.688 178.011 210.278 178.437 212.83C178.579 213.674 179.116 215.763 178.407 216.381C177.802 216.909 177.863 216.709 177.111 216.387C176.126 215.964 175.836 214.995 174.633 214.533C171.554 213.352 167.829 213.758 164.625 213.743C161.421 213.729 158.19 214.089 154.987 214.075C147.672 214.046 140.514 214.638 133.201 214.956C125.435 215.293 117.573 214.483 109.833 214.598C104.098 214.683 98.2102 214.254 92.3168 214.573C89.2854 214.736 86.3082 214.357 83.3525 214.315C79.4826 214.259 75.5083 214.785 71.6052 214.86C65.199 214.984 58.8711 214.983 52.4258 215.137C38.5619 215.469 24.7731 215.812 10.9011 216.031C9.05071 216.061 7.02496 215.998 5.19636 216.206C3.25553 216.428 4.25751 216.84 2.92584 217.539C-0.802243 219.494 0.0587086 212.245 0.148053 210.819C0.627262 203.178 2.56699 195.685 4.89806 188.431C7.10951 181.551 8.90488 174.35 10.7778 167.322C12.8279 159.629 15.499 152.251 17.9246 144.634C20.41 136.828 22.4335 128.719 26.9476 121.8C27.9758 120.224 29.0383 118.528 30.6923 117.535C32.5464 116.421 32.6261 117.071 32.6246 115.033C32.6235 113.113 32.7417 110.549 32.2887 108.717C31.8792 107.062 31.9424 108.043 31.0205 106.854C30.2703 105.887 29.4854 105.226 28.9471 104.052C25.6406 107.405 18.0719 105.636 14.8773 103.222C10.9672 100.267 7.98892 95.2814 6.89759 90.5336C6.02113 86.721 7.09658 79.4534 11.3164 77.62C13.3736 76.7262 20.9294 76.0506 21.2318 73.1377C21.3876 71.634 18.7283 69.5196 18.1147 68.2267C16.9776 65.8314 15.8855 62.6453 15.5695 60.0196C14.9522 54.8945 17.2789 49.1636 20.9852 45.7017C27.7842 39.3509 39.747 36.0917 48.4928 40.121C46.6446 33.061 45.5289 26.9704 46.4597 19.6265C47.2615 13.2997 50.9944 9.7599 56.131 6.60849C64.8963 1.23012 76.816 -0.89272 86.8384 0.671171C89.1159 1.0267 91.3015 1.78908 93.4103 2.39566C96.4739 3.27692 100.141 2.98341 103.034 4.41513C105.131 5.45293 106.724 7.52039 108.566 8.90079C110.717 10.5123 112.503 12.9176 113.998 15.142C117.193 19.8986 115.944 28.7267 113.27 33.5014C112.696 34.5256 111.988 35.3876 111.039 36.0865C110.051 36.8138 108.545 37.0401 108.036 37.9834C106.732 40.3998 107.99 45.6308 108.164 48.2425C108.367 51.275 106.833 53.5529 103.395 53.7947C101.406 53.935 101.342 52.7809 100.39 55.1555C99.7722 56.6947 99.2114 58.3716 98.3206 59.7826C96.4839 62.6907 93.1198 62.4068 90.0555 62.3282C86.5083 62.2366 83.0143 61.6762 79.4653 61.3225C80.4027 64.3259 82.9685 66.6569 84.5708 69.3325C86.7372 72.9513 88.0412 75.9509 88.3934 80.1671C88.6637 83.4064 88.0803 85.9645 85.8637 88.3753C84.9463 89.3732 84.133 89.4223 84.3607 90.5735C84.4996 91.2757 85.7138 92.4342 86.1436 92.9946C87.2803 94.4773 88.6002 95.8381 89.6007 97.4216C93.4506 103.514 94.5877 112.801 94.5973 119.893C94.5977 120.219 94.7712 120.91 94.6276 121.247C94.5212 121.495 93.7135 122.282 93.7016 122.349C93.5436 123.261 94.4326 124.824 95.8278 124.979C97.2931 125.141 99.9768 123.918 101.34 123.517C103.521 122.874 105.744 122.399 107.921 121.738C111.436 120.672 114.935 119.821 118.508 118.985C120.123 118.608 121.746 118.293 123.366 117.94C125.212 117.539 126.069 116.762 127.021 118.64C127.838 120.251 127.33 120.543 129.31 119.731C131.275 118.924 133.195 117.925 135.114 117.014C138.498 115.409 142.528 113.978 145.447 111.608C150.316 107.654 152.119 101.358 156.78 97.1631C158.077 95.995 158.852 95.9743 159.672 94.3562C160.55 92.6243 161.003 90.4033 161.465 88.5403C162.274 85.2782 162.849 82.0046 163.583 78.7453C164.496 74.685 166.471 71.0078 167.912 67.135C168.474 65.6262 168.765 63.7082 169.67 62.3522C169.91 61.9926 170.369 61.7899 170.556 61.4923C171.2 60.4708 171.194 60.1902 171.36 58.9612C172.141 53.2184 175.569 56.2395 179.315 57.5564C180.893 58.1113 188.388 61.7098 185.526 64.1029C188.937 65.0927 194.401 64.5548 194.355 69.4436C194.331 71.9485 192.833 74.6281 192.029 76.9729C191.315 79.0547 190.624 81.1447 189.899 83.2233C188.31 87.7765 186.381 92.1935 184.83 96.7607C184.123 98.8422 183.54 100.972 182.556 102.937C181.688 104.67 179.586 106.58 179.24 108.475C188.33 104.597 196.74 98.9895 206.915 99.3469C211.371 99.5031 215.414 101.376 217.875 105.293C220.96 110.204 222.99 115.701 226.005 120.657C236.974 138.684 250.056 155.061 262.098 172.342C263.023 173.67 264.212 174.926 264.533 176.567C264.742 177.638 264.336 178.709 264.587 179.737C265.108 181.875 267.74 184.544 269.525 185.772C272.946 188.127 278.507 191.448 282.776 191.154C280.097 184.716 280.132 177.661 280.257 170.793C280.375 164.269 281.081 157.797 281.917 151.34C282.107 149.879 282.272 148.525 282.692 147.109C283.173 145.485 283.835 145.639 282.392 144.179C280.171 141.93 277.529 140.08 275.29 137.804C270.447 132.881 265.484 129.023 261.672 123.144C258.047 117.553 254.223 111.8 251.54 105.677C248.778 99.3735 247.674 92.642 246.302 85.9667C245.746 83.258 243.717 80.2339 244.125 77.4052C244.64 73.8303 246.298 76.4335 246.973 78.3573C249.032 84.23 253.854 89.4862 257.848 94.2092C262.163 99.3115 267.44 103.58 271.945 108.534C276.849 113.93 280.209 120.13 284.57 125.889C284.57 118.742 282.13 111.464 281.132 104.393C280.254 98.1696 279.978 91.9265 279.422 85.6762C278.162 71.4778 279.251 56.8612 281.021 42.7644C281.862 36.0695 281.385 29.5323 281.41 22.8145C281.418 20.6765 280.533 15.7489 281.661 13.8516C283.821 10.2177 285.081 18.1638 285.191 19.3485C285.844 26.406 284.672 33.3848 285.271 40.4119C285.896 47.7503 287.253 54.8827 288.408 62.1362C289.659 69.99 291.696 77.6666 293.646 85.3697C295.694 93.4576 297.416 101.714 299.692 109.737C300.306 107.215 299.445 104.117 299.275 101.549C299.032 97.8731 298.557 94.1967 298.516 90.5114C298.451 84.638 298.405 78.6556 298.737 72.8095C299.065 67.0472 298.966 61.0091 300.733 55.4575C301.572 52.8226 302.802 50.252 304.005 47.7699C305.49 44.7093 306.015 41.7418 306.837 38.4866C307.542 35.6988 308.573 32.9846 309.042 30.1411C309.334 28.3726 310.148 23.1523 312.172 27.1074C313.348 29.403 312.84 32.8062 312.873 35.2724C312.915 38.4342 312.431 41.5084 312.357 44.6569C312.212 50.8342 312.108 57.0041 311.648 63.171C311.164 69.6411 311.586 75.4396 312.817 81.8148C314.164 88.7932 314.559 95.7868 315.257 102.851C315.617 106.498 316.224 110.125 316.517 113.777C316.672 115.711 315.877 121.258 317.263 122.635C317.397 119.285 318.357 115.932 319.084 112.668C319.946 108.8 320.294 104.735 320.93 100.812C321.959 94.457 323.955 88.3879 325.276 82.1039C327.999 69.1501 330.262 52.5014 341.672 44.0226C343.165 42.9132 344.806 42.0943 346.42 41.1813C347.334 40.6645 348.691 39.3273 349.737 39.0939C350.878 38.8392 351.354 39.0371 351.817 40.361C352.462 42.2066 351.282 43.0686 350.181 44.4092C346.37 49.0477 344.742 54.9938 342.388 60.4339C337 72.8907 334.615 86.0295 334.588 99.4946C334.574 106.544 334.087 113.342 333.336 120.348C332.527 127.888 331.462 135.863 329.171 143.116C331.468 143.631 333.961 142.863 334.585 145.534C334.738 146.19 334.461 146.966 334.63 147.82C334.795 148.65 335.191 149.475 335.426 150.291C335.91 151.98 336.166 153.646 336.402 155.379C337.313 162.079 338.877 168.452 339.043 175.245C339.196 181.525 337.967 187.887 336.834 194.046C335.693 200.249 332.42 205.537 329.844 211.147C330.953 211.147 332.061 211.158 333.17 211.17Z" fill="#3F3F3F"/>
<path fill-rule="evenodd" clip-rule="evenodd" d="M187.341 196.911C186.119 197.256 180.22 197.908 180.221 199.759C180.222 200.87 186.114 200.848 187.156 200.968C187.218 199.616 187.28 198.263 187.341 196.911ZM200.363 209.684C203.763 210.331 208.377 209.422 210.551 206.425C211.566 205.024 212.048 202.895 212.378 201.223C212.695 199.631 213.669 195.656 213.006 194.163C212.192 192.33 204.381 194.246 202.106 194.456C198.138 194.823 194.034 194.866 190.063 194.607C190.063 198.707 189.853 202.703 192.265 206.232C194.005 208.779 197.272 209.38 200.363 209.684ZM199.68 214.749C195.986 213.397 192.108 214.276 189.703 210.31C189.093 209.304 188.579 208.222 188.209 207.105C188.029 206.615 187.889 206.114 187.789 205.6C187.977 204.495 187.572 204.183 186.574 204.665C184.616 204.285 182.47 205.628 180.407 205.232C175.406 204.272 176.314 197.107 179.671 194.627C180.334 194.136 180.996 194 181.755 193.758C183.428 193.225 184.334 193.82 185.864 193.669C187.101 193.547 187.441 192.25 188.77 191.679C189.64 191.305 190.848 191.334 191.763 191.296C196.551 191.099 201.354 191.101 206.172 190.789C208.419 190.644 210.846 191 213.047 190.616C214.078 190.435 213.93 189.75 214.906 190.351C215.916 190.975 215.48 193.279 215.429 194.198C215.134 199.512 214.818 205.211 211.971 209.856C209.367 214.107 204.242 214.541 199.68 214.749Z" fill="#3F3F3F"/>
<path fill-rule="evenodd" clip-rule="evenodd" d="M4.60352 216.213C5.79194 216.2 6.97999 216.187 8.16436 216.175C6.97446 216.188 5.78899 216.2 4.60352 216.213Z" fill="#3F3F3F"/>
<path fill-rule="evenodd" clip-rule="evenodd" d="M334.597 102.917C334.595 101.775 334.592 100.634 334.59 99.4944C334.592 100.637 334.595 101.777 334.597 102.917Z" fill="#3F3F3F"/>
<path fill-rule="evenodd" clip-rule="evenodd" d="M32.2923 107.605C32.2886 108.717 32.2849 109.829 32.2812 110.938C32.2846 109.825 32.2883 108.715 32.2923 107.605Z" fill="#3F3F3F"/>
<path fill-rule="evenodd" clip-rule="evenodd" d="M131.076 214.952C132.022 214.954 132.967 214.955 133.908 214.957C132.961 214.956 132.019 214.954 131.076 214.952Z" fill="#3F3F3F"/>
<path fill-rule="evenodd" clip-rule="evenodd" d="M73.668 214.725C74.6135 214.728 75.5586 214.731 76.4997 214.735C75.5527 214.732 74.6105 214.729 73.668 214.725Z" fill="#3F3F3F"/>
<path fill-rule="evenodd" clip-rule="evenodd" d="M280.381 168.543C280.339 169.293 280.297 170.043 280.256 170.793C280.298 170.041 280.339 169.292 280.381 168.543Z" fill="#3F3F3F"/>
<path fill-rule="evenodd" clip-rule="evenodd" d="M333.17 211.17C332.44 211.162 331.709 211.155 330.979 211.147C331.712 210.841 332.443 210.855 333.17 211.17Z" fill="#3F3F3F"/>
<path fill-rule="evenodd" clip-rule="evenodd" d="M268.303 214.493C268.827 214.485 269.352 214.477 269.871 214.468C269.345 214.476 268.824 214.485 268.303 214.493Z" fill="#3F3F3F"/>
<path fill-rule="evenodd" clip-rule="evenodd" d="M334.311 112.179C334.323 111.612 334.336 111.044 334.349 110.479C334.336 111.047 334.323 111.613 334.311 112.179Z" fill="#3F3F3F"/>
<path fill-rule="evenodd" clip-rule="evenodd" d="M285.27 40.4121C285.227 39.8269 285.184 39.2421 285.141 38.6584C285.184 39.244 285.227 39.828 285.27 40.4121Z" fill="#3F3F3F"/>
<path fill-rule="evenodd" clip-rule="evenodd" d="M334.57 105.151C334.577 104.565 334.584 103.978 334.591 103.394C334.584 103.981 334.577 104.566 334.57 105.151Z" fill="#3F3F3F"/>
<path fill-rule="evenodd" clip-rule="evenodd" d="M169.658 213.766C170.124 213.773 170.591 213.78 171.053 213.785C170.586 213.778 170.122 213.772 169.658 213.766Z" fill="#3F3F3F"/>
<path fill-rule="evenodd" clip-rule="evenodd" d="M289.758 214.722C290.213 214.731 290.669 214.74 291.121 214.75C290.663 214.741 290.211 214.731 289.758 214.722Z" fill="#3F3F3F"/>
<path fill-rule="evenodd" clip-rule="evenodd" d="M338.992 173.48C338.96 172.965 338.927 172.451 338.895 171.938C338.927 172.452 338.96 172.966 338.992 173.48Z" fill="#3F3F3F"/>
<path fill-rule="evenodd" clip-rule="evenodd" d="M330.809 215.222C331.18 215.22 331.551 215.218 331.917 215.217C331.545 215.22 331.177 215.221 330.809 215.222Z" fill="#3F3F3F"/>
<path fill-rule="evenodd" clip-rule="evenodd" d="M280.26 214.746C280.627 214.737 280.994 214.728 281.358 214.719C280.989 214.728 280.624 214.737 280.26 214.746Z" fill="#3F3F3F"/>
<path fill-rule="evenodd" clip-rule="evenodd" d="M197.674 214.465C198.078 214.463 198.483 214.461 198.883 214.458C198.478 214.46 198.076 214.463 197.674 214.465Z" fill="#3F3F3F"/>
<path fill-rule="evenodd" clip-rule="evenodd" d="M104.414 214.464C104.798 214.466 105.183 214.469 105.563 214.473C105.178 214.47 104.796 214.467 104.414 214.464Z" fill="#3F3F3F"/>
<path fill-rule="evenodd" clip-rule="evenodd" d="M81.7285 214.526C82.1206 214.504 82.5119 214.482 82.9003 214.46C82.5071 214.483 82.118 214.504 81.7285 214.526Z" fill="#3F3F3F"/>
<path fill-rule="evenodd" clip-rule="evenodd" d="M190.346 65.1447C189.762 65.0945 189.179 65.0443 188.596 64.9937C189.18 65.0347 189.797 64.6891 190.346 65.1447Z" fill="#3F3F3F"/>
<path fill-rule="evenodd" clip-rule="evenodd" d="M339.046 211.392C338.471 211.334 337.896 211.275 337.32 211.217C337.896 211.275 338.471 211.334 339.046 211.392Z" fill="#3F3F3F"/>
<path fill-rule="evenodd" clip-rule="evenodd" d="M298.925 68.6863C298.886 69.1902 298.847 69.6945 298.809 70.197C298.847 69.6923 298.886 69.1891 298.925 68.6863Z" fill="#3F3F3F"/>
<path fill-rule="evenodd" clip-rule="evenodd" d="M334.715 89.6977C334.754 89.22 334.793 88.7422 334.832 88.2664C334.793 88.7448 334.754 89.2211 334.715 89.6977Z" fill="#3F3F3F"/>
<path fill-rule="evenodd" clip-rule="evenodd" d="M298.696 76.5037C298.655 77.0069 298.613 77.5097 298.572 78.0111C298.614 77.5075 298.655 77.0054 298.696 76.5037Z" fill="#3F3F3F"/>
<path fill-rule="evenodd" clip-rule="evenodd" d="M334.47 108.983C334.466 108.497 334.462 108.011 334.459 107.526C334.773 108.011 334.76 108.496 334.47 108.983Z" fill="#3F3F3F"/>
<path fill-rule="evenodd" clip-rule="evenodd" d="M280.39 178.809C280.386 179.296 280.382 179.784 280.377 180.269C280.055 179.778 280.119 179.292 280.39 178.809Z" fill="#3F3F3F"/>
<path fill-rule="evenodd" clip-rule="evenodd" d="M317.052 122.425C316.995 121.932 316.939 121.439 316.883 120.947C316.939 121.441 316.995 121.933 317.052 122.425Z" fill="#3F3F3F"/>
<path fill-rule="evenodd" clip-rule="evenodd" d="M13.4792 77.1516C13.0978 77.6556 12.5784 77.3104 12.125 77.3716C12.5769 77.2982 13.028 77.2251 13.4792 77.1516Z" fill="#3F3F3F"/>
<path fill-rule="evenodd" clip-rule="evenodd" d="M202.059 191.138C201.577 191.139 201.095 191.14 200.613 191.14C201.095 191.14 201.577 191.139 202.059 191.138Z" fill="#3F3F3F"/>
<path fill-rule="evenodd" clip-rule="evenodd" d="M279.035 79.2224C279.08 79.6322 279.125 80.042 279.17 80.4503C279.125 80.0398 279.08 79.6311 279.035 79.2224Z" fill="#3F3F3F"/>
<path fill-rule="evenodd" clip-rule="evenodd" d="M40.9258 38.5222C40.4414 38.5318 39.957 38.5414 39.4727 38.551C39.9519 38.269 40.4348 38.1874 40.9258 38.5222Z" fill="#3F3F3F"/>
<path fill-rule="evenodd" clip-rule="evenodd" d="M298.684 83.5923C298.652 84.022 298.621 84.4514 298.59 84.8793C298.621 84.4495 298.652 84.0209 298.684 83.5923Z" fill="#3F3F3F"/>
<path fill-rule="evenodd" clip-rule="evenodd" d="M285.4 30.8414C285.438 30.4497 285.475 30.058 285.513 29.6685C285.475 30.0609 285.438 30.4511 285.4 30.8414Z" fill="#3F3F3F"/>
<path fill-rule="evenodd" clip-rule="evenodd" d="M281.594 29.6143C281.556 30.0392 281.518 30.4645 281.48 30.888C281.518 30.4623 281.556 30.0381 281.594 29.6143Z" fill="#3F3F3F"/>
<path fill-rule="evenodd" clip-rule="evenodd" d="M71.195 1.22681C70.7022 1.28662 70.2093 1.34642 69.7168 1.40586C70.2097 1.34606 70.7022 1.28662 71.195 1.22681Z" fill="#3F3F3F"/>
<path fill-rule="evenodd" clip-rule="evenodd" d="M35.5971 38.8606C35.0913 38.9123 34.5855 38.964 34.0801 39.0157C34.5859 38.964 35.0917 38.9123 35.5971 38.8606Z" fill="#3F3F3F"/>
<path fill-rule="evenodd" clip-rule="evenodd" d="M312.762 40.1062C312.793 39.7108 312.823 39.3151 312.854 38.9219C312.823 39.3176 312.792 39.7119 312.762 40.1062Z" fill="#3F3F3F"/>
<path fill-rule="evenodd" clip-rule="evenodd" d="M18.9961 105.363C19.2874 105.367 19.5783 105.371 19.8652 105.376C19.5728 105.371 19.2844 105.367 18.9961 105.363Z" fill="#3F3F3F"/>
<path fill-rule="evenodd" clip-rule="evenodd" d="M281.609 154.164C281.58 154.602 281.551 155.04 281.521 155.476C281.551 155.039 281.58 154.601 281.609 154.164Z" fill="#3F3F3F"/>
<path fill-rule="evenodd" clip-rule="evenodd" d="M311.324 68.9547C311.313 68.5327 311.301 68.1111 311.289 67.6902C311.302 68.1125 311.313 68.5334 311.324 68.9547Z" fill="#3F3F3F"/>
<path fill-rule="evenodd" clip-rule="evenodd" d="M83.603 0.22826C83.1537 0.22826 82.7044 0.22863 82.2559 0.22863C82.7052 -0.0800136 83.1541 -0.0722606 83.603 0.22826Z" fill="#3F3F3F"/>
<path fill-rule="evenodd" clip-rule="evenodd" d="M203.556 99.5492C203.064 99.5618 202.571 99.5743 202.08 99.5869C202.563 99.245 203.056 99.2365 203.556 99.5492Z" fill="#3F3F3F"/>
<path fill-rule="evenodd" clip-rule="evenodd" d="M246.564 213.749C246.856 213.754 247.148 213.761 247.436 213.768C247.143 213.762 246.854 213.755 246.564 213.749Z" fill="#3F3F3F"/>
<path fill-rule="evenodd" clip-rule="evenodd" d="M257.549 214.261C257.84 214.251 258.131 214.241 258.419 214.231C258.126 214.241 257.838 214.251 257.549 214.261Z" fill="#3F3F3F"/>
<path fill-rule="evenodd" clip-rule="evenodd" d="M85.6191 214.464C85.923 214.472 86.2268 214.479 86.5266 214.487C86.2217 214.479 85.9204 214.472 85.6191 214.464Z" fill="#3F3F3F"/>
<path fill-rule="evenodd" clip-rule="evenodd" d="M338.739 168.598C338.696 168.181 338.653 167.763 338.609 167.348C338.653 167.766 338.696 168.182 338.739 168.598Z" fill="#3F3F3F"/>
<path fill-rule="evenodd" clip-rule="evenodd" d="M299.057 98.2676C299.091 98.6652 299.126 99.0628 299.16 99.4578C299.125 99.0599 299.091 98.6637 299.057 98.2676Z" fill="#3F3F3F"/>
<path fill-rule="evenodd" clip-rule="evenodd" d="M314.329 91.4411C314.282 91.0195 314.234 90.5979 314.188 90.1777C314.235 90.5997 314.282 91.0202 314.329 91.4411Z" fill="#3F3F3F"/>
<path fill-rule="evenodd" clip-rule="evenodd" d="M88.084 214.715C88.3904 214.711 88.6972 214.706 89.0003 214.702C88.6924 214.707 88.3882 214.711 88.084 214.715Z" fill="#3F3F3F"/>
<path fill-rule="evenodd" clip-rule="evenodd" d="M199.678 214.749C199.976 214.735 200.274 214.722 200.568 214.708C200.27 214.722 199.973 214.735 199.678 214.749Z" fill="#3F3F3F"/>
<path fill-rule="evenodd" clip-rule="evenodd" d="M311.835 60.6547C311.822 60.2276 311.808 59.8004 311.795 59.374C311.809 59.8015 311.822 60.228 311.835 60.6547Z" fill="#3F3F3F"/>
<path fill-rule="evenodd" clip-rule="evenodd" d="M59.0273 214.994C59.3264 214.992 59.6251 214.99 59.9201 214.988C59.6195 214.99 59.3238 214.993 59.0273 214.994Z" fill="#3F3F3F"/>
<path fill-rule="evenodd" clip-rule="evenodd" d="M311.709 214.99C312.016 214.993 312.324 214.997 312.627 215C312.318 214.997 312.014 214.994 311.709 214.99Z" fill="#3F3F3F"/>
<path fill-rule="evenodd" clip-rule="evenodd" d="M318.346 214.954C318.643 214.975 318.939 214.996 319.232 215.016C318.934 214.995 318.64 214.975 318.346 214.954Z" fill="#3F3F3F"/>
<path fill-rule="evenodd" clip-rule="evenodd" d="M321.027 214.948C321.329 214.957 321.632 214.967 321.93 214.973C321.627 214.964 321.327 214.956 321.027 214.948Z" fill="#3F3F3F"/>
<path fill-rule="evenodd" clip-rule="evenodd" d="M334.788 93.1342C334.768 92.7141 334.748 92.2935 334.729 91.8745C334.748 92.2954 334.768 92.7148 334.788 93.1342Z" fill="#3F3F3F"/>
<path fill-rule="evenodd" clip-rule="evenodd" d="M131.98 209.441C132.899 209.394 133.819 209.346 134.738 209.298C133.819 209.346 132.899 209.393 131.98 209.441Z" fill="#3F3F3F"/>
<path fill-rule="evenodd" clip-rule="evenodd" d="M76.5312 56.6714C77.3291 56.7408 78.1269 56.8102 78.924 56.8789C78.1262 56.8098 77.3287 56.7404 76.5312 56.6714Z" fill="#3F3F3F"/>
<path fill-rule="evenodd" clip-rule="evenodd" d="M301.791 91.3574C301.816 92.1187 301.841 92.88 301.866 93.639C301.841 92.8774 301.816 92.1176 301.791 91.3574Z" fill="#3F3F3F"/>
<path fill-rule="evenodd" clip-rule="evenodd" d="M318.258 210.743C319.091 210.793 319.923 210.844 320.756 210.894C319.918 210.932 319.067 211.171 318.258 210.743Z" fill="#3F3F3F"/>
<path fill-rule="evenodd" clip-rule="evenodd" d="M313.328 120.695C313.334 119.969 313.341 119.243 313.347 118.518C313.34 119.245 313.334 119.97 313.328 120.695Z" fill="#3F3F3F"/>
<path fill-rule="evenodd" clip-rule="evenodd" d="M311.197 143.511C311.928 143.521 312.659 143.531 313.389 143.541C312.658 143.531 311.928 143.521 311.197 143.511Z" fill="#3F3F3F"/>
<path fill-rule="evenodd" clip-rule="evenodd" d="M127.234 130.744C127.215 131.298 127.197 131.851 127.18 132.402C127.198 131.848 127.216 131.296 127.234 130.744Z" fill="#3F3F3F"/>
<path fill-rule="evenodd" clip-rule="evenodd" d="M323.358 107.31C323.329 107.861 323.299 108.412 323.27 108.959C323.3 108.408 323.329 107.859 323.358 107.31Z" fill="#3F3F3F"/>
<path fill-rule="evenodd" clip-rule="evenodd" d="M307.768 208.292C308.299 208.256 308.831 208.22 309.361 208.186C308.962 208.506 308.559 208.533 307.768 208.292Z" fill="#3F3F3F"/>
<path fill-rule="evenodd" clip-rule="evenodd" d="M304.209 136.301C304.246 136.894 304.282 137.488 304.318 138.08C304.282 137.486 304.246 136.893 304.209 136.301Z" fill="#3F3F3F"/>
<path fill-rule="evenodd" clip-rule="evenodd" d="M105.432 42.5987C105.437 42.0253 105.443 41.452 105.449 40.8809C105.443 41.455 105.438 42.0268 105.432 42.5987Z" fill="#3F3F3F"/>
<path fill-rule="evenodd" clip-rule="evenodd" d="M304.854 143.631L306.835 143.588C306.181 143.904 305.521 143.915 304.854 143.631Z" fill="#3F3F3F"/>
<path fill-rule="evenodd" clip-rule="evenodd" d="M323.135 147.862C322.667 147.866 322.2 147.87 321.736 147.875C322.205 147.871 322.67 147.867 323.135 147.862Z" fill="#3F3F3F"/>
<path fill-rule="evenodd" clip-rule="evenodd" d="M152.023 208.521C152.67 208.529 153.317 208.538 153.964 208.546C153.312 208.873 152.665 208.919 152.023 208.521Z" fill="#3F3F3F"/>
<path fill-rule="evenodd" clip-rule="evenodd" d="M30.1816 210.426C30.8381 210.368 31.4949 210.309 32.1513 210.25C31.4949 210.309 30.8381 210.368 30.1816 210.426Z" fill="#3F3F3F"/>
<path fill-rule="evenodd" clip-rule="evenodd" d="M302.02 96.2468C302.052 96.8427 302.084 97.4386 302.116 98.0326C302.084 97.436 302.052 96.8416 302.02 96.2468Z" fill="#3F3F3F"/>
<path fill-rule="evenodd" clip-rule="evenodd" d="M92.4883 58.0702C93.0417 57.7973 93.5995 57.7516 94.1629 58.0406C93.6043 58.0506 93.0465 58.0606 92.4883 58.0702Z" fill="#3F3F3F"/>
<path fill-rule="evenodd" clip-rule="evenodd" d="M283.918 103.127C283.964 103.63 284.01 104.133 284.055 104.634C284.009 104.131 283.964 103.629 283.918 103.127Z" fill="#3F3F3F"/>
<path fill-rule="evenodd" clip-rule="evenodd" d="M330.665 91.3993C330.381 90.9075 330.391 90.4183 330.679 89.9336C330.674 90.4228 330.67 90.9112 330.665 91.3993Z" fill="#3F3F3F"/>
<path fill-rule="evenodd" clip-rule="evenodd" d="M302.109 74.3276C302.109 74.8249 302.11 75.3226 302.11 75.8184C302.109 75.32 302.109 74.8238 302.109 74.3276Z" fill="#3F3F3F"/>
<path fill-rule="evenodd" clip-rule="evenodd" d="M321.949 143.274C322.519 143.099 323.089 142.852 323.656 143.28C323.087 143.278 322.518 143.276 321.949 143.274Z" fill="#3F3F3F"/>
<path fill-rule="evenodd" clip-rule="evenodd" d="M137.867 209.216C138.441 209.163 139.014 209.11 139.587 209.056C139.014 209.11 138.441 209.163 137.867 209.216Z" fill="#3F3F3F"/>
<path fill-rule="evenodd" clip-rule="evenodd" d="M59.2871 209.217C59.8121 208.987 60.336 208.866 60.8532 209.235C60.3308 209.229 59.8091 209.223 59.2871 209.217Z" fill="#3F3F3F"/>
<path fill-rule="evenodd" clip-rule="evenodd" d="M166.672 208.477C167.233 208.232 167.793 208.097 168.348 208.494C167.789 208.489 167.23 208.483 166.672 208.477Z" fill="#3F3F3F"/>
<path fill-rule="evenodd" clip-rule="evenodd" d="M41.7051 135.848C41.7472 136.355 41.7896 136.862 41.8313 137.367C41.7889 136.86 41.7468 136.354 41.7051 135.848Z" fill="#3F3F3F"/>
<path fill-rule="evenodd" clip-rule="evenodd" d="M172.039 106.651C172.591 106.45 173.142 106.345 173.684 106.681C173.136 106.671 172.587 106.661 172.039 106.651Z" fill="#3F3F3F"/>
<path fill-rule="evenodd" clip-rule="evenodd" d="M302.012 121.74C302.042 122.235 302.073 122.731 302.103 123.225C302.073 122.729 302.042 122.234 302.012 121.74Z" fill="#3F3F3F"/>
<path fill-rule="evenodd" clip-rule="evenodd" d="M41.3479 77.0337C41.3021 77.4328 41.2563 77.8323 41.2109 78.2291C41.2567 77.8293 41.3021 77.4317 41.3479 77.0337Z" fill="#3F3F3F"/>
<path fill-rule="evenodd" clip-rule="evenodd" d="M9.33448 192.772C9.30606 193.16 9.278 193.549 9.24994 193.935C9.27911 193.546 9.30679 193.159 9.33448 192.772Z" fill="#3F3F3F"/>
<path fill-rule="evenodd" clip-rule="evenodd" d="M313.573 124.362C313.542 123.96 313.511 123.558 313.48 123.158C313.511 123.561 313.542 123.961 313.573 124.362Z" fill="#3F3F3F"/>
<path fill-rule="evenodd" clip-rule="evenodd" d="M273.35 207.727C273.842 207.73 274.334 207.734 274.826 207.737C274.333 207.734 273.841 207.73 273.35 207.727Z" fill="#3F3F3F"/>
<path fill-rule="evenodd" clip-rule="evenodd" d="M127.049 134.163C127.141 134.455 127.233 134.748 127.325 135.041C126.711 135.189 126.619 134.896 127.049 134.163Z" fill="#3F3F3F"/>
<path fill-rule="evenodd" clip-rule="evenodd" d="M163.949 105.99C164.449 105.988 164.949 105.986 165.449 105.984C164.95 106.221 164.45 106.383 163.949 105.99Z" fill="#3F3F3F"/>
<path fill-rule="evenodd" clip-rule="evenodd" d="M41.9863 138.248C42.0033 138.691 42.0203 139.134 42.0365 139.576C42.0192 139.132 42.0026 138.69 41.9863 138.248Z" fill="#3F3F3F"/>
<path fill-rule="evenodd" clip-rule="evenodd" d="M47.2734 209.702C47.756 209.702 48.2381 209.701 48.7207 209.701C48.2378 209.701 47.756 209.702 47.2734 209.702Z" fill="#3F3F3F"/>
<path fill-rule="evenodd" clip-rule="evenodd" d="M285.131 142.919C285.149 143.327 285.167 143.735 285.185 144.141C285.167 143.732 285.149 143.325 285.131 142.919Z" fill="#3F3F3F"/>
<path fill-rule="evenodd" clip-rule="evenodd" d="M37.0293 210.199C37.5037 209.884 37.9792 209.912 38.4555 210.194C37.98 210.196 37.5044 210.198 37.0293 210.199Z" fill="#3F3F3F"/>
<path fill-rule="evenodd" clip-rule="evenodd" d="M49.5234 71.3345C49.5489 71.7509 49.5748 72.1677 49.6013 72.5816C49.5759 72.1644 49.5497 71.7494 49.5234 71.3345Z" fill="#3F3F3F"/>
<path fill-rule="evenodd" clip-rule="evenodd" d="M34.5625 210.242C35.0557 210.244 35.549 210.247 36.0418 210.249C35.5471 210.585 35.0543 210.601 34.5625 210.242Z" fill="#3F3F3F"/>
<path fill-rule="evenodd" clip-rule="evenodd" d="M307.686 64.7973C307.69 64.3742 307.693 63.9515 307.697 63.5295C307.693 63.953 307.689 64.375 307.686 64.7973Z" fill="#3F3F3F"/>
<path fill-rule="evenodd" clip-rule="evenodd" d="M81.2402 57.3984C81.7121 57.4601 82.1839 57.5217 82.6553 57.583C82.1835 57.5214 81.7117 57.4601 81.2402 57.3984Z" fill="#3F3F3F"/>
<path fill-rule="evenodd" clip-rule="evenodd" d="M39.6055 93.9111C39.6117 94.3062 39.618 94.7016 39.6254 95.0948C39.6191 94.699 39.6125 94.3051 39.6055 93.9111Z" fill="#3F3F3F"/>
<path fill-rule="evenodd" clip-rule="evenodd" d="M310.861 93.8543C310.835 93.4519 310.809 93.0495 310.783 92.6489C310.809 93.0521 310.835 93.4534 310.861 93.8543Z" fill="#3F3F3F"/>
<path fill-rule="evenodd" clip-rule="evenodd" d="M200.814 209.771C201.397 209.824 201.979 209.876 202.561 209.929C201.979 209.876 201.397 209.824 200.814 209.771Z" fill="#3F3F3F"/>
<path fill-rule="evenodd" clip-rule="evenodd" d="M198.871 194.699C198.556 194.704 198.242 194.709 197.93 194.716C198.245 194.712 198.558 194.705 198.871 194.699Z" fill="#3F3F3F"/>
<path fill-rule="evenodd" clip-rule="evenodd" d="M198.896 209.54C199.385 209.588 199.873 209.636 200.361 209.684C199.873 209.636 199.385 209.588 198.896 209.54Z" fill="#3F3F3F"/>
<path fill-rule="evenodd" clip-rule="evenodd" d="M111.021 176.657C111.657 180.247 106.078 183.758 105.635 178.655C105.474 176.788 106.721 175.476 108.119 174.336C110.102 172.717 111.21 174.267 111.021 176.657Z" fill="#3F3F3F"/>
<path fill-rule="evenodd" clip-rule="evenodd" d="M49.5264 132.857C50.8407 133.395 60.8823 136.667 55.6664 138.313C54.2856 138.748 52.1986 138.813 51.0017 138.046C49.5618 137.122 48.1094 134.396 49.5264 132.857Z" fill="#3F3F3F"/>
<path fill-rule="evenodd" clip-rule="evenodd" d="M51.9955 84.2405C55.4038 83.8447 58.5442 89.4428 54.342 89.2611C51.2833 89.1286 47.1698 84.2405 51.9955 84.2405Z" fill="#3F3F3F"/>
<path fill-rule="evenodd" clip-rule="evenodd" d="M64.1892 97.9666C67.0353 100.45 61.7599 106.007 59.6655 103.856C58.5959 102.758 59.5824 100.391 60.4652 99.4714C61.3711 98.5281 62.983 98.3509 64.1892 97.9666Z" fill="#3F3F3F"/>
<path fill-rule="evenodd" clip-rule="evenodd" d="M72.662 162.342C70.9818 162.609 63.5928 165.023 65.1338 160.638C65.7216 158.965 67.3608 159.461 68.8593 159.538C71.2746 159.662 72.662 159.546 72.662 162.342Z" fill="#3F3F3F"/>
<path fill-rule="evenodd" clip-rule="evenodd" d="M67.7937 173.638C70.309 174.984 66.6322 182.514 64.5474 180.912C61.6548 178.689 65.611 174.314 67.7937 173.638Z" fill="#3F3F3F"/>
<path fill-rule="evenodd" clip-rule="evenodd" d="M78.7644 167.584C79.9875 167.085 85.7532 172.631 83.5583 174.174C82.4334 174.964 80.3021 173.609 79.6239 172.791C78.3524 171.258 78.2372 169.367 78.7644 167.584Z" fill="#3F3F3F"/>
<path fill-rule="evenodd" clip-rule="evenodd" d="M45.5004 122.253C46.7505 122.458 48.9088 122.523 48.9896 124.28C49.0605 125.824 47.1248 126.324 45.7622 126.445C44.3482 126.571 42.4764 126.172 42.4494 124.394C42.421 122.476 45.4561 122.591 45.5004 122.253Z" fill="#3F3F3F"/>
<path fill-rule="evenodd" clip-rule="evenodd" d="M76.3272 198.695C77.6585 199.503 83.8683 202.413 81.2064 204.515C80.2103 205.302 77.1907 203.677 76.5111 202.851C75.7 201.865 74.9073 199.556 76.3272 198.695Z" fill="#3F3F3F"/>
<path fill-rule="evenodd" clip-rule="evenodd" d="M93.5899 177.579C93.3976 174.367 98.8166 173.089 97.6931 177.648C97.3764 178.934 97.0699 180.885 95.4806 180.959C93.6021 181.048 93.5342 178.825 93.5899 177.579Z" fill="#3F3F3F"/>
<path fill-rule="evenodd" clip-rule="evenodd" d="M76.8471 121.724C76.8848 124.161 72.216 126.31 72.1798 122.448C72.1477 118.996 77.0214 117.986 76.8471 121.724Z" fill="#3F3F3F"/>
<path fill-rule="evenodd" clip-rule="evenodd" d="M73.7663 109.034C74.9167 109.405 76.4455 109.595 76.5467 111.057C76.6541 112.604 75.2173 113.293 73.9243 113.206C72.864 113.135 71.295 112.35 71.1023 111.199C70.8198 109.511 72.4679 109.4 73.7663 109.034Z" fill="#3F3F3F"/>
<path fill-rule="evenodd" clip-rule="evenodd" d="M52.3731 153.644C52.3536 151.634 56.3829 149.217 57.125 151.55C57.3624 152.297 55.4632 155.644 54.8316 155.895C53.1602 156.558 52.9269 155.012 52.3731 153.644Z" fill="#3F3F3F"/>
<path fill-rule="evenodd" clip-rule="evenodd" d="M85.3932 187.109C84.0316 188.327 79.9472 191.751 80.2526 187.155C80.4475 184.219 85.7524 184.373 85.3932 187.109Z" fill="#3F3F3F"/>
<path fill-rule="evenodd" clip-rule="evenodd" d="M151.937 200.244C152.384 198.311 158.774 201.664 156.641 204.104C155.926 204.923 154.054 204.182 153.335 203.697C151.911 202.736 151.88 201.848 151.937 200.244Z" fill="#3F3F3F"/>
<path fill-rule="evenodd" clip-rule="evenodd" d="M116.334 158.88C116.583 158.019 116.86 156.496 117.682 155.946C119.169 154.952 120.464 156.452 120.464 158.033C120.464 160.983 117.107 161.913 116.334 158.88Z" fill="#3F3F3F"/>
<path fill-rule="evenodd" clip-rule="evenodd" d="M100.496 193.369C102.155 193.75 105.849 197.783 103.707 199.428C101.645 201.011 98.9028 194.574 100.496 193.369Z" fill="#3F3F3F"/>
<path fill-rule="evenodd" clip-rule="evenodd" d="M102.076 162.842C104.209 163.012 107.141 166.467 103.826 167.016C101.232 167.445 98.2158 163.688 102.076 162.842Z" fill="#3F3F3F"/>
<path fill-rule="evenodd" clip-rule="evenodd" d="M121.389 178.738C121.924 176.936 127.214 178.867 126.917 180.851C126.759 181.906 124.596 182.154 123.459 181.875C121.785 181.464 121.351 180.366 121.389 178.738Z" fill="#3F3F3F"/>
<path fill-rule="evenodd" clip-rule="evenodd" d="M59.0258 78.0947C59.0642 75.7651 63.5407 74.8156 63.8685 77.1632C64.165 79.2842 58.9697 81.5411 59.0258 78.0947Z" fill="#3F3F3F"/>
<path fill-rule="evenodd" clip-rule="evenodd" d="M119.908 202.743C120.231 201.571 120.37 200.161 121.833 200.007C123.509 199.83 123.459 201.115 123.262 202.446C122.726 206.068 120.679 206.249 119.908 202.743Z" fill="#3F3F3F"/>
<path fill-rule="evenodd" clip-rule="evenodd" d="M49.2179 105.812C46.8843 106.338 42.6102 101.844 45.2226 100.879C47.0633 100.199 49.2179 104.456 49.2179 105.812Z" fill="#3F3F3F"/>
<path fill-rule="evenodd" clip-rule="evenodd" d="M78.9836 140.724C77.7959 141.283 77.5224 141.622 76.6101 140.704C75.8156 139.905 75.8507 137.678 76.5326 136.847C79.1442 133.663 79.0829 139.435 78.9836 140.724Z" fill="#3F3F3F"/>
<path fill-rule="evenodd" clip-rule="evenodd" d="M88.6734 134.266C89.912 134.424 93.5925 137.915 91.676 139.302C89.3276 141.002 87.9989 135.677 88.6734 134.266Z" fill="#3F3F3F"/>
<path fill-rule="evenodd" clip-rule="evenodd" d="M115.473 135.186C114.572 138.653 112.325 136.32 112.452 133.696C112.657 129.494 114.986 133.154 115.473 135.186Z" fill="#3F3F3F"/>
<path fill-rule="evenodd" clip-rule="evenodd" d="M129.135 190.869C130.658 191.499 132.726 197.322 130.55 197.635C128.106 197.985 128.92 192.082 129.135 190.869Z" fill="#3F3F3F"/>
<path fill-rule="evenodd" clip-rule="evenodd" d="M110.114 187.598C111.857 187.01 112.496 190.687 111.483 191.37C109.254 192.872 109.724 188.465 110.114 187.598Z" fill="#3F3F3F"/>
<path fill-rule="evenodd" clip-rule="evenodd" d="M93.5903 177.579C93.5681 178.067 93.5463 178.555 93.5234 179.041C93.5452 178.552 93.5674 178.066 93.5903 177.579Z" fill="#3F3F3F"/>
<path fill-rule="evenodd" clip-rule="evenodd" d="M151.938 200.244C151.92 200.744 151.902 201.245 151.883 201.743C151.9 201.241 151.919 200.742 151.938 200.244Z" fill="#3F3F3F"/>
<path fill-rule="evenodd" clip-rule="evenodd" d="M121.388 178.738C121.379 179.163 121.368 179.587 121.357 180.009C121.367 179.584 121.378 179.161 121.388 178.738Z" fill="#3F3F3F"/>
<path fill-rule="evenodd" clip-rule="evenodd" d="M314.178 171.431C317.791 171.316 321.822 169.955 325.373 170.388C326.351 170.507 328.601 170.754 327.035 172.203C326.286 172.897 322.7 172.538 321.614 172.768C314.98 174.173 307.448 175.079 300.645 174.962C297.461 174.907 294.252 174.652 291.069 174.484C287.888 174.316 287.576 173.023 291.155 172.612C294.872 172.185 298.687 172.343 302.423 172.339C306.35 172.334 310.258 171.694 314.178 171.431Z" fill="#3F3F3F"/>
<path fill-rule="evenodd" clip-rule="evenodd" d="M322.111 162.725C321.763 163.715 321.458 165.988 320.125 166.137C318.259 166.346 317.95 163.141 318.018 161.969C318.102 160.554 318.611 158.204 320.369 158.694C321.855 159.108 322.003 161.593 322.111 162.725Z" fill="#3F3F3F"/>
<path fill-rule="evenodd" clip-rule="evenodd" d="M310.811 162C311.084 160.94 311.218 158.549 312.717 158.468C314.393 158.378 314.872 160.868 314.861 162.062C314.85 163.195 314.431 165.335 313.096 165.597C311.287 165.952 311.125 163.212 310.811 162Z" fill="#3F3F3F"/>
<path fill-rule="evenodd" clip-rule="evenodd" d="M291.992 163.902C291.449 165.177 291.09 166.932 289.409 166.063C288.109 165.391 287.928 162.681 288.173 161.44C288.427 160.155 288.965 158.68 290.442 159.258C292.146 159.926 291.974 162.499 291.992 163.902Z" fill="#3F3F3F"/>
<path fill-rule="evenodd" clip-rule="evenodd" d="M306.244 162.725C304.642 167.581 301.72 164.296 302.829 160.671C303.989 156.881 306.096 160.562 306.244 162.725Z" fill="#3F3F3F"/>
<path fill-rule="evenodd" clip-rule="evenodd" d="M298.437 162.966C297.992 163.821 297.519 165.665 296.32 165.471C294.85 165.233 294.803 162.404 294.964 161.35C295.104 160.428 295.519 158.891 296.749 158.911C298.527 158.939 298.408 161.859 298.437 162.966Z" fill="#3F3F3F"/>
<path fill-rule="evenodd" clip-rule="evenodd" d="M330.393 163.898C329.2 166.573 327.56 164.268 328.085 162.368C328.864 159.55 330.325 162.047 330.393 163.898Z" fill="#3F3F3F"/>
<path fill-rule="evenodd" clip-rule="evenodd" d="M301.188 172.342C299.886 172.337 298.583 172.332 297.281 172.328C298.584 172.082 299.888 171.986 301.188 172.342Z" fill="#3F3F3F"/>
<path fill-rule="evenodd" clip-rule="evenodd" d="M327.07 170.377C325.94 170.384 324.811 170.392 323.682 170.399C324.809 170.061 325.939 170.053 327.07 170.377Z" fill="#3F3F3F"/>
<path fill-rule="evenodd" clip-rule="evenodd" d="M314.179 171.431C313.274 171.492 312.371 171.552 311.467 171.613C312.371 171.552 313.275 171.492 314.179 171.431Z" fill="#3F3F3F"/>
<path fill-rule="evenodd" clip-rule="evenodd" d="M291.992 163.902C291.983 163.253 291.975 162.604 291.967 161.957C292.301 162.602 292.278 163.25 291.992 163.902Z" fill="#3F3F3F"/>
<path fill-rule="evenodd" clip-rule="evenodd" d="M299.076 174.948C299.6 174.953 300.125 174.957 300.645 174.962C300.119 174.957 299.597 174.953 299.076 174.948Z" fill="#3F3F3F"/>
<path fill-rule="evenodd" clip-rule="evenodd" d="M290.273 174.484C290.804 174.484 291.336 174.484 291.863 174.484C291.33 174.484 290.802 174.484 290.273 174.484Z" fill="#3F3F3F"/>
<path fill-rule="evenodd" clip-rule="evenodd" d="M294.627 172.398C293.889 172.459 293.15 172.52 292.412 172.58C293.15 172.52 293.889 172.459 294.627 172.398Z" fill="#3F3F3F"/>
<path fill-rule="evenodd" clip-rule="evenodd" d="M304.609 172.334C303.88 172.336 303.151 172.337 302.422 172.339C303.151 172.032 303.879 172.023 304.609 172.334Z" fill="#3F3F3F"/>
<path fill-rule="evenodd" clip-rule="evenodd" d="M298.438 162.966C298.419 162.289 298.402 161.613 298.385 160.937C298.403 161.614 298.42 162.29 298.438 162.966Z" fill="#3F3F3F"/>
<path fill-rule="evenodd" clip-rule="evenodd" d="M288.173 161.44C288.169 162.1 288.165 162.76 288.16 163.417C288.164 162.756 288.169 162.098 288.173 161.44Z" fill="#3F3F3F"/>
<path fill-rule="evenodd" clip-rule="evenodd" d="M318.321 171.186C317.677 171.244 317.033 171.302 316.389 171.361C317.033 171.302 317.678 171.244 318.321 171.186Z" fill="#3F3F3F"/>
<path fill-rule="evenodd" clip-rule="evenodd" d="M330.392 163.898C330.371 163.322 330.351 162.745 330.33 162.17C330.351 162.746 330.371 163.322 330.392 163.898Z" fill="#3F3F3F"/>
<path fill-rule="evenodd" clip-rule="evenodd" d="M302.973 174.968C303.421 174.959 303.87 174.951 304.314 174.943C303.864 174.952 303.418 174.96 302.973 174.968Z" fill="#3F3F3F"/>
<path fill-rule="evenodd" clip-rule="evenodd" d="M322.112 162.725C322.073 162.311 322.033 161.897 321.994 161.484C322.034 161.899 322.073 162.312 322.112 162.725Z" fill="#3F3F3F"/>
<path fill-rule="evenodd" clip-rule="evenodd" d="M306.243 162.725C306.214 162.3 306.185 161.874 306.156 161.45C306.185 161.876 306.214 162.301 306.243 162.725Z" fill="#3F3F3F"/>
<path fill-rule="evenodd" clip-rule="evenodd" d="M74.8956 37.7435C73.1313 37.2805 72.8005 34.801 73.084 33.2781C73.4056 32.5441 73.7271 31.8106 74.0487 31.0766C73.9228 30.8053 73.7973 30.5339 73.6718 30.2625C73.8331 28.7511 73.4207 28.0943 75.1578 28.7064C78.3845 29.8443 78.9002 37.6268 74.8956 37.7435Z" fill="#3F3F3F"/>
<path fill-rule="evenodd" clip-rule="evenodd" d="M101.012 32.9493C102.466 32.8349 105.106 34.5276 103.659 36.1654C102.763 37.1799 99.8088 36.7 98.6038 36.9119C97.0056 37.1928 95.3387 37.5771 96.2033 35.1833C96.8823 33.3034 99.3071 32.9002 101.012 32.9493Z" fill="#3F3F3F"/>
<path fill-rule="evenodd" clip-rule="evenodd" d="M99.4832 44.209C98.0068 43.025 98.6658 37.6322 100.913 38.6025C103.224 39.6011 100.715 43.4308 99.4832 44.209Z" fill="#3F3F3F"/>
<path fill-rule="evenodd" clip-rule="evenodd" d="M73.0822 33.2781C73.0822 33.8455 73.0818 34.4133 73.0807 34.9782C72.7728 34.4096 72.7824 33.8437 73.0822 33.2781Z" fill="#3F3F3F"/>
<path fill-rule="evenodd" clip-rule="evenodd" d="M74.8945 37.7434C75.1954 37.7349 75.4967 37.726 75.7939 37.7183C75.4915 37.7279 75.1932 37.7356 74.8945 37.7434Z" fill="#3F3F3F"/>
<path fill-rule="evenodd" clip-rule="evenodd" d="M257.195 193.05C257.056 195.502 254.422 193.689 254.609 192.048C254.948 189.07 256.632 192.013 257.195 193.05Z" fill="#3F3F3F"/>
</svg>
