<svg width="17" height="17" viewBox="0 0 17 17" fill="none" xmlns="http://www.w3.org/2000/svg">
<path d="M8.49998 0.873535C4.2854 0.873535 0.873596 4.28534 0.873596 8.49992C0.873596 12.7145 4.2854 16.1263 8.49998 16.1263C12.7146 16.1263 16.1264 12.7145 16.1264 8.49992C16.1264 4.28534 12.7146 0.873535 8.49998 0.873535Z" fill="#039BE5"/>
<path d="M7.37609 7.17537V8.49995H5.48956V10.5069H7.37609V16.0059C7.73734 16.0862 8.09859 16.1263 8.49998 16.1263C8.86123 16.1263 9.18234 16.0862 9.54359 16.0461V10.5069H11.5104L11.8315 8.49995H9.54359V7.4162C9.54359 6.57328 9.82456 5.85078 10.5872 5.85078H11.8315V4.08467C11.6308 4.04453 11.1491 4.00439 10.2661 4.00439C8.4197 4.00439 7.37609 4.96773 7.37609 7.17537Z" fill="white"/>
</svg>
