<svg width="25" height="25" viewBox="0 0 25 25" fill="none" xmlns="http://www.w3.org/2000/svg">
<path d="M11.4583 18.75H13.5417C14.1146 18.75 14.5833 18.2812 14.5833 17.7083C14.5833 17.1354 14.1146 16.6667 13.5417 16.6667H11.4583C10.8854 16.6667 10.4167 17.1354 10.4167 17.7083C10.4167 18.2812 10.8854 18.75 11.4583 18.75ZM3.125 7.29167C3.125 7.86458 3.59375 8.33333 4.16667 8.33333H20.8333C21.4062 8.33333 21.875 7.86458 21.875 7.29167C21.875 6.71875 21.4062 6.25 20.8333 6.25H4.16667C3.59375 6.25 3.125 6.71875 3.125 7.29167ZM7.29167 13.5417H17.7083C18.2812 13.5417 18.75 13.0729 18.75 12.5C18.75 11.9271 18.2812 11.4583 17.7083 11.4583H7.29167C6.71875 11.4583 6.25 11.9271 6.25 12.5C6.25 13.0729 6.71875 13.5417 7.29167 13.5417Z" fill="#494949"/>
</svg>
