<svg width="17" height="17" viewBox="0 0 17 17" fill="none" xmlns="http://www.w3.org/2000/svg">
<path d="M16.3716 6.92783H15.725V6.89451H8.50001V10.1056H13.0369C12.375 11.9749 10.5965 13.3167 8.50001 13.3167C5.84 13.3167 3.68334 11.1601 3.68334 8.50007C3.68334 5.84006 5.84 3.6834 8.50001 3.6834C9.72786 3.6834 10.8449 4.1466 11.6955 4.90322L13.9661 2.63257C12.5324 1.29634 10.6145 0.47229 8.50001 0.47229C4.06667 0.47229 0.472229 4.06673 0.472229 8.50007C0.472229 12.9334 4.06667 16.5278 8.50001 16.5278C12.9333 16.5278 16.5278 12.9334 16.5278 8.50007C16.5278 7.96181 16.4724 7.43639 16.3716 6.92783Z" fill="#FBC02D"/>
<path d="M1.39783 4.76354L4.03535 6.69783C4.74902 4.93092 6.4774 3.6834 8.5 3.6834C9.72785 3.6834 10.8449 4.1466 11.6955 4.90322L13.9661 2.63257C12.5324 1.29634 10.6145 0.47229 8.5 0.47229C5.41653 0.47229 2.74248 2.21311 1.39783 4.76354Z" fill="#E53935"/>
<path d="M8.50006 16.5277C10.5736 16.5277 12.4578 15.7342 13.8823 14.4437L11.3977 12.3413C10.5917 12.9518 9.58983 13.3166 8.50006 13.3166C6.41203 13.3166 4.6391 11.9852 3.97119 10.1272L1.35333 12.1442C2.68193 14.744 5.38006 16.5277 8.50006 16.5277Z" fill="#4CAF50"/>
<path d="M16.3716 6.92772L16.3652 6.89441H15.725H8.5V10.1055H13.0369C12.719 11.0034 12.1414 11.7777 11.3964 12.3417C11.3968 12.3413 11.3972 12.3413 11.3976 12.3409L13.8822 14.4433C13.7064 14.6031 16.5278 12.5139 16.5278 8.49996C16.5278 7.9617 16.4724 7.43628 16.3716 6.92772Z" fill="#1565C0"/>
</svg>
