<svg width="19" height="23" viewBox="0 0 19 23" fill="none" xmlns="http://www.w3.org/2000/svg">
<g clip-path="url(#clip0_2_29167)">
<path d="M7.67217 12.782H7.17217V13.282V17.2137C7.17217 17.3691 7.04242 17.5001 6.88414 17.5001H4.52003C4.36174 17.5001 4.23199 17.3691 4.23199 17.2137V11.7092V11.2092H3.73199H2.67539L9.05327 5.47682C9.05342 5.47668 9.05357 5.47654 9.05372 5.47641C9.16334 5.37896 9.33316 5.37896 9.44278 5.47641C9.44293 5.47654 9.44308 5.47668 9.44323 5.47682L15.8211 11.2092H14.7645H14.2645V11.7092V17.2137C14.2645 17.3691 14.1348 17.5001 13.9765 17.5001H11.6124C11.4541 17.5001 11.3243 17.3691 11.3243 17.2137V13.282V12.782H10.8243H7.67217Z" stroke="#62B2DE"/>
</g>
<defs>
<clipPath id="clip0_2_29167">
<rect width="19" height="23" rx="5" fill="white"/>
</clipPath>
</defs>
</svg>
