<svg width="12.808" height="13.2861" xmlns="http://www.w3.org/2000/svg">

 <g>
  <title>Layer 1</title>
  <path id="svg_1" fill="black" d="m1.83867,0.53003l0,12.302c0,0.182 0.106,0.347 0.236,0.426l0.01,0.006c0.041,0.025 0.083,0.05 0.14,0.05l1.055,0c0.292,0 0.412,-0.397 0.412,-0.7l0,-11.906c0,-0.093 -0.019,-0.215 -0.039,-0.29c-0.022,-0.083 -0.062,-0.16 -0.107,-0.214c-0.132,-0.158 -0.339,-0.165 -0.538,-0.165c-0.032,0 -0.072,-0.001 -0.114,-0.003c-0.098,-0.003 -0.211,-0.007 -0.279,0.005c-0.059,0.009 -0.129,0.007 -0.199,0.005c-0.066,-0.002 -0.131,-0.004 -0.189,0.003c-0.189,0.023 -0.388,0.232 -0.388,0.481zm4.554,-0.03l0,12.362c0,0.219 0.22,0.453 0.387,0.453l1.063,0c0.212,0 0.339,-0.252 0.376,-0.466c0.016,-0.087 0.028,-0.17 0.028,-0.273l0,-11.829c0,-0.219 -0.052,-0.425 -0.142,-0.54c-0.124,-0.157 -0.361,-0.168 -0.533,-0.168c-0.039,0 -0.081,-0.001 -0.125,-0.003c-0.091,-0.002 -0.186,-0.005 -0.263,0.003c-0.078,0.007 -0.162,0.007 -0.247,0.007c-0.047,0 -0.094,0 -0.14,0.001c-0.186,0.007 -0.404,0.234 -0.404,0.453zm4.555,12.396l0,-12.426c0,-0.106 0.091,-0.239 0.143,-0.292c0.065,-0.066 0.159,-0.132 0.277,-0.132c0.13,0 0.254,-0.002 0.377,-0.004c0.125,-0.002 0.25,-0.004 0.382,-0.004c0.22,0 0.399,0.008 0.548,0.198c0.093,0.117 0.126,0.362 0.126,0.59l0,11.694c0,0.327 -0.082,0.799 -0.419,0.799l-1.047,0c-0.179,0 -0.387,-0.253 -0.387,-0.423zm-6.408,-0.48l0,-11.454c0,-0.257 0.018,-0.464 0.096,-0.632c0.18,-0.384 0.578,-0.372 0.761,-0.066c0.079,0.132 0.115,0.276 0.115,0.502l0,11.836c0,0.224 -0.033,0.386 -0.115,0.512c-0.115,0.181 -0.307,0.244 -0.497,0.181c-0.33,-0.107 -0.36,-0.489 -0.36,-0.879zm4.555,-11.591l0,11.707c0,0.379 0.072,0.663 0.365,0.764c0.108,0.038 0.232,0.028 0.324,-0.028c0.17,-0.104 0.275,-0.287 0.275,-0.548l0,-12.082c0,-0.157 -0.075,-0.331 -0.138,-0.415c-0.266,-0.359 -0.826,-0.218 -0.826,0.602zm-9.102,11.774l0,-11.823c0,-0.211 0.051,-0.376 0.123,-0.504c0.128,-0.23 0.358,-0.3 0.572,-0.17c0.17,0.104 0.269,0.349 0.269,0.595l0,11.972c0,0.26 -0.097,0.457 -0.257,0.579c-0.082,0.062 -0.161,0.069 -0.257,0.071l-0.005,0c-0.267,0 -0.445,-0.384 -0.445,-0.72z" clip-rule="evenodd" fill-rule="evenodd"/>
 </g>
</svg>