<svg width="17" height="17" viewBox="0 0 17 17" fill="none" xmlns="http://www.w3.org/2000/svg">
<path d="M16.15 0.862073C15.6764 0.388501 14.9114 0.388501 14.4378 0.862073L8.49999 6.78779L2.56213 0.84993C2.08856 0.376358 1.32356 0.376358 0.849991 0.84993C0.376419 1.3235 0.376419 2.0885 0.849991 2.56207L6.78785 8.49993L0.849991 14.4378C0.376419 14.9114 0.376419 15.6764 0.849991 16.1499C1.32356 16.6235 2.08856 16.6235 2.56213 16.1499L8.49999 10.2121L14.4378 16.1499C14.9114 16.6235 15.6764 16.6235 16.15 16.1499C16.6236 15.6764 16.6236 14.9114 16.15 14.4378L10.2121 8.49993L16.15 2.56207C16.6114 2.10064 16.6114 1.3235 16.15 0.862073Z" fill="#FFCDD6"/>
</svg>
