<svg width="21" height="19" viewBox="0 0 21 19" fill="none" xmlns="http://www.w3.org/2000/svg">
<g clip-path="url(#clip0_2_29183)">
<path d="M17.9162 5.92292C17.5833 5.75292 17.2362 5.61125 16.875 5.49083V14.0121C16.0675 13.7217 15.2387 13.5729 14.3958 13.5729C13.05 13.5729 11.7183 13.9554 10.5 14.6921V6.12125C9.35248 5.4625 8.0279 5.07292 6.60415 5.07292C5.33623 5.07292 4.13915 5.38458 3.08373 5.92292C2.84998 6.03625 2.70831 6.28417 2.70831 6.54625V15.1029C2.70831 15.5137 3.04123 15.8042 3.41665 15.8042C3.52998 15.8042 3.64331 15.7758 3.75665 15.7192C4.61373 15.2729 5.57706 14.9896 6.60415 14.9896C8.0704 14.9896 9.42331 15.5704 10.5 16.4062C11.5766 15.5704 12.9296 14.9896 14.3958 14.9896C15.4229 14.9896 16.3862 15.2729 17.2433 15.7263C17.3566 15.7829 17.47 15.8112 17.5833 15.8112C17.9516 15.8112 18.2916 15.5208 18.2916 15.11V6.54625C18.2916 6.28417 18.15 6.03625 17.9162 5.92292ZM9.08331 14.0121C8.27581 13.7217 7.44706 13.5729 6.60415 13.5729C5.76123 13.5729 4.93248 13.7217 4.12498 14.0121V6.9925C4.91123 6.65958 5.73998 6.48958 6.60415 6.48958C7.45415 6.48958 8.29706 6.66667 9.08331 6.99958V14.0121ZM15.4583 2.59375L11.9166 6.13542V12.8646L15.4583 9.67708V2.59375Z" fill="#62B2DE"/>
</g>
<defs>
<clipPath id="clip0_2_29183">
<rect width="21" height="19" rx="5" fill="white"/>
</clipPath>
</defs>
</svg>
