<svg width="17" height="23" viewBox="0 0 17 23" fill="none" xmlns="http://www.w3.org/2000/svg">
<g clip-path="url(#clip0_2_29084)">
<path d="M8.49996 6.30071C9.65473 6.30071 10.5995 5.3559 10.5995 4.20113C10.5995 3.04637 9.65473 2.10156 8.49996 2.10156C7.3452 2.10156 6.40039 3.04637 6.40039 4.20113C6.40039 5.3559 7.3452 6.30071 8.49996 6.30071ZM8.49996 8.40028C7.3452 8.40028 6.40039 9.34509 6.40039 10.4999C6.40039 11.6546 7.3452 12.5994 8.49996 12.5994C9.65473 12.5994 10.5995 11.6546 10.5995 10.4999C10.5995 9.34509 9.65473 8.40028 8.49996 8.40028ZM8.49996 14.699C7.3452 14.699 6.40039 15.6438 6.40039 16.7986C6.40039 17.9533 7.3452 18.8981 8.49996 18.8981C9.65473 18.8981 10.5995 17.9533 10.5995 16.7986C10.5995 15.6438 9.65473 14.699 8.49996 14.699Z" fill="#FF8CA2"/>
</g>
<defs>
<clipPath id="clip0_2_29084">
<rect width="17" height="23" rx="5" fill="white"/>
</clipPath>
</defs>
</svg>
