<svg width="20" height="23" viewBox="0 0 20 23" fill="none" xmlns="http://www.w3.org/2000/svg">
<g clip-path="url(#clip0_2_29139)">
<path d="M10 6C11.1 6 12 6.9 12 8C12 9.1 11.1 10 10 10C8.9 10 8 9.1 8 8C8 6.9 8.9 6 10 6ZM10 16C12.7 16 15.8 17.29 16 18H4C4.23 17.28 7.31 16 10 16ZM10 4C7.79 4 6 5.79 6 8C6 10.21 7.79 12 10 12C12.21 12 14 10.21 14 8C14 5.79 12.21 4 10 4ZM10 14C7.33 14 2 15.34 2 18V20H18V18C18 15.34 12.67 14 10 14Z" fill="#FF8CA2"/>
<circle cx="10" cy="8" r="3" fill="#FF8CA2"/>
<path d="M4 16H16V18H4V16Z" fill="#FF8CA2"/>
</g>
<defs>
<clipPath id="clip0_2_29139">
<rect width="20" height="23" rx="5" fill="white"/>
</clipPath>
</defs>
</svg>
