<svg width="20" height="23" viewBox="0 0 20 23" fill="none" xmlns="http://www.w3.org/2000/svg">
<g clip-path="url(#clip0_2_29122)">
<path d="M10 5C11.1 5 12 5.9 12 7C12 8.1 11.1 9 10 9C8.9 9 8 8.1 8 7C8 5.9 8.9 5 10 5ZM10 15C12.7 15 15.8 16.29 16 17H4C4.23 16.28 7.31 15 10 15ZM10 3C7.79 3 6 4.79 6 7C6 9.21 7.79 11 10 11C12.21 11 14 9.21 14 7C14 4.79 12.21 3 10 3ZM10 13C7.33 13 2 14.34 2 17V19H18V17C18 14.34 12.67 13 10 13Z" fill="#62B2DE"/>
</g>
<defs>
<clipPath id="clip0_2_29122">
<rect width="20" height="23" rx="5" fill="white"/>
</clipPath>
</defs>
</svg>
