<svg width="17" height="17" viewBox="0 0 17 17" fill="none" xmlns="http://www.w3.org/2000/svg">
<g clip-path="url(#clip0_2_29089)">
<path d="M1.88889 1.88889H7.55556C8.075 1.88889 8.5 1.46389 8.5 0.944444C8.5 0.425 8.075 0 7.55556 0H1.88889C0.85 0 0 0.85 0 1.88889V15.1111C0 16.15 0.85 17 1.88889 17H7.55556C8.075 17 8.5 16.575 8.5 16.0556C8.5 15.5361 8.075 15.1111 7.55556 15.1111H1.88889V1.88889Z" fill="#FF8CA2"/>
<path d="M16.6694 8.16947L14.0344 5.53447C13.7322 5.23225 13.2222 5.44003 13.2222 5.86503V7.55558H6.61107C6.09163 7.55558 5.66663 7.98058 5.66663 8.50003C5.66663 9.01947 6.09163 9.44447 6.61107 9.44447H13.2222V11.135C13.2222 11.56 13.7322 11.7678 14.025 11.4656L16.66 8.83058C16.8488 8.65114 16.8488 8.34892 16.6694 8.16947Z" fill="#FF8CA2"/>
</g>
<defs>
<clipPath id="clip0_2_29089">
<rect width="17" height="17" fill="white"/>
</clipPath>
</defs>
</svg>
