<svg width="17" height="17" viewBox="0 0 17 17" fill="none" xmlns="http://www.w3.org/2000/svg">
<path d="M2.125 5.66671C2.125 6.05629 2.44375 6.37504 2.83333 6.37504C3.22292 6.37504 3.54167 6.05629 3.54167 5.66671V4.25004H4.95833C5.34792 4.25004 5.66667 3.93129 5.66667 3.54171C5.66667 3.15212 5.34792 2.83337 4.95833 2.83337H3.54167V1.41671C3.54167 1.02712 3.22292 0.708374 2.83333 0.708374C2.44375 0.708374 2.125 1.02712 2.125 1.41671V2.83337H0.708333C0.31875 2.83337 0 3.15212 0 3.54171C0 3.93129 0.31875 4.25004 0.708333 4.25004H2.125V5.66671Z" fill="#FF8CA2"/>
<path d="M9.20831 12.0416C10.3819 12.0416 11.3333 11.0902 11.3333 9.91663C11.3333 8.74302 10.3819 7.79163 9.20831 7.79163C8.03471 7.79163 7.08331 8.74302 7.08331 9.91663C7.08331 11.0902 8.03471 12.0416 9.20831 12.0416Z" fill="#FF8CA2"/>
<path d="M14.875 4.25004H12.6296L11.7513 3.29379C11.4892 3.00337 11.1067 2.83337 10.71 2.83337H6.17667C6.29708 3.04587 6.375 3.27962 6.375 3.54171C6.375 4.32087 5.7375 4.95837 4.95833 4.95837H4.25V5.66671C4.25 6.44587 3.6125 7.08337 2.83333 7.08337C2.57125 7.08337 2.3375 7.00546 2.125 6.88504V14.1667C2.125 14.9459 2.7625 15.5834 3.54167 15.5834H14.875C15.6542 15.5834 16.2917 14.9459 16.2917 14.1667V5.66671C16.2917 4.88754 15.6542 4.25004 14.875 4.25004ZM9.20833 13.4584C7.25333 13.4584 5.66667 11.8717 5.66667 9.91671C5.66667 7.96171 7.25333 6.37504 9.20833 6.37504C11.1633 6.37504 12.75 7.96171 12.75 9.91671C12.75 11.8717 11.1633 13.4584 9.20833 13.4584Z" fill="#FF8CA2"/>
</svg>
