<?xml version="1.0" encoding="utf-8"?>
<svg viewBox="0 0 19 19" width="19px" height="19px" fill="none" xmlns="http://www.w3.org/2000/svg">
  <defs>
    <clipPath id="a">
      <path fill="#fff" d="M0 0h19v19H0z"/>
    </clipPath>
  </defs>
  <g clip-path="url(#a)" transform="matrix(1, 0, 0, 1, 0, -1.4210854715202004e-14)">
    <path fill="#3F93D3" fill-rule="evenodd" d="M 2.022 15.87 L 5.005 15.87 L 5.005 16.913 L 2.022 16.913 L 2.022 15.87 Z M 13.995 15.87 L 16.978 15.87 L 16.978 16.913 L 13.995 16.913 L 13.995 15.87 Z M 13.995 4.218 L 16.978 4.218 L 16.978 5.26 L 13.995 5.26 L 13.995 4.217 L 13.995 4.218 Z M 12.973 3.652 L 12.973 17.478 C 12.973 17.739 13.218 18 13.463 18 L 17.428 18 C 17.838 18 18 17.696 18 17.261 L 18 3.87 C 18 3.434 17.837 3.13 17.428 3.13 L 13.464 3.13 C 13.218 3.13 12.974 3.391 12.974 3.652 L 12.973 3.652 Z M 8.03 15.87 L 10.972 15.87 L 10.972 16.914 L 8.029 16.914 L 8.029 15.87 L 8.03 15.87 Z M 8.03 2.088 L 10.972 2.088 L 10.972 3.13 L 8.029 3.13 L 8.029 2.087 L 8.03 2.088 Z M 7.008 1.523 L 7.008 17.523 C 7.008 17.767 7.278 18.001 7.498 18.001 L 11.503 18.001 C 11.723 18.001 11.993 17.767 11.993 17.522 L 11.993 1.522 C 11.993 1.212 11.728 1.001 11.422 1.001 L 7.579 1.001 C 7.272 1.001 7.007 1.213 7.007 1.523 L 7.008 1.523 Z M 2.023 5.393 C 2.023 5.293 2.051 5.262 2.145 5.262 L 5.006 5.262 L 5.006 6.306 L 2.022 6.306 L 2.022 5.393 L 2.023 5.393 Z M 1 4.913 L 1 17.261 C 1 17.689 1.17 18 1.572 18 L 5.536 18 C 5.782 18 6.026 17.74 6.026 17.478 L 6.026 4.782 C 6.026 4.347 5.741 4.174 5.331 4.174 L 1.695 4.174 C 1.223 4.174 1 4.412 1 4.914 L 1 4.913 Z" clip-rule="evenodd" style="stroke-width: 0px; fill-opacity: 0.99; paint-order: stroke;" stroke="#3F93D3"/>
  </g>
</svg>