<svg xmlns="http://www.w3.org/2000/svg" width="19" height="19" fill="none" viewBox="0 0 19 19">
  <g clip-path="url(#a)">
    <path fill="#3F93D3" fill-rule="evenodd" stroke="#3F93D3" stroke-width=".3" d="M2.022 15.87h2.983v1.043H2.022V15.87Zm11.973 0h2.983v1.043h-2.983V15.87Zm0-9.522h2.983v8.435h-2.983V6.348Zm0-2.13h2.983V5.26h-2.983V4.217Zm-1.022-.566v13.826c0 .261.245.522.49.522h3.965c.41 0 .572-.304.572-.739V3.87c0-.436-.163-.74-.572-.74h-3.964c-.246 0-.49.261-.49.522ZM8.03 15.87h2.942v1.044H8.029V15.87Zm0-11.652h2.942v10.566H8.029V4.217Zm0-2.13h2.942V3.13H8.029V2.087Zm-1.022-.565v16c0 .244.27.478.49.478h4.005c.22 0 .49-.234.49-.479v-16c0-.31-.265-.521-.571-.521H7.579c-.307 0-.572.212-.572.522Zm-4.985 5.87h2.983v7.39H2.022v-7.39Zm0-2c0-.1.028-.131.122-.131h2.861v1.044H2.022v-.913ZM1 4.913v12.348c0 .428.17.739.572.739h3.964c.246 0 .49-.26.49-.522V4.782c0-.435-.285-.608-.695-.608H1.695c-.472 0-.695.238-.695.74Z" clip-rule="evenodd"/>
  </g>
  <defs>
    <clipPath id="a">
      <path fill="#fff" d="M0 0h19v19H0z"/>
    </clipPath>
  </defs>
</svg>
