<svg width="22" height="20" viewBox="0 0 22 20" fill="none" xmlns="http://www.w3.org/2000/svg">
<g clip-path="url(#clip0_2_29097)">
<path d="M11 13.75C12.5188 13.75 13.75 12.5188 13.75 11C13.75 9.48122 12.5188 8.25 11 8.25C9.48122 8.25 8.25 9.48122 8.25 11C8.25 12.5188 9.48122 13.75 11 13.75Z" fill="#FF8CA2"/>
<path d="M18.3333 3.66671H15.4275L14.2908 2.42921C13.9516 2.05337 13.4566 1.83337 12.9433 1.83337H9.05665C8.54331 1.83337 8.04831 2.05337 7.69998 2.42921L6.57248 3.66671H3.66665C2.65831 3.66671 1.83331 4.49171 1.83331 5.50004V16.5C1.83331 17.5084 2.65831 18.3334 3.66665 18.3334H18.3333C19.3416 18.3334 20.1666 17.5084 20.1666 16.5V5.50004C20.1666 4.49171 19.3416 3.66671 18.3333 3.66671ZM11 15.5834C8.46998 15.5834 6.41665 13.53 6.41665 11C6.41665 8.47004 8.46998 6.41671 11 6.41671C13.53 6.41671 15.5833 8.47004 15.5833 11C15.5833 13.53 13.53 15.5834 11 15.5834Z" fill="#FF8CA2"/>
</g>
<defs>
<clipPath id="clip0_2_29097">
<rect width="22" height="20" fill="white"/>
</clipPath>
</defs>
</svg>
